G04 Layer_Color=65535*
%FSLAX25Y25*%
%MOIN*%
G70*
G01*
G75*
%ADD15C,0.01000*%
%ADD16C,0.00512*%
%ADD17C,0.00965*%
D15*
X342520Y251969D02*
Y255906D01*
X248228Y251969D02*
Y255906D01*
X332403Y250849D02*
X331403Y249849D01*
Y247850D01*
X332403Y246850D01*
X336402D01*
X337402Y247850D01*
Y249849D01*
X336402Y250849D01*
X332403Y256847D02*
X331403Y255848D01*
Y253848D01*
X332403Y252849D01*
X333403D01*
X334403Y253848D01*
Y255848D01*
X335402Y256847D01*
X336402D01*
X337402Y255848D01*
Y253848D01*
X336402Y252849D01*
X331403Y258846D02*
Y260846D01*
Y259846D01*
X337402D01*
Y258846D01*
Y260846D01*
X338401Y263845D02*
Y267844D01*
X337402Y269843D02*
Y271842D01*
Y270843D01*
X331403D01*
X332403Y269843D01*
X259148Y263779D02*
X253150D01*
X256149D01*
Y259781D01*
X259148D01*
X253150D01*
X259148Y257782D02*
X253150D01*
Y254782D01*
X254149Y253783D01*
X258148D01*
X259148Y254782D01*
Y257782D01*
X253150Y251783D02*
X259148D01*
X257148Y249784D01*
X259148Y247785D01*
X253150D01*
X259148Y245785D02*
Y243786D01*
Y244786D01*
X253150D01*
Y245785D01*
Y243786D01*
X252150Y240787D02*
Y236788D01*
X253150Y234789D02*
Y232790D01*
Y233789D01*
X259148D01*
X258148Y234789D01*
X359449Y225591D02*
X353451D01*
Y228590D01*
X354450Y229589D01*
X356450D01*
X357450Y228590D01*
Y225591D01*
Y227590D02*
X359449Y229589D01*
Y231589D02*
X353451D01*
Y234588D01*
X354450Y235587D01*
X356450D01*
X357450Y234588D01*
Y231589D01*
X359449Y237587D02*
Y239586D01*
Y238586D01*
X355450D01*
Y237587D01*
X354450Y252582D02*
X353451Y251582D01*
Y249583D01*
X354450Y248583D01*
X358449D01*
X359449Y249583D01*
Y251582D01*
X358449Y252582D01*
X355450Y255581D02*
Y257580D01*
X356450Y258580D01*
X359449D01*
Y255581D01*
X358449Y254581D01*
X357450Y255581D01*
Y258580D01*
X359449Y260579D02*
X355450D01*
Y261579D01*
X356450Y262579D01*
X359449D01*
X356450D01*
X355450Y263578D01*
X356450Y264578D01*
X359449D01*
Y269576D02*
Y267577D01*
X358449Y266577D01*
X356450D01*
X355450Y267577D01*
Y269576D01*
X356450Y270576D01*
X357450D01*
Y266577D01*
X355450Y272575D02*
X359449D01*
X357450D01*
X356450Y273575D01*
X355450Y274575D01*
Y275574D01*
Y279573D02*
Y281572D01*
X356450Y282572D01*
X359449D01*
Y279573D01*
X358449Y278573D01*
X357450Y279573D01*
Y282572D01*
X293427Y232345D02*
X292427Y231346D01*
Y229346D01*
X293427Y228346D01*
X297426D01*
X298425Y229346D01*
Y231346D01*
X297426Y232345D01*
X293427Y238343D02*
X292427Y237344D01*
Y235344D01*
X293427Y234345D01*
X294426D01*
X295426Y235344D01*
Y237344D01*
X296426Y238343D01*
X297426D01*
X298425Y237344D01*
Y235344D01*
X297426Y234345D01*
X292427Y240343D02*
Y242342D01*
Y241342D01*
X298425D01*
Y240343D01*
Y242342D01*
X295426Y245341D02*
Y249340D01*
X298425Y255338D02*
Y251339D01*
X294426Y255338D01*
X293427D01*
X292427Y254338D01*
Y252339D01*
X293427Y251339D01*
X295426Y257337D02*
Y261336D01*
X292427Y263335D02*
X298425D01*
X295426D01*
Y267334D01*
X292427D01*
X298425D01*
X292427Y269333D02*
X298425D01*
Y272332D01*
X297426Y273332D01*
X293427D01*
X292427Y272332D01*
Y269333D01*
X298425Y275331D02*
X292427D01*
X294426Y277331D01*
X292427Y279330D01*
X298425D01*
X292427Y281329D02*
Y283329D01*
Y282329D01*
X298425D01*
Y281329D01*
Y283329D01*
X362205Y208661D02*
Y299213D01*
X251969Y204724D02*
X358268D01*
X251969Y303150D02*
X358268D01*
X248031Y208661D02*
Y299213D01*
D16*
X266929Y211418D02*
Y213779D01*
X268110D01*
X268503Y213385D01*
Y212598D01*
X268110Y212205D01*
X266929D01*
X269291D02*
X270078D01*
X269684D01*
Y214566D01*
X269291D01*
X271652Y213779D02*
X272439D01*
X272833Y213385D01*
Y212205D01*
X271652D01*
X271258Y212598D01*
X271652Y212992D01*
X272833D01*
X273620Y212205D02*
Y213779D01*
X274801D01*
X275194Y213385D01*
Y212205D01*
X276375Y214173D02*
Y213779D01*
X275981D01*
X276768D01*
X276375D01*
Y212598D01*
X276768Y212205D01*
X279130Y214566D02*
X278343D01*
X277949Y214173D01*
Y212598D01*
X278343Y212205D01*
X279130D01*
X279523Y212598D01*
Y214173D01*
X279130Y214566D01*
X281885Y214173D02*
X281491Y214566D01*
X280704D01*
X280311Y214173D01*
Y213779D01*
X280704Y213385D01*
X281491D01*
X281885Y212992D01*
Y212598D01*
X281491Y212205D01*
X280704D01*
X280311Y212598D01*
X285033Y214566D02*
Y212992D01*
X285821Y212205D01*
X286608Y212992D01*
Y214566D01*
X287395Y212205D02*
X288182D01*
X287789D01*
Y213779D01*
X287395D01*
X289363Y212205D02*
X290544D01*
X290937Y212598D01*
X290544Y212992D01*
X289756D01*
X289363Y213385D01*
X289756Y213779D01*
X290937D01*
X291724Y212205D02*
X292511D01*
X292118D01*
Y213779D01*
X291724D01*
X294086Y212205D02*
X294873D01*
X295266Y212598D01*
Y213385D01*
X294873Y213779D01*
X294086D01*
X293692Y213385D01*
Y212598D01*
X294086Y212205D01*
X296054D02*
Y213779D01*
X297234D01*
X297628Y213385D01*
Y212205D01*
D17*
X362205Y299213D02*
G03*
X358268Y303150I-3937J0D01*
G01*
X251969Y303150D02*
G03*
X248031Y299213I0J-3937D01*
G01*
X248031Y208661D02*
G03*
X251969Y204724I3937J0D01*
G01*
X358268D02*
G03*
X362205Y208661I0J3937D01*
G01*
M02*
