G04 Layer_Physical_Order=2*
G04 Layer_Color=16711680*
%FSLAX25Y25*%
%MOIN*%
G70*
G01*
G75*
%ADD15C,0.01000*%
%ADD16C,0.00512*%
%ADD17C,0.00965*%
%ADD18C,0.04331*%
%ADD19O,0.07087X0.04921*%
%ADD20C,0.08268*%
%ADD21C,0.12205*%
D15*
X362205Y208661D02*
Y299213D01*
X251969Y204724D02*
X358268D01*
X251969Y303150D02*
X358268D01*
X248031Y208661D02*
Y299213D01*
D16*
X345669Y294882D02*
X343308D01*
Y293701D01*
X343701Y293308D01*
X344488D01*
X344882Y293701D01*
Y294882D01*
Y292520D02*
Y291733D01*
Y292127D01*
X342520D01*
Y292520D01*
X343308Y290159D02*
Y289372D01*
X343701Y288978D01*
X344882D01*
Y290159D01*
X344488Y290553D01*
X344095Y290159D01*
Y288978D01*
X344882Y288191D02*
X343308D01*
Y287010D01*
X343701Y286617D01*
X344882D01*
X342914Y285436D02*
X343308D01*
Y285830D01*
Y285043D01*
Y285436D01*
X344488D01*
X344882Y285043D01*
X342520Y282681D02*
Y283468D01*
X342914Y283862D01*
X344488D01*
X344882Y283468D01*
Y282681D01*
X344488Y282288D01*
X342914D01*
X342520Y282681D01*
X342914Y279926D02*
X342520Y280320D01*
Y281107D01*
X342914Y281500D01*
X343308D01*
X343701Y281107D01*
Y280320D01*
X344095Y279926D01*
X344488D01*
X344882Y280320D01*
Y281107D01*
X344488Y281500D01*
X342520Y276778D02*
X344095D01*
X344882Y275990D01*
X344095Y275203D01*
X342520D01*
X344882Y274416D02*
Y273629D01*
Y274023D01*
X343308D01*
Y274416D01*
X344882Y272448D02*
Y271268D01*
X344488Y270874D01*
X344095Y271268D01*
Y272055D01*
X343701Y272448D01*
X343308Y272055D01*
Y270874D01*
X344882Y270087D02*
Y269300D01*
Y269693D01*
X343308D01*
Y270087D01*
X344882Y267725D02*
Y266938D01*
X344488Y266545D01*
X343701D01*
X343308Y266938D01*
Y267725D01*
X343701Y268119D01*
X344488D01*
X344882Y267725D01*
Y265757D02*
X343308D01*
Y264577D01*
X343701Y264183D01*
X344882D01*
X342520Y259460D02*
X344882D01*
Y260641D01*
X344488Y261035D01*
X343701D01*
X343308Y260641D01*
Y259460D01*
X344882Y257492D02*
Y258280D01*
X344488Y258673D01*
X343701D01*
X343308Y258280D01*
Y257492D01*
X343701Y257099D01*
X344095D01*
Y258673D01*
X344882Y256312D02*
Y255131D01*
X344488Y254737D01*
X344095Y255131D01*
Y255918D01*
X343701Y256312D01*
X343308Y255918D01*
Y254737D01*
X344882Y253950D02*
Y253163D01*
Y253557D01*
X343308D01*
Y253950D01*
X345669Y251195D02*
Y250802D01*
X345275Y250408D01*
X343308D01*
Y251589D01*
X343701Y251982D01*
X344488D01*
X344882Y251589D01*
Y250408D01*
Y249621D02*
X343308D01*
Y248440D01*
X343701Y248047D01*
X344882D01*
Y246079D02*
Y246866D01*
X344488Y247259D01*
X343701D01*
X343308Y246866D01*
Y246079D01*
X343701Y245685D01*
X344095D01*
Y247259D01*
X342520Y243324D02*
X344882D01*
Y244504D01*
X344488Y244898D01*
X343701D01*
X343308Y244504D01*
Y243324D01*
X342520Y240175D02*
X344882D01*
Y238995D01*
X344488Y238601D01*
X344095D01*
X343701D01*
X343308Y238995D01*
Y240175D01*
Y237814D02*
X344488D01*
X344882Y237420D01*
Y236240D01*
X345275D01*
X345669Y236633D01*
Y237027D01*
X344882Y236240D02*
X343308D01*
X344488Y231517D02*
X342914D01*
X342520Y231910D01*
Y232697D01*
X342914Y233091D01*
X344488D01*
X344882Y232697D01*
Y231910D01*
X344095Y232304D02*
X344882Y231517D01*
Y231910D02*
X344488Y231517D01*
X343308Y230730D02*
X344488D01*
X344882Y230336D01*
Y229155D01*
X343308D01*
Y227975D02*
Y227187D01*
X343701Y226794D01*
X344882D01*
Y227975D01*
X344488Y228368D01*
X344095Y227975D01*
Y226794D01*
X342520Y224432D02*
X344882D01*
Y225613D01*
X344488Y226007D01*
X343701D01*
X343308Y225613D01*
Y224432D01*
X342914Y222071D02*
X342520Y222464D01*
Y223252D01*
X342914Y223645D01*
X344488D01*
X344882Y223252D01*
Y222464D01*
X344488Y222071D01*
X343308Y221284D02*
X344488D01*
X344882Y220890D01*
Y219709D01*
X343308D01*
X342520Y218922D02*
X344882D01*
Y217742D01*
X344488Y217348D01*
X344095D01*
X343701D01*
X343308Y217742D01*
Y218922D01*
X344882Y215380D02*
Y216167D01*
X344488Y216561D01*
X343701D01*
X343308Y216167D01*
Y215380D01*
X343701Y214986D01*
X344095D01*
Y216561D01*
D17*
X362205Y299213D02*
G03*
X358268Y303150I-3937J0D01*
G01*
X251969Y303150D02*
G03*
X248031Y299213I0J-3937D01*
G01*
X248031Y208661D02*
G03*
X251969Y204724I3937J0D01*
G01*
X358268D02*
G03*
X362205Y208661I0J3937D01*
G01*
D18*
X270669Y239173D02*
D03*
Y268701D02*
D03*
D19*
X256102Y232579D02*
D03*
X273819D02*
D03*
X256102Y275295D02*
D03*
X273819D02*
D03*
D20*
X305118Y295276D02*
D03*
Y212598D02*
D03*
X354331Y295276D02*
D03*
Y212598D02*
D03*
D21*
X257874Y293307D02*
D03*
Y214567D02*
D03*
M02*
