G04 Layer_Color=16711935*
%FSLAX25Y25*%
%MOIN*%
G70*
G01*
G75*
%ADD15C,0.01000*%
%ADD16C,0.00512*%
%ADD17C,0.00965*%
%ADD25C,0.05131*%
%ADD26O,0.07887X0.05721*%
%ADD27C,0.09068*%
%ADD28C,0.13005*%
D15*
X362205Y208661D02*
Y299213D01*
X251969Y204724D02*
X358268D01*
X251969Y303150D02*
X358268D01*
X248031Y208661D02*
Y299213D01*
D16*
X345669Y294882D02*
X343308D01*
Y293701D01*
X343701Y293308D01*
X344488D01*
X344882Y293701D01*
Y294882D01*
Y292520D02*
Y291733D01*
Y292127D01*
X342520D01*
Y292520D01*
X343308Y290159D02*
Y289372D01*
X343701Y288978D01*
X344882D01*
Y290159D01*
X344488Y290553D01*
X344095Y290159D01*
Y288978D01*
X344882Y288191D02*
X343308D01*
Y287010D01*
X343701Y286617D01*
X344882D01*
X342914Y285436D02*
X343308D01*
Y285830D01*
Y285043D01*
Y285436D01*
X344488D01*
X344882Y285043D01*
X342520Y282681D02*
Y283468D01*
X342914Y283862D01*
X344488D01*
X344882Y283468D01*
Y282681D01*
X344488Y282288D01*
X342914D01*
X342520Y282681D01*
X342914Y279926D02*
X342520Y280320D01*
Y281107D01*
X342914Y281500D01*
X343308D01*
X343701Y281107D01*
Y280320D01*
X344095Y279926D01*
X344488D01*
X344882Y280320D01*
Y281107D01*
X344488Y281500D01*
X342520Y276778D02*
X344095D01*
X344882Y275990D01*
X344095Y275203D01*
X342520D01*
X344882Y274416D02*
Y273629D01*
Y274023D01*
X343308D01*
Y274416D01*
X344882Y272448D02*
Y271268D01*
X344488Y270874D01*
X344095Y271268D01*
Y272055D01*
X343701Y272448D01*
X343308Y272055D01*
Y270874D01*
X344882Y270087D02*
Y269300D01*
Y269693D01*
X343308D01*
Y270087D01*
X344882Y267725D02*
Y266938D01*
X344488Y266545D01*
X343701D01*
X343308Y266938D01*
Y267725D01*
X343701Y268119D01*
X344488D01*
X344882Y267725D01*
Y265757D02*
X343308D01*
Y264577D01*
X343701Y264183D01*
X344882D01*
X344488Y231497D02*
X342914D01*
X342520Y231890D01*
Y232677D01*
X342914Y233071D01*
X344488D01*
X344882Y232677D01*
Y231890D01*
X344095Y232284D02*
X344882Y231497D01*
Y231890D02*
X344488Y231497D01*
X343308Y230709D02*
X344488D01*
X344882Y230316D01*
Y229135D01*
X343308D01*
Y227954D02*
Y227167D01*
X343701Y226774D01*
X344882D01*
Y227954D01*
X344488Y228348D01*
X344095Y227954D01*
Y226774D01*
X342520Y224412D02*
X344882D01*
Y225593D01*
X344488Y225987D01*
X343701D01*
X343308Y225593D01*
Y224412D01*
X342914Y222051D02*
X342520Y222444D01*
Y223232D01*
X342914Y223625D01*
X344488D01*
X344882Y223232D01*
Y222444D01*
X344488Y222051D01*
X343308Y221264D02*
X344488D01*
X344882Y220870D01*
Y219689D01*
X343308D01*
X342520Y218902D02*
X344882D01*
Y217722D01*
X344488Y217328D01*
X344095D01*
X343701D01*
X343308Y217722D01*
Y218902D01*
X344882Y215360D02*
Y216147D01*
X344488Y216541D01*
X343701D01*
X343308Y216147D01*
Y215360D01*
X343701Y214967D01*
X344095D01*
Y216541D01*
D17*
X362205Y299213D02*
G03*
X358268Y303150I-3937J0D01*
G01*
X251969Y303150D02*
G03*
X248031Y299213I0J-3937D01*
G01*
X248031Y208661D02*
G03*
X251969Y204724I3937J0D01*
G01*
X358268D02*
G03*
X362205Y208661I0J3937D01*
G01*
D25*
X270669Y239173D02*
D03*
Y268701D02*
D03*
D26*
X256102Y232579D02*
D03*
X273819D02*
D03*
X256102Y275295D02*
D03*
X273819D02*
D03*
D27*
X305118Y295276D02*
D03*
Y212598D02*
D03*
X354331Y295276D02*
D03*
Y212598D02*
D03*
D28*
X257874Y293307D02*
D03*
Y214567D02*
D03*
M02*
