G04 Layer_Color=32896*
%FSLAX25Y25*%
%MOIN*%
G70*
G01*
G75*
%ADD13C,0.01969*%
%ADD15C,0.01000*%
%ADD16C,0.00512*%
%ADD17C,0.00965*%
%ADD29C,0.01181*%
%ADD30C,0.01575*%
%ADD31C,0.03937*%
G36*
X339240Y285811D02*
X339317Y285796D01*
X339532Y285735D01*
X339640Y285688D01*
X339763Y285612D01*
X339778Y285596D01*
X339793Y285581D01*
X339824Y285550D01*
X339855Y285489D01*
X339886Y285427D01*
X339916Y285335D01*
Y285227D01*
Y285104D01*
Y285089D01*
Y285058D01*
Y285012D01*
Y284951D01*
Y284858D01*
X339901Y284766D01*
Y284643D01*
Y284520D01*
Y284213D01*
X339886Y283875D01*
Y283490D01*
Y283060D01*
Y283045D01*
Y283014D01*
Y282953D01*
Y282876D01*
Y282784D01*
Y282676D01*
Y282430D01*
X339901Y282153D01*
Y281877D01*
X339916Y281615D01*
X339932Y281385D01*
Y281369D01*
Y281323D01*
X339916Y281246D01*
X339901Y281154D01*
X339886Y281047D01*
X339840Y280939D01*
X339778Y280847D01*
X339686Y280755D01*
X339670Y280739D01*
X339640Y280724D01*
X339594Y280709D01*
X339517Y280678D01*
X339424Y280647D01*
X339332Y280616D01*
X339209Y280601D01*
X339025D01*
X338963Y280616D01*
X338886Y280632D01*
X338794Y280662D01*
X338702Y280709D01*
X338595Y280770D01*
X338502Y280847D01*
X338487Y280862D01*
X338472Y280878D01*
X338425Y280939D01*
X338395Y281001D01*
X338364Y281077D01*
X338333Y281170D01*
X338318Y281277D01*
X338333Y281400D01*
Y281431D01*
X338349Y281523D01*
Y281646D01*
X338364Y281800D01*
Y281969D01*
X338379Y282153D01*
Y282322D01*
Y282476D01*
Y282491D01*
Y282538D01*
X338364Y282614D01*
X338349Y282676D01*
X338333Y282753D01*
X338302Y282830D01*
X338272Y282876D01*
X338241Y282891D01*
X336981D01*
X337027Y282860D01*
X337088Y282814D01*
X337165Y282753D01*
X337257Y282645D01*
X337350Y282522D01*
X337442Y282353D01*
X337519Y282138D01*
Y282123D01*
X337534Y282107D01*
X337549Y282030D01*
X337596Y281892D01*
X337626Y281723D01*
X337672Y281523D01*
X337718Y281308D01*
X337734Y281062D01*
X337749Y280816D01*
Y280801D01*
Y280739D01*
X337734Y280647D01*
X337718Y280509D01*
X337703Y280355D01*
X337672Y280186D01*
X337626Y279986D01*
X337549Y279771D01*
X337473Y279556D01*
X337365Y279310D01*
X337242Y279079D01*
X337088Y278833D01*
X336919Y278588D01*
X336704Y278357D01*
X336473Y278142D01*
X336197Y277927D01*
X336181Y277911D01*
X336151Y277881D01*
X336089Y277834D01*
X336012Y277788D01*
X335920Y277711D01*
X335797Y277635D01*
X335659Y277558D01*
X335490Y277466D01*
X335321Y277373D01*
X335105Y277296D01*
X334890Y277220D01*
X334644Y277143D01*
X334368Y277097D01*
X334091Y277050D01*
X333784Y277020D01*
X333461Y277004D01*
X333292D01*
X333169Y277020D01*
X333015Y277035D01*
X332831Y277050D01*
X332646Y277081D01*
X332431Y277112D01*
X331970Y277235D01*
X331724Y277296D01*
X331494Y277389D01*
X331248Y277496D01*
X331017Y277619D01*
X330787Y277758D01*
X330571Y277927D01*
X330556Y277942D01*
X330510Y277973D01*
X330433Y278034D01*
X330356Y278126D01*
X330249Y278234D01*
X330126Y278357D01*
X330003Y278511D01*
X329864Y278695D01*
X329726Y278879D01*
X329603Y279110D01*
X329480Y279341D01*
X329373Y279602D01*
X329280Y279879D01*
X329219Y280171D01*
X329173Y280478D01*
X329157Y280816D01*
Y280847D01*
Y280908D01*
Y281016D01*
X329173Y281154D01*
X329188Y281323D01*
X329219Y281508D01*
X329311Y281907D01*
Y281923D01*
X329326Y281969D01*
X329357Y282030D01*
X329388Y282107D01*
X329419Y282215D01*
X329480Y282353D01*
X329526Y282491D01*
X329588Y282645D01*
Y282661D01*
X329603Y282691D01*
X329634Y282784D01*
X329680Y282891D01*
X329695Y282922D01*
Y282937D01*
X329665Y282922D01*
X329649Y282907D01*
X329603Y282891D01*
X329542Y282876D01*
X329449D01*
Y282891D01*
Y282907D01*
Y282953D01*
Y283014D01*
X329465Y283152D01*
Y283352D01*
X329480Y283552D01*
Y283783D01*
X329496Y283998D01*
Y284198D01*
Y284213D01*
Y284274D01*
Y284382D01*
Y284490D01*
X329480Y284628D01*
Y284782D01*
X329465Y285104D01*
Y285120D01*
Y285166D01*
Y285227D01*
X329480Y285304D01*
X329496Y285396D01*
X329526Y285473D01*
X329572Y285565D01*
X329649Y285627D01*
X329665Y285642D01*
X329711Y285658D01*
X329772Y285688D01*
X329849Y285719D01*
X330064Y285796D01*
X330172Y285811D01*
X330295Y285827D01*
X330356D01*
X330418Y285811D01*
X330494D01*
X330679Y285765D01*
X330863Y285673D01*
X330879Y285658D01*
X330894Y285627D01*
X330940Y285581D01*
X330986Y285519D01*
X331017Y285442D01*
X331048Y285335D01*
X331063Y285227D01*
Y285104D01*
Y285089D01*
Y285058D01*
Y284997D01*
Y284920D01*
X331079Y284782D01*
Y284720D01*
X331094Y284659D01*
Y284643D01*
X331125Y284628D01*
X331171Y284613D01*
X331232Y284597D01*
X338179D01*
X338241Y284613D01*
X338302Y284643D01*
X338349Y284705D01*
Y284720D01*
X338364Y284797D01*
Y284843D01*
Y284920D01*
Y284997D01*
X338349Y285104D01*
Y285120D01*
Y285166D01*
X338333Y285227D01*
X338349Y285304D01*
X338364Y285396D01*
X338395Y285473D01*
X338441Y285565D01*
X338518Y285642D01*
X338533D01*
X338564Y285673D01*
X338625Y285704D01*
X338687Y285735D01*
X338779Y285765D01*
X338886Y285796D01*
X338994Y285811D01*
X339117Y285827D01*
X339179D01*
X339240Y285811D01*
D02*
G37*
G36*
X337119Y275683D02*
X337196D01*
X337365Y275637D01*
X337549Y275560D01*
X337565Y275544D01*
X337596Y275514D01*
X337642Y275467D01*
X337688Y275406D01*
X337734Y275329D01*
X337780Y275221D01*
X337811Y275098D01*
Y274976D01*
Y274960D01*
Y274945D01*
Y274899D01*
X337795Y274853D01*
Y274776D01*
Y274683D01*
X337780Y274561D01*
Y274438D01*
Y274284D01*
X337765Y274099D01*
Y273915D01*
Y273700D01*
X337749Y273454D01*
Y273193D01*
Y272916D01*
Y272609D01*
Y272593D01*
Y272532D01*
Y272440D01*
Y272332D01*
Y272178D01*
Y272009D01*
Y271825D01*
Y271625D01*
X337765Y271195D01*
X337780Y270733D01*
X337795Y270288D01*
Y270073D01*
X337811Y269873D01*
Y269857D01*
Y269811D01*
Y269734D01*
X337795Y269642D01*
X337780Y269550D01*
X337749Y269442D01*
X337703Y269350D01*
X337642Y269273D01*
X337626Y269258D01*
X337596Y269227D01*
X337534Y269196D01*
X337457Y269150D01*
X337365Y269104D01*
X337257Y269058D01*
X337134Y269043D01*
X337011Y269027D01*
X336904D01*
X336827Y269043D01*
X336673Y269089D01*
X336612Y269135D01*
X336566Y269181D01*
X336550Y269196D01*
X336504Y269227D01*
X336443Y269289D01*
X336381Y269381D01*
X336320Y269473D01*
X336274Y269596D01*
X336243Y269719D01*
Y269857D01*
Y269873D01*
Y269888D01*
X336258Y269980D01*
X336274Y270134D01*
Y270303D01*
X336289Y270487D01*
X336304Y270687D01*
X336320Y270872D01*
Y271025D01*
Y271041D01*
Y271087D01*
X336304Y271148D01*
X336289Y271225D01*
X336274Y271302D01*
X336258Y271364D01*
X336243Y271410D01*
X336212Y271425D01*
X326406D01*
Y271441D01*
Y271471D01*
X326421Y271533D01*
Y271609D01*
Y271717D01*
X326437Y271825D01*
X326452Y272101D01*
X326468Y272409D01*
X326483Y272731D01*
X326498Y273054D01*
Y273362D01*
Y273377D01*
Y273393D01*
Y273485D01*
Y273638D01*
X326483Y273807D01*
Y274007D01*
X326468Y274222D01*
X326452Y274438D01*
X326421Y274637D01*
Y274653D01*
Y274699D01*
Y274760D01*
X326437Y274837D01*
X326452Y274929D01*
X326498Y275037D01*
X326544Y275129D01*
X326637Y275221D01*
X326652D01*
X326683Y275252D01*
X326729Y275268D01*
X326790Y275298D01*
X326883Y275329D01*
X326975Y275360D01*
X327098Y275375D01*
X327221Y275391D01*
X327282D01*
X327344Y275375D01*
X327420D01*
X327620Y275314D01*
X327713Y275283D01*
X327805Y275221D01*
X327820Y275206D01*
X327851Y275175D01*
X327882Y275129D01*
X327928Y275068D01*
X327974Y274976D01*
X328005Y274883D01*
X328020Y274760D01*
Y274637D01*
Y274607D01*
X328005Y274530D01*
X327989Y274407D01*
X327974Y274269D01*
X327958Y274099D01*
Y273930D01*
Y273746D01*
Y273592D01*
Y273577D01*
Y273515D01*
X327974Y273439D01*
Y273362D01*
X327989Y273270D01*
X328020Y273208D01*
X328051Y273147D01*
X328081Y273131D01*
X336212D01*
X336227Y273147D01*
X336243Y273162D01*
X336258Y273208D01*
X336274Y273285D01*
X336289Y273408D01*
X336304Y273562D01*
X336320Y273777D01*
Y273807D01*
Y273884D01*
Y273992D01*
X336304Y274146D01*
Y274330D01*
X336289Y274530D01*
X336274Y274745D01*
X336243Y274976D01*
Y274991D01*
X336227Y275037D01*
Y275098D01*
X336243Y275175D01*
X336258Y275268D01*
X336304Y275375D01*
X336366Y275467D01*
X336458Y275560D01*
X336473D01*
X336489Y275575D01*
X336535Y275606D01*
X336596Y275621D01*
X336673Y275652D01*
X336766Y275683D01*
X336996Y275698D01*
X337057D01*
X337119Y275683D01*
D02*
G37*
G36*
X335382Y267798D02*
X335490Y267782D01*
X335628Y267767D01*
X335935Y267721D01*
X336274Y267629D01*
X336627Y267490D01*
X336812Y267413D01*
X336981Y267306D01*
X337134Y267198D01*
X337288Y267060D01*
X337303Y267045D01*
X337319Y267029D01*
X337365Y266983D01*
X337411Y266906D01*
X337473Y266829D01*
X337534Y266722D01*
X337611Y266614D01*
X337672Y266476D01*
X337749Y266322D01*
X337826Y266153D01*
X337888Y265969D01*
X337949Y265754D01*
X337995Y265538D01*
X338041Y265293D01*
X338057Y265047D01*
X338072Y264770D01*
Y264755D01*
Y264724D01*
Y264678D01*
Y264616D01*
X338057Y264447D01*
X338041Y264217D01*
X338011Y263955D01*
X337980Y263694D01*
X337918Y263402D01*
X337841Y263125D01*
Y263094D01*
X337811Y263033D01*
X337780Y262926D01*
X337734Y262818D01*
X337672Y262695D01*
X337611Y262587D01*
X337519Y262495D01*
X337426Y262449D01*
X337442D01*
X337242Y262157D01*
X337350Y262172D01*
X337365D01*
X337380Y262157D01*
X337473Y262126D01*
X337580Y262065D01*
X337672Y262003D01*
X337703Y261972D01*
X337749Y261896D01*
X337795Y261757D01*
X337826Y261573D01*
Y261542D01*
Y261465D01*
X337811Y261358D01*
Y261219D01*
X337795Y261066D01*
Y260912D01*
X337780Y260743D01*
Y260605D01*
Y260589D01*
Y260528D01*
Y260436D01*
Y260313D01*
X337795Y260051D01*
Y259928D01*
X337811Y259805D01*
Y259790D01*
Y259759D01*
Y259698D01*
X337795Y259621D01*
X337765Y259544D01*
X337718Y259467D01*
X337657Y259375D01*
X337580Y259298D01*
X337565D01*
X337534Y259283D01*
X337488Y259252D01*
X337426Y259221D01*
X337242Y259175D01*
X337027Y259160D01*
X336919D01*
X336842Y259175D01*
X336673Y259206D01*
X336504Y259283D01*
X336489Y259298D01*
X336458Y259314D01*
X336412Y259360D01*
X336350Y259421D01*
X336304Y259498D01*
X336258Y259590D01*
X336227Y259682D01*
Y259790D01*
Y259805D01*
X336243Y259852D01*
Y259928D01*
X336258Y260021D01*
X336289Y260205D01*
Y260266D01*
Y260328D01*
X336274Y260359D01*
X336243Y260405D01*
X336181Y260451D01*
X336120Y260482D01*
X331862D01*
X331755Y260497D01*
X331632Y260512D01*
X331494Y260543D01*
X331325Y260589D01*
X331155Y260635D01*
X330971Y260697D01*
X330787Y260774D01*
X330602Y260881D01*
X330402Y260989D01*
X330218Y261127D01*
X330033Y261296D01*
X329864Y261481D01*
X329711Y261696D01*
Y261711D01*
X329680Y261742D01*
X329665Y261788D01*
X329618Y261850D01*
X329588Y261926D01*
X329542Y262034D01*
X329480Y262142D01*
X329434Y262280D01*
X329326Y262587D01*
X329250Y262941D01*
X329188Y263325D01*
X329157Y263771D01*
Y263786D01*
Y263817D01*
Y263863D01*
Y263940D01*
Y264032D01*
X329173Y264124D01*
X329188Y264370D01*
X329219Y264662D01*
X329265Y264970D01*
X329326Y265293D01*
X329403Y265615D01*
Y265631D01*
X329419Y265661D01*
X329434Y265707D01*
X329449Y265769D01*
X329511Y265938D01*
X329603Y266153D01*
X329711Y266414D01*
X329849Y266676D01*
X330003Y266952D01*
X330187Y267214D01*
X330203Y267229D01*
X330233Y267260D01*
X330279Y267306D01*
X330341Y267367D01*
X330418Y267429D01*
X330510Y267490D01*
X330633Y267521D01*
X330756Y267552D01*
X330956D01*
X331063Y267536D01*
X331171Y267506D01*
X331294Y267444D01*
X331417Y267383D01*
X331432D01*
X331448Y267352D01*
X331540Y267275D01*
X331647Y267137D01*
X331724Y266952D01*
Y266937D01*
Y266891D01*
Y266829D01*
X331709Y266737D01*
X331693Y266630D01*
X331632Y266507D01*
X331570Y266368D01*
X331463Y266230D01*
X331448Y266215D01*
X331417Y266153D01*
X331355Y266046D01*
X331278Y265907D01*
X331202Y265738D01*
X331109Y265538D01*
X331017Y265308D01*
X330925Y265047D01*
X330909Y265016D01*
X330894Y264954D01*
X330863Y264831D01*
X330833Y264678D01*
X330802Y264493D01*
X330787Y264278D01*
X330756Y264032D01*
Y263771D01*
Y263755D01*
Y263740D01*
Y263648D01*
X330787Y263525D01*
X330817Y263356D01*
X330879Y263171D01*
X330971Y262972D01*
X331109Y262787D01*
X331278Y262603D01*
X331294Y262587D01*
X331355Y262541D01*
X331448Y262464D01*
X331570Y262387D01*
X331709Y262326D01*
X331862Y262249D01*
X332016Y262203D01*
X332185Y262188D01*
Y262203D01*
X332170Y262234D01*
Y262280D01*
X332154Y262372D01*
X332139Y262495D01*
X332124Y262649D01*
X332108Y262849D01*
X332093Y263079D01*
Y263110D01*
X332078Y263187D01*
Y263294D01*
X332062Y263433D01*
Y263586D01*
X332047Y263740D01*
Y263894D01*
Y264032D01*
Y264048D01*
Y264109D01*
Y264201D01*
X332062Y264309D01*
X332078Y264462D01*
X332093Y264632D01*
X332124Y264816D01*
X332154Y265016D01*
X332277Y265461D01*
X332339Y265692D01*
X332431Y265923D01*
X332539Y266153D01*
X332662Y266384D01*
X332800Y266599D01*
X332969Y266814D01*
Y266829D01*
X333000Y266860D01*
X333046Y266906D01*
X333107Y266968D01*
X333169Y267045D01*
X333261Y267137D01*
X333369Y267214D01*
X333507Y267306D01*
X333645Y267413D01*
X333799Y267490D01*
X333983Y267583D01*
X334183Y267659D01*
X334399Y267721D01*
X334629Y267767D01*
X334875Y267798D01*
X335152Y267813D01*
X335290D01*
X335382Y267798D01*
D02*
G37*
G36*
X337196Y258530D02*
X337365Y258499D01*
X337549Y258453D01*
X337565Y258437D01*
X337596Y258422D01*
X337642Y258376D01*
X337688Y258314D01*
X337765Y258161D01*
X337795Y258069D01*
Y257961D01*
Y257946D01*
Y257915D01*
Y257869D01*
Y257807D01*
Y257654D01*
X337780Y257454D01*
Y257208D01*
Y256962D01*
Y256716D01*
Y256485D01*
Y256455D01*
Y256378D01*
Y256255D01*
Y256086D01*
Y255901D01*
Y255686D01*
X337795Y255241D01*
Y255225D01*
Y255179D01*
Y255118D01*
X337780Y255056D01*
X337765Y254964D01*
X337718Y254887D01*
X337657Y254810D01*
X337565Y254733D01*
X337549D01*
X337519Y254702D01*
X337473Y254687D01*
X337411Y254656D01*
X337334Y254626D01*
X337242Y254610D01*
X337011Y254580D01*
X336889D01*
X336812Y254595D01*
X336627Y254641D01*
X336443Y254733D01*
X336427Y254749D01*
X336397Y254764D01*
X336350Y254810D01*
X336304Y254872D01*
X336274Y254948D01*
X336227Y255025D01*
X336212Y255133D01*
X336227Y255256D01*
Y255271D01*
X336243Y255287D01*
X336258Y255379D01*
X336274Y255486D01*
Y255579D01*
Y255594D01*
X336258Y255625D01*
X336227Y255656D01*
X336181Y255671D01*
X331632D01*
X331616Y255656D01*
X331570Y255609D01*
X331494Y255548D01*
X331417Y255456D01*
X331309Y255348D01*
X331217Y255225D01*
X331125Y255087D01*
X331032Y254933D01*
X331017Y254902D01*
X330986Y254825D01*
X330940Y254687D01*
X330894Y254518D01*
X330848Y254318D01*
X330802Y254103D01*
X330771Y253857D01*
X330756Y253596D01*
Y253565D01*
Y253504D01*
X330771Y253396D01*
X330787Y253258D01*
X330817Y253119D01*
X330848Y252981D01*
X330909Y252843D01*
X330986Y252735D01*
X331002Y252720D01*
X331032Y252689D01*
X331094Y252643D01*
X331186Y252582D01*
X331294Y252535D01*
X331432Y252489D01*
X331616Y252459D01*
X331816Y252443D01*
X336212D01*
X336227Y252459D01*
X336243Y252489D01*
Y252505D01*
Y252551D01*
Y252628D01*
X336227Y252766D01*
Y252781D01*
X336212Y252827D01*
Y252889D01*
X336227Y252981D01*
X336243Y253073D01*
X336274Y253166D01*
X336335Y253258D01*
X336427Y253350D01*
X336443D01*
X336473Y253381D01*
X336520Y253396D01*
X336581Y253427D01*
X336673Y253458D01*
X336766Y253473D01*
X337011Y253504D01*
X337073D01*
X337134Y253488D01*
X337227D01*
X337411Y253427D01*
X337503Y253396D01*
X337596Y253335D01*
X337611Y253319D01*
X337642Y253289D01*
X337672Y253242D01*
X337718Y253181D01*
X337765Y253104D01*
X337795Y252996D01*
X337811Y252889D01*
X337795Y252766D01*
Y252750D01*
Y252720D01*
Y252674D01*
Y252597D01*
Y252428D01*
X337780Y252213D01*
Y251982D01*
Y251736D01*
Y251521D01*
Y251321D01*
Y251306D01*
Y251244D01*
Y251137D01*
Y250998D01*
Y250845D01*
Y250645D01*
X337795Y250430D01*
Y250184D01*
Y250168D01*
Y250122D01*
Y250061D01*
X337780Y249984D01*
X337765Y249907D01*
X337734Y249815D01*
X337672Y249738D01*
X337596Y249661D01*
X337580Y249646D01*
X337549Y249630D01*
X337503Y249600D01*
X337426Y249569D01*
X337350Y249538D01*
X337242Y249507D01*
X337134Y249477D01*
X336950D01*
X336889Y249492D01*
X336796D01*
X336612Y249554D01*
X336504Y249600D01*
X336412Y249661D01*
X336397Y249676D01*
X336366Y249692D01*
X336335Y249738D01*
X336289Y249799D01*
X336258Y249876D01*
X336227Y249969D01*
X336212Y250092D01*
X336227Y250215D01*
Y250230D01*
X336243Y250276D01*
Y250337D01*
X336258Y250414D01*
X336274Y250583D01*
Y250645D01*
Y250706D01*
X336258Y250722D01*
X336227Y250737D01*
X331371D01*
X331294Y250752D01*
X331186D01*
X331079Y250768D01*
X330833Y250829D01*
X330556Y250922D01*
X330264Y251045D01*
X330003Y251229D01*
X329880Y251352D01*
X329772Y251475D01*
Y251490D01*
X329741Y251506D01*
X329711Y251552D01*
X329680Y251613D01*
X329634Y251690D01*
X329572Y251767D01*
X329465Y251997D01*
X329357Y252274D01*
X329250Y252597D01*
X329188Y252966D01*
X329157Y253381D01*
Y253396D01*
Y253412D01*
Y253458D01*
Y253519D01*
X329173Y253657D01*
X329188Y253842D01*
X329219Y254057D01*
X329250Y254288D01*
X329311Y254518D01*
X329388Y254733D01*
Y254749D01*
X329419Y254810D01*
X329449Y254902D01*
X329496Y255025D01*
X329557Y255148D01*
X329634Y255302D01*
X329818Y255594D01*
X329834Y255640D01*
X329849Y255656D01*
X329880Y255671D01*
X329910Y255686D01*
X329618D01*
X329480Y255671D01*
Y255686D01*
Y255702D01*
Y255794D01*
X329496Y255932D01*
Y256101D01*
X329511Y256301D01*
Y256532D01*
X329526Y256977D01*
Y257008D01*
Y257069D01*
Y257177D01*
Y257300D01*
X329511Y257454D01*
Y257608D01*
X329496Y257946D01*
Y257961D01*
Y257992D01*
Y258053D01*
Y258130D01*
X329526Y258207D01*
X329557Y258284D01*
X329618Y258376D01*
X329711Y258453D01*
X329726D01*
X329741Y258468D01*
X329787Y258484D01*
X329849Y258499D01*
X329926Y258514D01*
X330033Y258530D01*
X330141Y258545D01*
X330372D01*
X330448Y258530D01*
X330633Y258499D01*
X330817Y258437D01*
X330833Y258422D01*
X330863Y258407D01*
X330956Y258314D01*
X331048Y258161D01*
X331079Y258069D01*
Y257961D01*
Y257946D01*
Y257915D01*
Y257869D01*
X331063Y257792D01*
X331079Y257638D01*
X331109Y257469D01*
X331125Y257454D01*
X331171Y257423D01*
X331263Y257392D01*
X331325Y257377D01*
X336181D01*
X336212Y257392D01*
X336227Y257423D01*
X336258Y257485D01*
Y257515D01*
Y257608D01*
X336243Y257746D01*
X336227Y257946D01*
Y257961D01*
Y257992D01*
Y258053D01*
Y258130D01*
X336258Y258207D01*
X336304Y258284D01*
X336381Y258376D01*
X336473Y258453D01*
X336489D01*
X336504Y258468D01*
X336550Y258484D01*
X336612Y258499D01*
X336689Y258514D01*
X336766Y258530D01*
X336996Y258545D01*
X337119D01*
X337196Y258530D01*
D02*
G37*
G36*
X330341Y248478D02*
X330418D01*
X330587Y248432D01*
X330679Y248401D01*
X330756Y248355D01*
X330771Y248339D01*
X330802Y248309D01*
X330848Y248263D01*
X330894Y248201D01*
X330940Y248124D01*
X330986Y248017D01*
X331017Y247894D01*
Y247771D01*
Y247755D01*
Y247709D01*
X331002Y247648D01*
Y247571D01*
X331017Y247386D01*
X331048Y247310D01*
X331079Y247248D01*
X331094Y247233D01*
X331155Y247171D01*
X331263Y247125D01*
X331340Y247110D01*
X335582D01*
X335674Y247094D01*
X335766D01*
X335889Y247079D01*
X336166Y247018D01*
X336473Y246941D01*
X336781Y246818D01*
X337088Y246633D01*
X337242Y246526D01*
X337380Y246403D01*
Y246387D01*
X337411Y246372D01*
X337442Y246326D01*
X337488Y246264D01*
X337534Y246188D01*
X337596Y246095D01*
X337657Y245988D01*
X337718Y245865D01*
X337795Y245726D01*
X337857Y245573D01*
X337964Y245219D01*
X338041Y244804D01*
X338057Y244574D01*
X338072Y244328D01*
Y244312D01*
Y244282D01*
Y244220D01*
Y244143D01*
X338057Y244051D01*
Y243928D01*
X338041Y243682D01*
X338011Y243390D01*
X337949Y243098D01*
X337888Y242822D01*
X337795Y242560D01*
Y242545D01*
X337780Y242514D01*
X337749Y242468D01*
X337703Y242391D01*
X337580Y242222D01*
X337411Y241991D01*
X337303Y241869D01*
X337180Y241730D01*
X337027Y241592D01*
X336873Y241454D01*
X336704Y241315D01*
X336504Y241192D01*
X336289Y241054D01*
X336058Y240931D01*
X336043D01*
X335997Y240916D01*
X335920Y240885D01*
X335843Y240869D01*
X335736Y240854D01*
X335644D01*
X335536Y240869D01*
X335428Y240916D01*
X335413D01*
X335382Y240946D01*
X335321Y240992D01*
X335259Y241039D01*
X335182Y241115D01*
X335105Y241208D01*
X335029Y241315D01*
X334967Y241438D01*
Y241454D01*
X334952Y241500D01*
X334936Y241561D01*
X334906Y241638D01*
X334875Y241853D01*
Y241961D01*
X334890Y242084D01*
Y242099D01*
X334906Y242145D01*
X334921Y242191D01*
X334952Y242268D01*
X334983Y242345D01*
X335059Y242407D01*
X335136Y242483D01*
X335244Y242530D01*
X335275Y242545D01*
X335351Y242576D01*
X335459Y242637D01*
X335597Y242714D01*
X335751Y242822D01*
X335920Y242945D01*
X336089Y243083D01*
X336243Y243236D01*
X336258Y243252D01*
X336274Y243298D01*
X336320Y243375D01*
X336350Y243482D01*
X336397Y243621D01*
X336443Y243790D01*
X336458Y243990D01*
X336473Y244220D01*
Y244251D01*
Y244328D01*
X336458Y244451D01*
X336443Y244589D01*
X336397Y244743D01*
X336350Y244897D01*
X336274Y245035D01*
X336181Y245158D01*
X336166Y245173D01*
X336120Y245188D01*
X336058Y245235D01*
X335966Y245281D01*
X335828Y245327D01*
X335674Y245358D01*
X335474Y245388D01*
X335244Y245404D01*
X331140D01*
X331094Y245388D01*
X331063D01*
X331048Y245373D01*
X331032Y245358D01*
X331017Y245296D01*
Y245204D01*
Y245188D01*
X331002Y245127D01*
Y245019D01*
X330986Y244881D01*
Y244712D01*
X330971Y244512D01*
Y244282D01*
Y244020D01*
Y244005D01*
Y243990D01*
Y243897D01*
Y243744D01*
Y243559D01*
X330986Y243344D01*
Y243113D01*
X331017Y242606D01*
Y242591D01*
Y242545D01*
X331002Y242483D01*
X330986Y242391D01*
X330971Y242299D01*
X330925Y242207D01*
X330863Y242114D01*
X330787Y242038D01*
X330771Y242022D01*
X330740Y242007D01*
X330694Y241976D01*
X330617Y241930D01*
X330433Y241869D01*
X330326Y241853D01*
X330218Y241838D01*
X330156D01*
X330095Y241853D01*
X330018Y241869D01*
X329834Y241930D01*
X329726Y241976D01*
X329634Y242053D01*
X329618Y242068D01*
X329603Y242084D01*
X329557Y242130D01*
X329526Y242191D01*
X329480Y242268D01*
X329449Y242376D01*
X329434Y242483D01*
Y242622D01*
Y242652D01*
Y242729D01*
X329449Y242852D01*
Y243006D01*
Y243190D01*
X329465Y243406D01*
Y243652D01*
Y243897D01*
Y243928D01*
Y244005D01*
Y244128D01*
Y244297D01*
X329449Y244497D01*
Y244712D01*
Y244958D01*
X329434Y245219D01*
Y245250D01*
X329419Y245296D01*
X329388Y245358D01*
X329326Y245404D01*
X329280D01*
X329234Y245419D01*
X329142D01*
X329004Y245434D01*
X328835D01*
X328604Y245419D01*
X328327D01*
X327405Y245373D01*
X327282D01*
X327190Y245388D01*
X327098Y245434D01*
X326990Y245480D01*
X326883Y245573D01*
X326790Y245680D01*
Y245696D01*
X326775Y245726D01*
X326744Y245773D01*
X326713Y245834D01*
X326698Y245911D01*
X326667Y246019D01*
X326652Y246126D01*
Y246264D01*
Y246280D01*
Y246326D01*
X326667Y246403D01*
X326683Y246480D01*
X326744Y246710D01*
X326790Y246818D01*
X326867Y246941D01*
Y246956D01*
X326898Y246971D01*
X326944Y247018D01*
X326990Y247048D01*
X327067Y247079D01*
X327159Y247110D01*
X327267Y247125D01*
X327390Y247110D01*
X327513D01*
X327605Y247094D01*
X328128D01*
X328435Y247110D01*
X328712Y247125D01*
X328850Y247141D01*
X328973Y247156D01*
X329081Y247171D01*
X329157Y247202D01*
X329173D01*
X329204Y247233D01*
X329250Y247264D01*
X329296Y247310D01*
X329357Y247386D01*
X329403Y247494D01*
X329419Y247617D01*
X329434Y247786D01*
Y247801D01*
Y247848D01*
Y247909D01*
Y247986D01*
X329449Y248063D01*
X329480Y248155D01*
X329526Y248232D01*
X329603Y248293D01*
X329618Y248309D01*
X329649Y248324D01*
X329711Y248355D01*
X329787Y248386D01*
X329987Y248462D01*
X330110Y248478D01*
X330218Y248493D01*
X330279D01*
X330341Y248478D01*
D02*
G37*
G36*
X332385Y239471D02*
X332570D01*
X332785Y239456D01*
X333046Y239425D01*
X333323Y239394D01*
X333630Y239333D01*
X333968Y239271D01*
X334306Y239194D01*
X334660Y239102D01*
X335013Y238994D01*
X335367Y238856D01*
X335705Y238702D01*
X336043Y238518D01*
X336366Y238318D01*
X336381Y238303D01*
X336443Y238272D01*
X336520Y238211D01*
X336627Y238118D01*
X336766Y238011D01*
X336904Y237888D01*
X337057Y237719D01*
X337211Y237534D01*
X337380Y237319D01*
X337534Y237088D01*
X337672Y236827D01*
X337811Y236535D01*
X337918Y236212D01*
X337995Y235874D01*
X338057Y235505D01*
X338072Y235106D01*
Y235075D01*
Y235014D01*
X338057Y234891D01*
X338041Y234752D01*
X338026Y234568D01*
X337980Y234353D01*
X337934Y234122D01*
X337857Y233876D01*
X337765Y233615D01*
X337657Y233354D01*
X337519Y233077D01*
X337350Y232816D01*
X337150Y232554D01*
X336935Y232293D01*
X336673Y232063D01*
X336366Y231847D01*
X336350Y231832D01*
X336289Y231801D01*
X336197Y231740D01*
X336058Y231663D01*
X335905Y231586D01*
X335705Y231479D01*
X335474Y231371D01*
X335213Y231263D01*
X334921Y231156D01*
X334598Y231064D01*
X334245Y230956D01*
X333876Y230879D01*
X333476Y230802D01*
X333046Y230741D01*
X332600Y230710D01*
X332139Y230695D01*
X331893D01*
X331709Y230710D01*
X331494Y230725D01*
X331232Y230756D01*
X330956Y230787D01*
X330633Y230833D01*
X330310Y230894D01*
X329972Y230971D01*
X329618Y231064D01*
X329250Y231186D01*
X328896Y231309D01*
X328542Y231463D01*
X328204Y231647D01*
X327882Y231847D01*
X327866Y231863D01*
X327805Y231893D01*
X327728Y231955D01*
X327605Y232047D01*
X327482Y232170D01*
X327344Y232308D01*
X327175Y232462D01*
X327021Y232662D01*
X326867Y232877D01*
X326698Y233108D01*
X326560Y233384D01*
X326421Y233676D01*
X326314Y233999D01*
X326237Y234337D01*
X326176Y234706D01*
X326160Y235106D01*
Y235137D01*
Y235198D01*
X326176Y235321D01*
X326191Y235459D01*
X326222Y235644D01*
X326252Y235859D01*
X326314Y236089D01*
X326391Y236351D01*
X326483Y236612D01*
X326606Y236889D01*
X326744Y237165D01*
X326913Y237442D01*
X327129Y237719D01*
X327359Y237980D01*
X327636Y238226D01*
X327958Y238456D01*
X327974Y238472D01*
X328035Y238503D01*
X328128Y238549D01*
X328251Y238610D01*
X328404Y238702D01*
X328589Y238779D01*
X328819Y238871D01*
X329081Y238964D01*
X329357Y239071D01*
X329680Y239163D01*
X330018Y239240D01*
X330387Y239317D01*
X330787Y239394D01*
X331217Y239440D01*
X331663Y239471D01*
X332139Y239486D01*
X332247D01*
X332385Y239471D01*
D02*
G37*
G36*
X334644Y229050D02*
X334675D01*
X334767Y229019D01*
X334906Y229004D01*
X335090Y228973D01*
X335290Y228942D01*
X335536Y228912D01*
X335782Y228881D01*
X336043Y228866D01*
X336489D01*
X336689Y228881D01*
X336889Y228896D01*
X337104Y228927D01*
X337288Y228973D01*
X337303D01*
X337334Y228989D01*
X337473D01*
X337565Y228973D01*
X337657Y228958D01*
X337749Y228912D01*
X337841Y228850D01*
X337857Y228835D01*
X337872Y228819D01*
X337903Y228773D01*
X337949Y228712D01*
X338041Y228543D01*
X338103Y228328D01*
Y228312D01*
Y228266D01*
X338118Y228205D01*
Y228128D01*
X338103Y227928D01*
X338087Y227820D01*
X338057Y227713D01*
Y227697D01*
X338041Y227667D01*
X338011Y227605D01*
X337964Y227544D01*
X337903Y227482D01*
X337826Y227421D01*
X337734Y227390D01*
X337626Y227359D01*
X337534D01*
Y227329D01*
X337549Y227298D01*
X337565Y227252D01*
X337596Y227175D01*
X337642Y227083D01*
X337703Y226960D01*
X337780Y226821D01*
Y226806D01*
X337795Y226760D01*
X337826Y226683D01*
X337857Y226591D01*
X337903Y226468D01*
X337934Y226314D01*
X337980Y226145D01*
X338011Y225961D01*
Y225945D01*
X338026Y225899D01*
X338041Y225822D01*
Y225730D01*
X338057Y225592D01*
X338072Y225438D01*
X338087Y225254D01*
Y225054D01*
Y225038D01*
Y224977D01*
Y224885D01*
X338072Y224746D01*
X338057Y224608D01*
X338041Y224424D01*
X338011Y224239D01*
X337980Y224024D01*
X337872Y223578D01*
X337718Y223132D01*
X337626Y222902D01*
X337503Y222702D01*
X337380Y222502D01*
X337227Y222318D01*
X337211Y222303D01*
X337180Y222272D01*
X337134Y222210D01*
X337057Y222133D01*
X336965Y222057D01*
X336858Y221964D01*
X336719Y221857D01*
X336581Y221749D01*
X336412Y221642D01*
X336227Y221534D01*
X336028Y221442D01*
X335813Y221365D01*
X335567Y221288D01*
X335321Y221227D01*
X335059Y221196D01*
X334783Y221181D01*
X334629D01*
X334460Y221196D01*
X334245Y221211D01*
X334014Y221257D01*
X333753Y221304D01*
X333492Y221380D01*
X333246Y221473D01*
X333215Y221488D01*
X333154Y221519D01*
X333046Y221580D01*
X332908Y221672D01*
X332754Y221795D01*
X332600Y221949D01*
X332431Y222133D01*
X332277Y222349D01*
X332262Y222364D01*
X332231Y222410D01*
X332185Y222472D01*
X332124Y222579D01*
X332047Y222718D01*
X331970Y222902D01*
X331878Y223117D01*
X331801Y223363D01*
Y223378D01*
X331786Y223409D01*
X331755Y223486D01*
X331739Y223594D01*
X331693Y223747D01*
X331647Y223932D01*
X331601Y224162D01*
X331540Y224439D01*
X331417Y224946D01*
Y224962D01*
X331401Y224992D01*
X331386Y225054D01*
X331371Y225131D01*
X331340Y225223D01*
X331325Y225315D01*
X331248Y225561D01*
X331171Y225807D01*
X331079Y226068D01*
X330986Y226283D01*
X330925Y226391D01*
X330879Y226468D01*
X330848Y226499D01*
X330787Y226575D01*
X330679Y226668D01*
X330525Y226791D01*
X330326Y226914D01*
X330080Y227006D01*
X329803Y227083D01*
X329480Y227113D01*
X329403D01*
X329342Y227098D01*
X329204Y227083D01*
X329019Y227052D01*
X328804Y226990D01*
X328573Y226898D01*
X328343Y226775D01*
X328112Y226606D01*
X328097Y226575D01*
X328066Y226514D01*
X328005Y226391D01*
X327943Y226207D01*
X327882Y225976D01*
X327820Y225684D01*
X327789Y225346D01*
X327774Y224946D01*
Y224931D01*
Y224900D01*
Y224854D01*
Y224793D01*
X327789Y224623D01*
X327820Y224424D01*
X327851Y224208D01*
X327912Y223978D01*
X327989Y223763D01*
X328097Y223578D01*
X328128Y223548D01*
X328204Y223486D01*
X328343Y223378D01*
X328527Y223271D01*
X328758Y223163D01*
X329034Y223086D01*
X329342Y223040D01*
X329511Y223025D01*
X329695Y223040D01*
X329834D01*
X329926Y223025D01*
X330033Y222994D01*
X330141Y222948D01*
X330249Y222871D01*
X330356Y222779D01*
Y222764D01*
X330387Y222733D01*
X330418Y222687D01*
X330448Y222610D01*
X330479Y222533D01*
X330510Y222426D01*
X330525Y222303D01*
X330541Y222164D01*
Y222149D01*
Y222103D01*
X330525Y222041D01*
X330510Y221949D01*
X330448Y221765D01*
X330402Y221657D01*
X330341Y221565D01*
X330326Y221549D01*
X330295Y221519D01*
X330233Y221488D01*
X330156Y221442D01*
X330064Y221396D01*
X329957Y221365D01*
X329818Y221350D01*
X329649D01*
X329588Y221365D01*
X329480D01*
X329326Y221380D01*
X329142Y221396D01*
X328681D01*
X328420Y221380D01*
X328389D01*
X328343Y221365D01*
X328281D01*
X328128Y221350D01*
X327943Y221319D01*
X327743Y221273D01*
X327543Y221227D01*
X327344Y221165D01*
X327190Y221104D01*
X327175D01*
X327113Y221073D01*
X327036Y221058D01*
X326944Y221042D01*
X326821D01*
X326713Y221058D01*
X326590Y221088D01*
X326483Y221165D01*
X326468D01*
X326452Y221196D01*
X326421Y221242D01*
X326375Y221288D01*
X326329Y221365D01*
X326283Y221457D01*
X326237Y221565D01*
X326206Y221688D01*
Y221703D01*
X326191Y221749D01*
Y221826D01*
Y221918D01*
Y222149D01*
X326237Y222395D01*
Y222410D01*
X326252Y222441D01*
X326283Y222502D01*
X326314Y222564D01*
X326437Y222687D01*
X326514Y222733D01*
X326606Y222748D01*
X326667Y222779D01*
X326683D01*
X326698Y222764D01*
X326713Y222733D01*
Y222748D01*
X326698Y222779D01*
X326683Y222810D01*
X326667Y222871D01*
X326621Y222933D01*
X326575Y223025D01*
X326560Y223040D01*
X326544Y223071D01*
X326514Y223132D01*
X326483Y223225D01*
X326437Y223348D01*
X326391Y223501D01*
X326345Y223686D01*
X326298Y223901D01*
Y223932D01*
X326283Y224009D01*
X326252Y224116D01*
X326237Y224270D01*
X326206Y224439D01*
X326191Y224639D01*
X326176Y225023D01*
Y225038D01*
Y225100D01*
Y225192D01*
X326191Y225330D01*
X326206Y225484D01*
X326222Y225653D01*
X326252Y225853D01*
X326298Y226068D01*
X326406Y226514D01*
X326483Y226760D01*
X326575Y226990D01*
X326683Y227221D01*
X326806Y227451D01*
X326944Y227667D01*
X327113Y227867D01*
X327129Y227882D01*
X327159Y227913D01*
X327205Y227959D01*
X327282Y228020D01*
X327374Y228097D01*
X327482Y228189D01*
X327605Y228266D01*
X327759Y228358D01*
X327928Y228466D01*
X328112Y228543D01*
X328312Y228635D01*
X328527Y228712D01*
X328758Y228773D01*
X329004Y228819D01*
X329280Y228850D01*
X329557Y228866D01*
X329634D01*
X329726Y228850D01*
X329834D01*
X329972Y228835D01*
X330141Y228804D01*
X330310Y228773D01*
X330510Y228727D01*
X330710Y228666D01*
X330909Y228589D01*
X331109Y228512D01*
X331325Y228404D01*
X331524Y228266D01*
X331709Y228128D01*
X331878Y227959D01*
X332031Y227759D01*
Y227744D01*
X332047Y227728D01*
X332078Y227682D01*
X332124Y227605D01*
X332170Y227528D01*
X332216Y227436D01*
X332277Y227313D01*
X332339Y227175D01*
X332400Y227006D01*
X332477Y226837D01*
X332554Y226637D01*
X332631Y226422D01*
X332708Y226176D01*
X332785Y225915D01*
X332846Y225638D01*
X332923Y225346D01*
X333000Y225008D01*
Y224992D01*
X333015Y224962D01*
X333031Y224900D01*
X333046Y224808D01*
X333077Y224716D01*
X333107Y224608D01*
X333184Y224347D01*
X333277Y224055D01*
X333384Y223747D01*
X333492Y223440D01*
X333615Y223179D01*
X333630Y223163D01*
X333676Y223148D01*
X333753Y223102D01*
X333845Y223056D01*
X333983Y223025D01*
X334153Y222979D01*
X334352Y222964D01*
X334583Y222948D01*
X334737D01*
X334906Y222979D01*
X335121Y223010D01*
X335351Y223071D01*
X335582Y223163D01*
X335813Y223302D01*
X336012Y223471D01*
X336028Y223501D01*
X336089Y223563D01*
X336166Y223701D01*
X336243Y223870D01*
X336335Y224085D01*
X336412Y224362D01*
X336473Y224670D01*
X336489Y225038D01*
Y225054D01*
Y225084D01*
Y225146D01*
Y225238D01*
X336473Y225330D01*
Y225453D01*
X336443Y225715D01*
X336381Y225991D01*
X336320Y226283D01*
X336212Y226560D01*
X336074Y226806D01*
X336058Y226837D01*
X335982Y226898D01*
X335874Y227006D01*
X335720Y227113D01*
X335505Y227221D01*
X335244Y227313D01*
X334936Y227359D01*
X334752Y227375D01*
X334568Y227359D01*
X334506D01*
X334429Y227375D01*
X334352Y227390D01*
X334245Y227421D01*
X334153Y227467D01*
X334045Y227544D01*
X333953Y227636D01*
X333937Y227651D01*
X333922Y227682D01*
X333891Y227744D01*
X333861Y227820D01*
X333830Y227913D01*
X333799Y228005D01*
X333768Y228128D01*
Y228251D01*
Y228266D01*
Y228312D01*
X333784Y228389D01*
X333799Y228481D01*
X333830Y228589D01*
X333861Y228696D01*
X333922Y228804D01*
X333999Y228896D01*
X334014Y228912D01*
X334045Y228927D01*
X334106Y228973D01*
X334183Y229004D01*
X334276Y229035D01*
X334383Y229065D01*
X334506D01*
X334644Y229050D01*
D02*
G37*
%LPC*%
G36*
X333461Y282937D02*
X333353D01*
X333261Y282922D01*
X333169D01*
X333046Y282907D01*
X332769Y282860D01*
X332462Y282799D01*
X332139Y282707D01*
X331801Y282568D01*
X331494Y282384D01*
X331478D01*
X331463Y282353D01*
X331371Y282276D01*
X331263Y282169D01*
X331125Y281984D01*
X330986Y281769D01*
X330863Y281508D01*
X330787Y281216D01*
X330771Y281047D01*
X330756Y280862D01*
Y280847D01*
Y280816D01*
Y280770D01*
X330771Y280693D01*
X330802Y280524D01*
X330848Y280309D01*
X330940Y280063D01*
X331079Y279802D01*
X331155Y279679D01*
X331263Y279556D01*
X331371Y279448D01*
X331509Y279341D01*
X331524D01*
X331540Y279310D01*
X331586Y279294D01*
X331647Y279248D01*
X331724Y279202D01*
X331816Y279156D01*
X332047Y279049D01*
X332324Y278956D01*
X332662Y278864D01*
X333046Y278803D01*
X333461Y278772D01*
X333569D01*
X333661Y278787D01*
X333768D01*
X333876Y278803D01*
X334168Y278849D01*
X334491Y278910D01*
X334860Y279018D01*
X335228Y279156D01*
X335597Y279341D01*
X335628Y279371D01*
X335690Y279433D01*
X335766Y279556D01*
X335874Y279725D01*
X335982Y279955D01*
X336058Y280201D01*
X336120Y280509D01*
X336151Y280862D01*
Y280878D01*
Y280908D01*
Y280955D01*
X336135Y281031D01*
X336120Y281200D01*
X336074Y281416D01*
X336012Y281662D01*
X335920Y281923D01*
X335782Y282169D01*
X335597Y282384D01*
X335582D01*
X335551Y282415D01*
X335505Y282430D01*
X335428Y282476D01*
X335336Y282507D01*
X335228Y282553D01*
X335105Y282614D01*
X334967Y282661D01*
X334660Y282768D01*
X334291Y282845D01*
X333891Y282907D01*
X333461Y282937D01*
D02*
G37*
G36*
X335152Y266061D02*
X335044D01*
X334936Y266030D01*
X334798Y266000D01*
X334644Y265953D01*
X334491Y265877D01*
X334337Y265769D01*
X334183Y265631D01*
X334153Y265600D01*
X334091Y265508D01*
X334014Y265369D01*
X333907Y265154D01*
X333814Y264878D01*
X333722Y264555D01*
X333692Y264370D01*
X333661Y264155D01*
X333645Y263940D01*
Y263709D01*
Y263694D01*
Y263663D01*
Y263617D01*
Y263540D01*
Y263448D01*
X333661Y263325D01*
Y263187D01*
X333676Y263018D01*
Y263002D01*
Y262926D01*
X333692Y262833D01*
X333707Y262726D01*
X333738Y262449D01*
X333753Y262311D01*
X333768Y262188D01*
X335259D01*
X335275Y262203D01*
X335336Y262249D01*
X335444Y262341D01*
X335551Y262464D01*
X335690Y262618D01*
X335843Y262803D01*
X336012Y263033D01*
X336166Y263294D01*
X336181Y263325D01*
X336212Y263417D01*
X336258Y263540D01*
X336320Y263725D01*
X336381Y263940D01*
X336427Y264201D01*
X336458Y264478D01*
X336473Y264770D01*
Y264801D01*
Y264862D01*
X336458Y264985D01*
X336427Y265108D01*
X336381Y265262D01*
X336320Y265431D01*
X336227Y265584D01*
X336105Y265723D01*
X336089Y265738D01*
X336043Y265769D01*
X335966Y265830D01*
X335859Y265892D01*
X335720Y265953D01*
X335551Y266015D01*
X335367Y266046D01*
X335152Y266061D01*
D02*
G37*
G36*
X332477Y237719D02*
X331939D01*
X331801Y237703D01*
X331632D01*
X331432Y237688D01*
X331217Y237673D01*
X330986Y237642D01*
X330494Y237565D01*
X329972Y237457D01*
X329465Y237304D01*
X329219Y237211D01*
X329004Y237104D01*
X328988Y237088D01*
X328942Y237073D01*
X328881Y237027D01*
X328804Y236981D01*
X328712Y236904D01*
X328604Y236812D01*
X328496Y236720D01*
X328374Y236597D01*
X328158Y236305D01*
X327958Y235966D01*
X327866Y235782D01*
X327805Y235567D01*
X327774Y235336D01*
X327759Y235106D01*
Y235090D01*
Y235044D01*
Y234983D01*
X327774Y234891D01*
X327789Y234783D01*
X327820Y234660D01*
X327897Y234368D01*
X327958Y234214D01*
X328035Y234045D01*
X328128Y233876D01*
X328251Y233722D01*
X328374Y233553D01*
X328527Y233400D01*
X328712Y233261D01*
X328911Y233123D01*
X328927Y233108D01*
X328973Y233092D01*
X329034Y233062D01*
X329127Y233015D01*
X329250Y232969D01*
X329403Y232908D01*
X329572Y232846D01*
X329772Y232785D01*
X329987Y232723D01*
X330233Y232677D01*
X330494Y232616D01*
X330787Y232570D01*
X331094Y232524D01*
X331417Y232493D01*
X331755Y232462D01*
X332308D01*
X332447Y232477D01*
X332616D01*
X332815Y232493D01*
X333031Y232524D01*
X333277Y232539D01*
X333784Y232616D01*
X334337Y232739D01*
X334875Y232908D01*
X335152Y233000D01*
X335398Y233123D01*
X335413D01*
X335444Y233154D01*
X335490Y233200D01*
X335567Y233246D01*
X335644Y233323D01*
X335736Y233400D01*
X335828Y233507D01*
X335935Y233630D01*
X336135Y233907D01*
X336304Y234245D01*
X336381Y234445D01*
X336427Y234645D01*
X336458Y234875D01*
X336473Y235106D01*
Y235121D01*
Y235167D01*
X336458Y235229D01*
Y235321D01*
X336427Y235429D01*
X336412Y235552D01*
X336320Y235843D01*
X336258Y235997D01*
X336166Y236166D01*
X336074Y236335D01*
X335951Y236504D01*
X335813Y236658D01*
X335644Y236812D01*
X335444Y236965D01*
X335228Y237104D01*
X335213D01*
X335182Y237135D01*
X335105Y237165D01*
X335013Y237196D01*
X334906Y237242D01*
X334767Y237304D01*
X334598Y237350D01*
X334414Y237411D01*
X334199Y237473D01*
X333968Y237519D01*
X333722Y237580D01*
X333446Y237627D01*
X333138Y237657D01*
X332815Y237688D01*
X332477Y237719D01*
D02*
G37*
%LPD*%
D13*
X325591Y253937D02*
G03*
X325591Y253937I-27559J0D01*
G01*
D15*
X362205Y208661D02*
Y299213D01*
X251969Y204724D02*
X358268D01*
X251969Y303150D02*
X358268D01*
X248031Y208661D02*
Y299213D01*
D16*
X342520Y259449D02*
X344882D01*
Y260630D01*
X344488Y261024D01*
X343701D01*
X343308Y260630D01*
Y259449D01*
X344882Y257482D02*
Y258269D01*
X344488Y258662D01*
X343701D01*
X343308Y258269D01*
Y257482D01*
X343701Y257088D01*
X344095D01*
Y258662D01*
X344882Y256301D02*
Y255120D01*
X344488Y254727D01*
X344095Y255120D01*
Y255907D01*
X343701Y256301D01*
X343308Y255907D01*
Y254727D01*
X344882Y253939D02*
Y253152D01*
Y253546D01*
X343308D01*
Y253939D01*
X345669Y251184D02*
Y250791D01*
X345275Y250397D01*
X343308D01*
Y251578D01*
X343701Y251972D01*
X344488D01*
X344882Y251578D01*
Y250397D01*
Y249610D02*
X343308D01*
Y248429D01*
X343701Y248036D01*
X344882D01*
Y246068D02*
Y246855D01*
X344488Y247249D01*
X343701D01*
X343308Y246855D01*
Y246068D01*
X343701Y245674D01*
X344095D01*
Y247249D01*
X342520Y243313D02*
X344882D01*
Y244494D01*
X344488Y244887D01*
X343701D01*
X343308Y244494D01*
Y243313D01*
X342520Y240164D02*
X344882D01*
Y238983D01*
X344488Y238590D01*
X344095D01*
X343701D01*
X343308Y238983D01*
Y240164D01*
Y237803D02*
X344488D01*
X344882Y237409D01*
Y236228D01*
X345275D01*
X345669Y236622D01*
Y237016D01*
X344882Y236228D02*
X343308D01*
D17*
X362205Y299213D02*
G03*
X358268Y303150I-3937J0D01*
G01*
X251969Y303150D02*
G03*
X248031Y299213I0J-3937D01*
G01*
X248031Y208661D02*
G03*
X251969Y204724I3937J0D01*
G01*
X358268D02*
G03*
X362205Y208661I0J3937D01*
G01*
D29*
X287795Y242520D02*
G03*
X287795Y242520I-4724J0D01*
G01*
X305118Y236968D02*
G03*
X305118Y236968I-4724J0D01*
G01*
X294488Y270079D02*
G03*
X294488Y270079I-4724J0D01*
G01*
X283071Y253937D02*
G03*
X283071Y253937I-4724J0D01*
G01*
D30*
X303937Y263779D02*
X312992Y254724D01*
X298031Y263779D02*
X303937D01*
X294094Y267717D02*
X298031Y263779D01*
X309842Y244094D02*
X318110Y252362D01*
X306299Y244094D02*
X309842D01*
X305118D02*
X306299D01*
X304724Y243701D02*
X305118Y244094D01*
X304724Y239370D02*
Y243701D01*
X287402Y245669D02*
X287795Y246063D01*
X297638D01*
X303937Y252362D01*
X283465Y255118D02*
X285039D01*
X283465Y252756D02*
X285039D01*
D31*
X285039Y253937D02*
X324410D01*
M02*
