G04 Layer_Color=8421504*
%FSLAX25Y25*%
%MOIN*%
G70*
G01*
G75*
%ADD10R,0.07874X0.02362*%
%ADD11R,0.10236X0.07874*%
%ADD12R,0.05512X0.00906*%
%ADD15C,0.01000*%
%ADD17C,0.00965*%
D10*
X316929Y226378D02*
D03*
Y234252D02*
D03*
Y238189D02*
D03*
Y242126D02*
D03*
Y246063D02*
D03*
Y250000D02*
D03*
Y230315D02*
D03*
Y261811D02*
D03*
Y281496D02*
D03*
Y277559D02*
D03*
Y273622D02*
D03*
Y269685D02*
D03*
Y265748D02*
D03*
Y257874D02*
D03*
Y253937D02*
D03*
D11*
X325591Y292520D02*
D03*
Y215354D02*
D03*
D12*
X278740Y253937D02*
D03*
Y252362D02*
D03*
Y255512D02*
D03*
Y257087D02*
D03*
Y250787D02*
D03*
Y242913D02*
D03*
Y244488D02*
D03*
Y246063D02*
D03*
Y247638D02*
D03*
Y249213D02*
D03*
Y241339D02*
D03*
Y239764D02*
D03*
Y266535D02*
D03*
Y261811D02*
D03*
Y260236D02*
D03*
Y268110D02*
D03*
Y258661D02*
D03*
Y264961D02*
D03*
Y263386D02*
D03*
D15*
X362205Y208661D02*
Y299213D01*
X251969Y204724D02*
X358268D01*
X251969Y303150D02*
X358268D01*
X248031Y208661D02*
Y299213D01*
D17*
X362205Y299213D02*
G03*
X358268Y303150I-3937J0D01*
G01*
X251969Y303150D02*
G03*
X248031Y299213I0J-3937D01*
G01*
X248031Y208661D02*
G03*
X251969Y204724I3937J0D01*
G01*
X358268D02*
G03*
X362205Y208661I0J3937D01*
G01*
M02*
