M48
;Layer_Color=9474304
;FILE_FORMAT=2:5
INCH,LZ
;TYPE=PLATED
T1F00S00C0.01185
T2F00S00C0.03543
T3F00S00C0.03937
T4F00S00C0.07913
T5F00S00C0.10827
%
T01
X0377953Y0137402
X0405512Y0154724
X0477559Y0155905
X0551181
X0572047Y0177165
X0587008Y0215551
X053937Y0216535
X0544882Y0231496
X0523228Y0222047
X0479921Y022441
X0485039Y027874
X0494095Y0309449
X0524055Y0311988
X0523228Y029685
X0530315Y0283071
X0507874Y0259842
X0462598Y027126
X0437402Y0268898
X0445236Y0260197
X0445256Y0283465
Y0302362
X0435827Y0304724
X0427165Y0296063
Y0287008
X0417717Y027874
X0401181Y0278346
X0391732Y0306693
X039685Y0312205
X041811Y0312205
X0449213Y0312402
X0456299
X037441Y0296457
X0365256Y0246063
X0385138
X0385138Y0230709
X0406693Y0226378
X0366142Y0221654
X0355906Y0156299
X0364016Y0312992
X0470472Y0312795
X0494095Y0314567
X0515354Y0322047
T02
X0599606Y0166142
Y0176142
Y0186142
Y0196142
Y021063
Y022063
Y023063
Y024063
Y0255512
Y0265512
Y0275512
Y0285512
Y0301181
Y0311181
X0572913Y0309055
X0562913
X0552913
X0542913
Y029685
X0552913
X0562913
X0572913
Y0284646
X0562913
X0552913
X0542913
Y0272441
X0552913
X0562913
X0572913
X036063Y0200787
Y0190787
Y0180787
X0382953Y0333189
X0392953
X0402953
X0412953
X0422953
X0432953
X0442953
X0452953
X0462953
Y0343189
X0452953
X0442953
X0432953
X0422953
X0412953
X0402953
X0392953
X0382953
X0472953
X0482953
X0492953
X0502953
X0512953
X0522953
X0532953
X0542953
X0552953
X0562953
X0572953
Y0333189
X0562953
X0552953
X0542953
X0532953
X0522953
X0512953
X0502953
X0492953
X0482953
X0472953
X0542913Y032126
X0552913
X0562913
X0572913
X0599606Y0321181
T03
X0477953Y0175512
X0487953
Y0190197
X0477953
X0540394
X0550394
X0560394
Y0175512
X0550394
Y0260197
X0540394
X0560394
X0487953
X0477953
X0478701Y0286457
Y0296457
Y0306457
X0467953Y0260197
X0415118
X0405118
X0395118
X0394016Y0286457
Y0296457
X0408701
Y0286457
Y0306457
X0405118Y0190197
X0415118
Y0175512
X0405118
X0395118Y0190197
X0467953
T04
X0385118Y0155512
X0425118
X0457953
X0497953
X0530394
X0570394
X0374016Y0276457
Y0316457
T05
X0363779Y0145276
X0592126
X0363779Y0338189
X0592126
M30
