G04 Layer_Color=16711935*
%FSLAX25Y25*%
%MOIN*%
G70*
G01*
G75*
%ADD24C,0.00965*%
%ADD52C,0.00394*%
D24*
X594095Y130512D02*
G03*
X606890Y143307I0J12795D01*
G01*
X349016D02*
G03*
X361811Y130512I12795J0D01*
G01*
Y352953D02*
G03*
X349016Y340158I0J-12795D01*
G01*
X606890Y340158D02*
G03*
X594095Y352953I-12795J0D01*
G01*
X349016Y143307D02*
Y340158D01*
X361811Y352953D02*
X594095D01*
X606890Y143307D02*
Y340158D01*
X361811Y130512D02*
X594095D01*
D52*
X461024Y297244D02*
G03*
X461024Y297244I-1969J0D01*
G01*
X585138Y209252D02*
X588878D01*
X585138Y215945D02*
X588878D01*
X585138Y209252D02*
Y215945D01*
X588878Y209252D02*
Y215945D01*
X585138Y164764D02*
X588878D01*
X585138Y171457D02*
X588878D01*
X585138Y164764D02*
Y171457D01*
X588878Y164764D02*
Y171457D01*
X442913Y285039D02*
Y300787D01*
X462598Y285039D02*
Y300787D01*
X442913Y285039D02*
X462598D01*
X442913Y300787D02*
X462598D01*
X467618Y311417D02*
Y320079D01*
X473327Y311417D02*
Y320079D01*
X467618Y311417D02*
X473327D01*
X467618Y320079D02*
X473327D01*
X454429Y318701D02*
X458169D01*
X454429Y312008D02*
X458169D01*
Y318701D01*
X454429Y312008D02*
Y318701D01*
X447342D02*
X451083D01*
X447342Y312008D02*
X451083D01*
Y318701D01*
X447342Y312008D02*
Y318701D01*
X416240Y306004D02*
X419980D01*
X416240Y312894D02*
X419980D01*
X416240Y306004D02*
Y312894D01*
X419980Y306004D02*
Y312894D01*
X558760Y238386D02*
X562500D01*
X558760Y245079D02*
X562500D01*
X558760Y238386D02*
Y245079D01*
X562500Y238386D02*
Y245079D01*
X548917Y238386D02*
X552658D01*
X548917Y245079D02*
X552658D01*
X548917Y238386D02*
Y245079D01*
X552658Y238386D02*
Y245079D01*
M02*
