G04 Layer_Color=8388736*
%FSLAX25Y25*%
%MOIN*%
G70*
G01*
G75*
%ADD24C,0.00965*%
%ADD37R,0.10839X0.10643*%
%ADD38R,0.04343X0.03556*%
%ADD39R,0.04737X0.09855*%
%ADD40O,0.03162X0.09461*%
%ADD41R,0.06312X0.05131*%
%ADD42R,0.04343X0.03950*%
%ADD43C,0.06706*%
%ADD44R,0.06706X0.06706*%
%ADD45R,0.06706X0.06706*%
%ADD46C,0.12217*%
%ADD47C,0.09501*%
%ADD48C,0.03162*%
G36*
X444781Y251956D02*
X444917Y251932D01*
X445040Y251895D01*
X445150Y251858D01*
X445236Y251821D01*
X445310Y251784D01*
X445359Y251759D01*
X445372Y251747D01*
X445458Y251673D01*
X445519Y251575D01*
X445556Y251477D01*
X445581Y251378D01*
X445593Y251292D01*
Y251218D01*
Y251169D01*
Y251157D01*
X445569Y250800D01*
X445556Y250628D01*
Y250468D01*
X445544Y250333D01*
Y250234D01*
Y250160D01*
Y250136D01*
Y249914D01*
X445556Y249668D01*
X445569Y249410D01*
X445581Y249176D01*
Y248967D01*
X445593Y248881D01*
Y248795D01*
X445605Y248734D01*
Y248684D01*
Y248660D01*
Y248647D01*
X445507Y248660D01*
X445445Y248672D01*
X445396Y248684D01*
X445359Y248697D01*
X445335Y248709D01*
X445329D01*
X445335Y248697D01*
X445347Y248647D01*
X445396Y248537D01*
X445421Y248475D01*
X445433Y248426D01*
X445458Y248389D01*
Y248377D01*
X445532Y248192D01*
X445593Y248045D01*
X445642Y247909D01*
X445679Y247799D01*
X445704Y247713D01*
X445728Y247651D01*
X445741Y247614D01*
Y247602D01*
X445802Y247356D01*
X445851Y247122D01*
X445876Y246913D01*
X445901Y246716D01*
X445913Y246556D01*
X445925Y246433D01*
Y246384D01*
Y246347D01*
Y246335D01*
Y246323D01*
X445913Y245954D01*
X445851Y245597D01*
X445778Y245265D01*
X445679Y244957D01*
X445556Y244675D01*
X445421Y244404D01*
X445286Y244158D01*
X445138Y243949D01*
X444990Y243752D01*
X444843Y243580D01*
X444707Y243432D01*
X444585Y243309D01*
X444486Y243211D01*
X444412Y243149D01*
X444351Y243100D01*
X444339Y243088D01*
X444105Y242903D01*
X443847Y242743D01*
X443576Y242608D01*
X443305Y242485D01*
X443035Y242387D01*
X442764Y242301D01*
X442506Y242227D01*
X442247Y242178D01*
X442014Y242128D01*
X441792Y242092D01*
X441583Y242079D01*
X441411Y242055D01*
X441276D01*
X441165Y242042D01*
X441079D01*
X440710Y242055D01*
X440366Y242092D01*
X440033Y242141D01*
X439726Y242202D01*
X439443Y242288D01*
X439173Y242374D01*
X438927Y242473D01*
X438705Y242559D01*
X438508Y242657D01*
X438336Y242756D01*
X438176Y242842D01*
X438053Y242928D01*
X437955Y242989D01*
X437893Y243039D01*
X437844Y243076D01*
X437832Y243088D01*
X437561Y243322D01*
X437315Y243568D01*
X437106Y243838D01*
X436934Y244096D01*
X436774Y244367D01*
X436651Y244638D01*
X436553Y244908D01*
X436467Y245154D01*
X436405Y245400D01*
X436356Y245622D01*
X436319Y245818D01*
X436294Y245991D01*
X436282Y246126D01*
X436270Y246237D01*
Y246298D01*
Y246323D01*
X436282Y246606D01*
X436307Y246864D01*
X436356Y247122D01*
X436405Y247344D01*
X436442Y247528D01*
X436467Y247602D01*
X436491Y247676D01*
X436503Y247725D01*
X436516Y247762D01*
X436528Y247786D01*
Y247799D01*
X436577Y247922D01*
X436626Y248045D01*
X436725Y248242D01*
X436835Y248389D01*
X436934Y248500D01*
X437032Y248586D01*
X437106Y248635D01*
X437155Y248660D01*
X437168Y248672D01*
X435716D01*
X435679Y248647D01*
X435642Y248598D01*
X435618Y248524D01*
X435593Y248438D01*
X435581Y248352D01*
Y248278D01*
X435569Y248229D01*
Y248205D01*
X435556Y248032D01*
Y247836D01*
X435569Y247639D01*
X435581Y247442D01*
X435593Y247258D01*
X435605Y247122D01*
Y247061D01*
X435618Y247024D01*
Y246999D01*
Y246987D01*
X435630Y246852D01*
X435618Y246729D01*
X435593Y246618D01*
X435544Y246532D01*
X435507Y246458D01*
X435458Y246409D01*
X435433Y246372D01*
X435421Y246360D01*
X435310Y246274D01*
X435200Y246212D01*
X435089Y246163D01*
X434991Y246126D01*
X434892Y246101D01*
X434818Y246089D01*
X434621D01*
X434486Y246101D01*
X434375Y246138D01*
X434277Y246163D01*
X434203Y246200D01*
X434142Y246224D01*
X434105Y246249D01*
X434093Y246261D01*
X433994Y246360D01*
X433920Y246483D01*
X433871Y246593D01*
X433847Y246716D01*
X433822Y246827D01*
Y246913D01*
Y246962D01*
Y246987D01*
X433834Y247110D01*
Y247233D01*
X433847Y247528D01*
X433859Y247836D01*
X433871Y248143D01*
Y248291D01*
Y248426D01*
Y248537D01*
Y248647D01*
Y248734D01*
Y248795D01*
Y248844D01*
Y248857D01*
Y249324D01*
X433859Y249767D01*
Y249964D01*
Y250148D01*
X433847Y250333D01*
Y250493D01*
Y250640D01*
X433834Y250763D01*
Y250874D01*
Y250972D01*
X433822Y251046D01*
Y251095D01*
Y251132D01*
Y251144D01*
X433810Y251292D01*
X433822Y251415D01*
X433859Y251513D01*
X433896Y251600D01*
X433933Y251661D01*
X433970Y251698D01*
X433994Y251723D01*
X434007Y251735D01*
X434129Y251809D01*
X434253Y251870D01*
X434375Y251907D01*
X434486Y251944D01*
X434585Y251956D01*
X434658Y251969D01*
X434720D01*
X434855Y251956D01*
X434978Y251944D01*
X435077Y251919D01*
X435163Y251882D01*
X435237Y251858D01*
X435286Y251833D01*
X435310Y251821D01*
X435323Y251809D01*
X435433Y251710D01*
X435507Y251600D01*
X435556Y251489D01*
X435581Y251390D01*
X435593Y251292D01*
Y251218D01*
X435581Y251169D01*
Y251157D01*
X435569Y251046D01*
Y250948D01*
Y250874D01*
Y250812D01*
X435581Y250775D01*
Y250739D01*
X435593Y250714D01*
X435618Y250677D01*
X435642Y250640D01*
X435716Y250603D01*
X435778Y250591D01*
X443601D01*
X443674Y250603D01*
X443723Y250628D01*
X443748Y250652D01*
Y250665D01*
X443760Y250726D01*
X443773Y250800D01*
X443785Y250960D01*
Y251034D01*
Y251095D01*
Y251144D01*
Y251157D01*
X443773Y251292D01*
X443797Y251427D01*
X443834Y251538D01*
X443896Y251624D01*
X443945Y251710D01*
X443994Y251759D01*
X444031Y251796D01*
X444043Y251809D01*
X444129Y251858D01*
X444228Y251895D01*
X444425Y251944D01*
X444511Y251956D01*
X444585Y251969D01*
X444646D01*
X444781Y251956D01*
D02*
G37*
G36*
X437266Y240566D02*
X437389Y240554D01*
X437487Y240529D01*
X437586Y240493D01*
X437647Y240468D01*
X437709Y240443D01*
X437733Y240431D01*
X437746Y240419D01*
X437844Y240320D01*
X437918Y240210D01*
X437955Y240099D01*
X437979Y239988D01*
X437992Y239902D01*
Y239816D01*
X437979Y239767D01*
Y239755D01*
X437943Y239496D01*
X437930Y239250D01*
X437906Y239029D01*
Y238832D01*
X437893Y238660D01*
Y238537D01*
Y238488D01*
Y238451D01*
Y238439D01*
Y238426D01*
X437906Y238291D01*
Y238180D01*
X437918Y238082D01*
X437930Y237996D01*
X437943Y237922D01*
X437955Y237873D01*
X437967Y237774D01*
X437992Y237725D01*
X438004Y237701D01*
X438016Y237688D01*
X447143D01*
X447180Y237713D01*
X447217Y237774D01*
X447241Y237848D01*
X447266Y237947D01*
X447278Y238045D01*
X447291Y238119D01*
Y238180D01*
Y238205D01*
X447303Y238389D01*
X447291Y238574D01*
X447278Y238771D01*
X447266Y238955D01*
X447254Y239127D01*
X447229Y239250D01*
Y239300D01*
X447217Y239336D01*
Y239361D01*
Y239373D01*
X447204Y239521D01*
X447229Y239644D01*
X447266Y239767D01*
X447315Y239853D01*
X447364Y239939D01*
X447413Y239988D01*
X447450Y240025D01*
X447463Y240037D01*
X447573Y240099D01*
X447684Y240148D01*
X447795Y240185D01*
X447893Y240210D01*
X447992Y240222D01*
X448065Y240234D01*
X448127D01*
X448262Y240222D01*
X448385Y240197D01*
X448496Y240173D01*
X448594Y240136D01*
X448668Y240099D01*
X448730Y240062D01*
X448767Y240050D01*
X448779Y240037D01*
X448877Y239939D01*
X448951Y239828D01*
X448988Y239718D01*
X449013Y239607D01*
X449025Y239521D01*
Y239435D01*
Y239386D01*
Y239373D01*
X448988Y239152D01*
X448963Y238906D01*
X448951Y238672D01*
X448939Y238451D01*
X448926Y238254D01*
Y238168D01*
Y238094D01*
Y238033D01*
Y237983D01*
Y237959D01*
Y237947D01*
Y237602D01*
X448939Y237233D01*
X448963Y236876D01*
X448988Y236532D01*
Y236372D01*
X449000Y236225D01*
X449013Y236102D01*
X449025Y235991D01*
Y235892D01*
X449037Y235831D01*
Y235782D01*
Y235769D01*
X438016D01*
X437979Y235745D01*
X437955Y235696D01*
X437930Y235622D01*
X437918Y235523D01*
X437906Y235437D01*
X437893Y235364D01*
Y235314D01*
Y235290D01*
Y235216D01*
Y235130D01*
X437906Y234921D01*
X437918Y234712D01*
X437930Y234503D01*
X437955Y234306D01*
Y234220D01*
X437967Y234146D01*
Y234084D01*
X437979Y234035D01*
Y234011D01*
Y233998D01*
X437992Y233838D01*
X437967Y233703D01*
X437930Y233580D01*
X437881Y233469D01*
X437832Y233383D01*
X437783Y233322D01*
X437746Y233285D01*
X437733Y233273D01*
X437635Y233211D01*
X437537Y233162D01*
X437438Y233125D01*
X437340Y233100D01*
X437254Y233088D01*
X437180Y233076D01*
X437118D01*
X436971Y233088D01*
X436848Y233100D01*
X436737Y233137D01*
X436651Y233174D01*
X436577Y233211D01*
X436528Y233236D01*
X436491Y233260D01*
X436479Y233273D01*
X436380Y233383D01*
X436294Y233506D01*
X436245Y233629D01*
X436221Y233752D01*
X436196Y233851D01*
Y233937D01*
Y233986D01*
Y234011D01*
X436208Y234232D01*
X436221Y234478D01*
X436245Y234982D01*
X436257Y235499D01*
X436270Y235757D01*
Y235991D01*
Y236225D01*
X436282Y236434D01*
Y236618D01*
Y236778D01*
Y236913D01*
Y237012D01*
Y237073D01*
Y237098D01*
Y237442D01*
Y237762D01*
X436270Y238057D01*
Y238328D01*
X436257Y238562D01*
Y238783D01*
X436245Y238980D01*
Y239140D01*
X436233Y239300D01*
X436221Y239422D01*
Y239521D01*
X436208Y239607D01*
Y239668D01*
X436196Y239718D01*
Y239742D01*
Y239755D01*
Y239902D01*
X436233Y240037D01*
X436282Y240148D01*
X436331Y240247D01*
X436393Y240333D01*
X436454Y240382D01*
X436491Y240419D01*
X436503Y240431D01*
X436602Y240480D01*
X436700Y240517D01*
X436909Y240554D01*
X436995Y240566D01*
X437069Y240579D01*
X437131D01*
X437266Y240566D01*
D02*
G37*
G36*
X439505Y231698D02*
X439787Y231661D01*
X440046Y231600D01*
X440292Y231538D01*
X440513Y231452D01*
X440722Y231354D01*
X440895Y231255D01*
X441054Y231145D01*
X441202Y231034D01*
X441325Y230936D01*
X441423Y230837D01*
X441509Y230751D01*
X441571Y230677D01*
X441620Y230628D01*
X441645Y230591D01*
X441657Y230579D01*
X441842Y230345D01*
X442001Y230099D01*
X442137Y229853D01*
X442260Y229583D01*
X442358Y229324D01*
X442444Y229066D01*
X442506Y228808D01*
X442567Y228574D01*
X442604Y228340D01*
X442641Y228131D01*
X442653Y227934D01*
X442678Y227774D01*
Y227639D01*
X442690Y227541D01*
Y227479D01*
Y227455D01*
Y227307D01*
X442678Y227122D01*
Y226950D01*
X442666Y226766D01*
X442653Y226606D01*
Y226483D01*
X442641Y226434D01*
Y226397D01*
Y226372D01*
Y226360D01*
X442629Y226102D01*
X442617Y225892D01*
X442592Y225733D01*
X442580Y225597D01*
X442555Y225499D01*
X442543Y225437D01*
X442530Y225400D01*
Y225388D01*
X442715Y225400D01*
X442899Y225437D01*
X443059Y225499D01*
X443195Y225560D01*
X443318Y225622D01*
X443416Y225683D01*
X443465Y225720D01*
X443490Y225733D01*
X443601Y225856D01*
X443699Y225979D01*
X443785Y226102D01*
X443859Y226225D01*
X443969Y226471D01*
X444043Y226692D01*
X444080Y226889D01*
X444093Y226963D01*
X444105Y227036D01*
X444117Y227098D01*
Y227135D01*
Y227159D01*
Y227172D01*
X444105Y227467D01*
X444093Y227737D01*
X444056Y227971D01*
X444031Y228180D01*
X443994Y228352D01*
X443957Y228475D01*
X443945Y228525D01*
Y228562D01*
X443933Y228574D01*
Y228586D01*
X443834Y228881D01*
X443736Y229152D01*
X443637Y229386D01*
X443539Y229570D01*
X443465Y229730D01*
X443404Y229841D01*
X443355Y229915D01*
X443342Y229939D01*
X443219Y230099D01*
X443133Y230259D01*
X443072Y230394D01*
X443047Y230530D01*
X443035Y230628D01*
Y230714D01*
Y230763D01*
Y230788D01*
X443072Y230886D01*
X443121Y230985D01*
X443170Y231059D01*
X443231Y231120D01*
X443281Y231169D01*
X443330Y231206D01*
X443355Y231218D01*
X443367Y231231D01*
X443514Y231305D01*
X443637Y231354D01*
X443773Y231391D01*
X443883Y231415D01*
X443969Y231428D01*
X444105D01*
X444252Y231403D01*
X444388Y231354D01*
X444498Y231280D01*
X444597Y231206D01*
X444671Y231145D01*
X444732Y231083D01*
X444769Y231034D01*
X444781Y231022D01*
X444990Y230726D01*
X445163Y230431D01*
X445310Y230124D01*
X445433Y229853D01*
X445482Y229718D01*
X445532Y229607D01*
X445569Y229496D01*
X445605Y229410D01*
X445630Y229337D01*
X445642Y229287D01*
X445655Y229250D01*
Y229238D01*
X445741Y228881D01*
X445815Y228512D01*
X445864Y228168D01*
X445888Y227848D01*
X445901Y227701D01*
X445913Y227578D01*
Y227455D01*
X445925Y227356D01*
Y227282D01*
Y227221D01*
Y227184D01*
Y227172D01*
X445913Y226926D01*
X445901Y226680D01*
X445864Y226446D01*
X445827Y226225D01*
X445778Y226028D01*
X445728Y225831D01*
X445667Y225659D01*
X445618Y225487D01*
X445556Y225339D01*
X445495Y225216D01*
X445445Y225105D01*
X445396Y225007D01*
X445359Y224933D01*
X445323Y224884D01*
X445310Y224847D01*
X445298Y224835D01*
X445126Y224589D01*
X444929Y224380D01*
X444732Y224207D01*
X444523Y224047D01*
X444314Y223912D01*
X444093Y223801D01*
X443883Y223715D01*
X443687Y223642D01*
X443490Y223580D01*
X443305Y223543D01*
X443145Y223506D01*
X443010Y223494D01*
X442887Y223482D01*
X442801Y223469D01*
X438176D01*
X438102Y223457D01*
X438041Y223445D01*
X437992Y223420D01*
X437967Y223383D01*
X437930Y223322D01*
X437918Y223309D01*
Y223297D01*
Y223236D01*
Y223150D01*
X437930Y223051D01*
X437943Y222940D01*
X437967Y222842D01*
X437979Y222756D01*
X437992Y222707D01*
Y222682D01*
Y222559D01*
X437955Y222448D01*
X437906Y222350D01*
X437856Y222264D01*
X437795Y222190D01*
X437733Y222141D01*
X437697Y222116D01*
X437684Y222104D01*
X437586Y222055D01*
X437487Y222030D01*
X437291Y221981D01*
X437205D01*
X437143Y221969D01*
X436946D01*
X436823Y221993D01*
X436725Y222018D01*
X436626Y222043D01*
X436553Y222067D01*
X436503Y222092D01*
X436467Y222104D01*
X436454Y222116D01*
X436356Y222202D01*
X436282Y222301D01*
X436245Y222399D01*
X436208Y222485D01*
X436196Y222571D01*
X436184Y222633D01*
Y222682D01*
Y222694D01*
X436196Y222830D01*
X436208Y222965D01*
X436221Y223113D01*
X436233Y223260D01*
Y223396D01*
Y223494D01*
Y223568D01*
Y223580D01*
Y223592D01*
Y223752D01*
X436221Y223924D01*
X436208Y224109D01*
Y224281D01*
X436196Y224441D01*
Y224564D01*
X436184Y224613D01*
Y224638D01*
Y224662D01*
Y224675D01*
X436196Y224785D01*
X436208Y224896D01*
X436245Y224982D01*
X436282Y225056D01*
X436307Y225105D01*
X436343Y225142D01*
X436356Y225167D01*
X436368Y225179D01*
X436405Y225216D01*
X436467Y225241D01*
X436577Y225302D01*
X436639Y225314D01*
X436676Y225339D01*
X436713Y225351D01*
X436725D01*
X436835Y225339D01*
X436614Y225659D01*
X436639D01*
X436577Y225683D01*
X436528Y225720D01*
X436430Y225806D01*
X436356Y225929D01*
X436282Y226065D01*
X436233Y226200D01*
X436196Y226298D01*
X436171Y226384D01*
X436159Y226397D01*
Y226409D01*
X436073Y226729D01*
X436011Y227061D01*
X435975Y227381D01*
X435950Y227664D01*
X435938Y227799D01*
X435925Y227922D01*
Y228020D01*
X435913Y228119D01*
Y228193D01*
Y228242D01*
Y228279D01*
Y228291D01*
X435925Y228598D01*
X435950Y228881D01*
X435999Y229140D01*
X436048Y229386D01*
X436122Y229619D01*
X436196Y229829D01*
X436270Y230025D01*
X436356Y230198D01*
X436442Y230345D01*
X436516Y230480D01*
X436589Y230591D01*
X436663Y230677D01*
X436713Y230751D01*
X436762Y230813D01*
X436786Y230837D01*
X436799Y230849D01*
X436971Y230997D01*
X437155Y231132D01*
X437340Y231243D01*
X437537Y231341D01*
X437746Y231428D01*
X437943Y231501D01*
X438139Y231563D01*
X438324Y231600D01*
X438508Y231637D01*
X438668Y231661D01*
X438816Y231686D01*
X438951Y231698D01*
X439049Y231710D01*
X439197D01*
X439505Y231698D01*
D02*
G37*
G36*
X444953Y221268D02*
X445052Y221243D01*
X445150Y221218D01*
X445212Y221206D01*
X445273Y221182D01*
X445298Y221169D01*
X445310D01*
X445409Y221083D01*
X445482Y220985D01*
X445532Y220899D01*
X445556Y220813D01*
X445569Y220726D01*
Y220665D01*
X445556Y220628D01*
Y220616D01*
X445532Y220234D01*
X445519Y220050D01*
Y219878D01*
X445507Y219742D01*
Y219619D01*
Y219546D01*
Y219533D01*
Y219521D01*
Y219263D01*
X445519Y219005D01*
X445532Y218759D01*
X445544Y218537D01*
Y218340D01*
X445556Y218254D01*
Y218180D01*
X445569Y218119D01*
Y218082D01*
Y218057D01*
Y218045D01*
X445409Y218057D01*
X445286Y218070D01*
X445089D01*
X445077Y218082D01*
Y218070D01*
X445089D01*
X445126Y218057D01*
X445163Y218021D01*
X445175Y218008D01*
X445187Y217959D01*
X445298Y217787D01*
X445396Y217627D01*
X445470Y217455D01*
X445544Y217307D01*
X445593Y217172D01*
X445630Y217073D01*
X445655Y217000D01*
X445667Y216975D01*
X445753Y216741D01*
X445815Y216483D01*
X445864Y216237D01*
X445888Y215991D01*
X445913Y215782D01*
Y215696D01*
X445925Y215610D01*
Y215548D01*
Y215499D01*
Y215474D01*
Y215462D01*
X445913Y215228D01*
X445901Y215007D01*
X445864Y214786D01*
X445815Y214589D01*
X445765Y214404D01*
X445716Y214232D01*
X445655Y214060D01*
X445593Y213912D01*
X445519Y213789D01*
X445458Y213666D01*
X445409Y213568D01*
X445359Y213482D01*
X445310Y213420D01*
X445273Y213371D01*
X445261Y213347D01*
X445249Y213334D01*
X445126Y213187D01*
X444990Y213064D01*
X444843Y212953D01*
X444683Y212855D01*
X444523Y212781D01*
X444363Y212707D01*
X444056Y212609D01*
X443908Y212584D01*
X443773Y212559D01*
X443650Y212535D01*
X443539Y212522D01*
X443453Y212510D01*
X438053D01*
X438004Y212498D01*
X437967Y212486D01*
X437955Y212473D01*
X437943Y212412D01*
Y212326D01*
X437967Y212129D01*
X437979Y212043D01*
X437992Y211969D01*
X438004Y211920D01*
Y211907D01*
X438016Y211760D01*
X438004Y211637D01*
X437979Y211526D01*
X437930Y211440D01*
X437881Y211366D01*
X437844Y211317D01*
X437807Y211292D01*
X437795Y211280D01*
X437684Y211219D01*
X437573Y211169D01*
X437463Y211133D01*
X437352Y211108D01*
X437254Y211096D01*
X437180Y211083D01*
X437118D01*
X436983Y211096D01*
X436860Y211108D01*
X436737Y211145D01*
X436639Y211182D01*
X436565Y211219D01*
X436503Y211243D01*
X436467Y211268D01*
X436454Y211280D01*
X436356Y211366D01*
X436294Y211465D01*
X436245Y211563D01*
X436233Y211649D01*
X436221Y211735D01*
Y211809D01*
Y211858D01*
Y211871D01*
X436233Y212141D01*
X436245Y212399D01*
Y212609D01*
X436257Y212805D01*
Y212953D01*
Y213064D01*
Y213137D01*
Y213150D01*
Y213162D01*
Y213260D01*
Y213383D01*
Y213629D01*
X436245Y213912D01*
Y214171D01*
X436233Y214417D01*
Y214527D01*
Y214613D01*
X436221Y214687D01*
Y214749D01*
Y214786D01*
Y214798D01*
X436208Y214933D01*
X436233Y215056D01*
X436270Y215167D01*
X436319Y215253D01*
X436368Y215327D01*
X436417Y215376D01*
X436454Y215413D01*
X436467Y215425D01*
X436565Y215487D01*
X436663Y215536D01*
X436774Y215573D01*
X436872Y215597D01*
X436971Y215610D01*
X437045Y215622D01*
X437106D01*
X437254Y215610D01*
X437389Y215597D01*
X437500Y215561D01*
X437598Y215524D01*
X437672Y215499D01*
X437721Y215462D01*
X437758Y215450D01*
X437770Y215438D01*
X437869Y215339D01*
X437943Y215241D01*
X437979Y215130D01*
X438004Y215032D01*
X438016Y214933D01*
Y214859D01*
X438004Y214810D01*
Y214798D01*
X437992Y214712D01*
X437979Y214638D01*
Y214589D01*
Y214540D01*
Y214490D01*
Y214478D01*
X437992Y214454D01*
X438016Y214429D01*
X442924D01*
X443158Y214441D01*
X443355Y214478D01*
X443514Y214527D01*
X443637Y214589D01*
X443736Y214650D01*
X443810Y214700D01*
X443847Y214736D01*
X443859Y214749D01*
X443945Y214872D01*
X444006Y215019D01*
X444056Y215192D01*
X444080Y215339D01*
X444105Y215487D01*
X444117Y215610D01*
Y215659D01*
Y215696D01*
Y215708D01*
Y215720D01*
X444105Y216016D01*
X444068Y216286D01*
X444019Y216545D01*
X443969Y216766D01*
X443908Y216950D01*
X443883Y217037D01*
X443859Y217098D01*
X443834Y217147D01*
X443822Y217184D01*
X443810Y217209D01*
Y217221D01*
X443711Y217393D01*
X443613Y217553D01*
X443502Y217688D01*
X443391Y217811D01*
X443293Y217910D01*
X443219Y217996D01*
X443170Y218045D01*
X443145Y218057D01*
X438053D01*
X438004Y218045D01*
X437967Y218008D01*
X437943Y217971D01*
Y217959D01*
Y217910D01*
Y217848D01*
X437967Y217738D01*
X437979Y217676D01*
X437992Y217627D01*
X438004Y217602D01*
Y217590D01*
X438016Y217455D01*
X438004Y217344D01*
X437967Y217233D01*
X437918Y217160D01*
X437869Y217098D01*
X437819Y217049D01*
X437783Y217024D01*
X437770Y217012D01*
X437672Y216950D01*
X437561Y216914D01*
X437352Y216864D01*
X437254Y216852D01*
X437180Y216840D01*
X437118D01*
X436983Y216852D01*
X436860Y216864D01*
X436749Y216889D01*
X436651Y216926D01*
X436577Y216963D01*
X436528Y216987D01*
X436491Y217000D01*
X436479Y217012D01*
X436380Y217086D01*
X436307Y217172D01*
X436257Y217270D01*
X436233Y217356D01*
X436221Y217442D01*
Y217504D01*
Y217553D01*
Y217565D01*
X436233Y217824D01*
X436245Y218082D01*
Y218316D01*
X436257Y218525D01*
Y218697D01*
Y218832D01*
Y218882D01*
Y218918D01*
Y218943D01*
Y218955D01*
Y219226D01*
Y219509D01*
X436245Y219779D01*
Y220038D01*
X436233Y220271D01*
Y220370D01*
Y220456D01*
X436221Y220517D01*
Y220567D01*
Y220603D01*
Y220616D01*
Y220739D01*
X436257Y220849D01*
X436294Y220948D01*
X436356Y221022D01*
X436417Y221083D01*
X436467Y221132D01*
X436503Y221157D01*
X436516Y221169D01*
X436614Y221206D01*
X436713Y221231D01*
X436922Y221268D01*
X437008D01*
X437081Y221280D01*
X437278D01*
X437389Y221268D01*
X437487Y221243D01*
X437573Y221218D01*
X437647Y221206D01*
X437697Y221182D01*
X437721Y221169D01*
X437733D01*
X437844Y221083D01*
X437918Y220997D01*
X437967Y220899D01*
X438004Y220813D01*
Y220739D01*
X438016Y220677D01*
X438004Y220628D01*
Y220616D01*
X437992Y220493D01*
X437979Y220394D01*
Y220296D01*
Y220222D01*
Y220173D01*
Y220136D01*
Y220111D01*
Y220099D01*
X437992Y220025D01*
X438016Y219988D01*
X438041Y219976D01*
X443490D01*
X443564Y219988D01*
X443613Y220001D01*
X443662Y220025D01*
X443711Y220062D01*
X443723Y220075D01*
X443748Y220161D01*
X443760Y220259D01*
X443773Y220431D01*
Y220505D01*
Y220567D01*
X443760Y220603D01*
Y220616D01*
X443773Y220739D01*
X443797Y220849D01*
X443847Y220948D01*
X443908Y221022D01*
X443969Y221083D01*
X444031Y221132D01*
X444068Y221157D01*
X444080Y221169D01*
X444277Y221231D01*
X444486Y221268D01*
X444560D01*
X444634Y221280D01*
X444831D01*
X444953Y221268D01*
D02*
G37*
G36*
X444867Y209964D02*
X444978Y209952D01*
X445077Y209927D01*
X445163Y209903D01*
X445236Y209878D01*
X445286Y209853D01*
X445310Y209829D01*
X445323D01*
X445433Y209730D01*
X445519Y209620D01*
X445569Y209509D01*
X445605Y209398D01*
X445630Y209312D01*
Y209226D01*
Y209177D01*
Y209165D01*
X445642Y208980D01*
X445679Y208832D01*
X445741Y208722D01*
X445802Y208623D01*
X445876Y208562D01*
X445937Y208525D01*
X445987Y208500D01*
X445999Y208488D01*
X446085Y208463D01*
X446196Y208439D01*
X446319Y208426D01*
X446454Y208414D01*
X446774Y208402D01*
X447106Y208390D01*
X447266Y208402D01*
X447770D01*
X447856Y208414D01*
X447918D01*
X448065Y208426D01*
X448188Y208414D01*
X448287Y208390D01*
X448373Y208353D01*
X448434Y208303D01*
X448484Y208267D01*
X448508Y208242D01*
X448521Y208230D01*
X448594Y208094D01*
X448656Y207959D01*
X448693Y207824D01*
X448730Y207713D01*
X448742Y207602D01*
X448754Y207529D01*
Y207467D01*
Y207455D01*
X448742Y207307D01*
X448730Y207172D01*
X448705Y207073D01*
X448680Y206975D01*
X448643Y206901D01*
X448619Y206852D01*
X448607Y206827D01*
X448594Y206815D01*
X448496Y206680D01*
X448385Y206581D01*
X448262Y206520D01*
X448164Y206483D01*
X448065Y206458D01*
X447918D01*
X446872Y206508D01*
X446565D01*
X446429Y206520D01*
X446122D01*
X446036Y206508D01*
X445876D01*
X445815Y206495D01*
X445765D01*
X445716Y206471D01*
X445679Y206446D01*
X445642Y206372D01*
X445630Y206299D01*
Y206286D01*
Y206274D01*
X445618Y205979D01*
X445605Y205708D01*
Y205462D01*
X445593Y205241D01*
Y205069D01*
Y204995D01*
Y204933D01*
Y204872D01*
Y204835D01*
Y204823D01*
Y204810D01*
Y204527D01*
X445605Y204257D01*
Y204011D01*
X445618Y203802D01*
Y203617D01*
Y203543D01*
X445630Y203482D01*
Y203433D01*
Y203396D01*
Y203383D01*
Y203371D01*
Y203224D01*
X445605Y203088D01*
X445581Y202978D01*
X445532Y202891D01*
X445495Y202818D01*
X445445Y202768D01*
X445421Y202744D01*
X445409Y202732D01*
X445298Y202658D01*
X445187Y202596D01*
X445089Y202559D01*
X444978Y202522D01*
X444892Y202510D01*
X444818Y202498D01*
X444757D01*
X444634Y202510D01*
X444511Y202522D01*
X444412Y202559D01*
X444326Y202584D01*
X444252Y202621D01*
X444203Y202658D01*
X444166Y202670D01*
X444154Y202682D01*
X444043Y202781D01*
X443969Y202891D01*
X443908Y203002D01*
X443871Y203113D01*
X443847Y203211D01*
X443834Y203285D01*
Y203334D01*
Y203359D01*
X443859Y203642D01*
X443871Y203925D01*
X443883Y204195D01*
Y204429D01*
X443896Y204638D01*
Y204724D01*
Y204798D01*
Y204859D01*
Y204909D01*
Y204933D01*
Y204946D01*
Y205241D01*
X443883Y205499D01*
X443871Y205720D01*
Y205917D01*
X443859Y206065D01*
X443847Y206176D01*
X443834Y206237D01*
Y206262D01*
Y206323D01*
Y206372D01*
X443822Y206434D01*
X443810Y206458D01*
X443797Y206471D01*
X443760Y206483D01*
X443637D01*
X443564Y206495D01*
X439099D01*
X438840Y206483D01*
X438631Y206446D01*
X438447Y206409D01*
X438299Y206348D01*
X438189Y206299D01*
X438115Y206262D01*
X438065Y206225D01*
X438053Y206212D01*
X437943Y206077D01*
X437856Y205917D01*
X437807Y205745D01*
X437758Y205573D01*
X437733Y205413D01*
X437721Y205278D01*
Y205228D01*
Y205192D01*
Y205167D01*
Y205155D01*
X437733Y204896D01*
X437758Y204675D01*
X437807Y204490D01*
X437856Y204331D01*
X437893Y204208D01*
X437943Y204121D01*
X437967Y204060D01*
X437979Y204048D01*
X438152Y203863D01*
X438336Y203716D01*
X438533Y203580D01*
X438705Y203470D01*
X438865Y203371D01*
X439000Y203310D01*
X439049Y203285D01*
X439086Y203273D01*
X439099Y203260D01*
X439111D01*
X439234Y203199D01*
X439320Y203125D01*
X439394Y203051D01*
X439443Y202965D01*
X439480Y202879D01*
X439492Y202818D01*
X439505Y202768D01*
Y202756D01*
X439517Y202621D01*
Y202486D01*
X439505Y202363D01*
X439480Y202252D01*
X439455Y202153D01*
X439431Y202080D01*
X439419Y202030D01*
X439406Y202018D01*
X439345Y201883D01*
X439259Y201772D01*
X439173Y201674D01*
X439099Y201588D01*
X439025Y201526D01*
X438963Y201489D01*
X438914Y201465D01*
X438902Y201452D01*
X438779Y201403D01*
X438656Y201391D01*
X438545D01*
X438435Y201403D01*
X438336Y201415D01*
X438262Y201440D01*
X438201Y201452D01*
X438189Y201465D01*
X437930Y201600D01*
X437684Y201748D01*
X437475Y201907D01*
X437266Y202055D01*
X437094Y202203D01*
X436934Y202363D01*
X436786Y202510D01*
X436663Y202645D01*
X436565Y202781D01*
X436467Y202904D01*
X436393Y203014D01*
X436331Y203101D01*
X436294Y203174D01*
X436257Y203236D01*
X436245Y203273D01*
X436233Y203285D01*
X436171Y203420D01*
X436122Y203580D01*
X436048Y203900D01*
X435987Y204232D01*
X435950Y204552D01*
X435938Y204700D01*
X435925Y204835D01*
Y204958D01*
X435913Y205069D01*
Y205155D01*
Y205216D01*
Y205265D01*
Y205278D01*
X435925Y205548D01*
X435950Y205807D01*
X435987Y206053D01*
X436036Y206274D01*
X436097Y206483D01*
X436159Y206668D01*
X436233Y206852D01*
X436307Y207000D01*
X436380Y207147D01*
X436454Y207258D01*
X436516Y207369D01*
X436577Y207455D01*
X436626Y207516D01*
X436663Y207565D01*
X436688Y207590D01*
X436700Y207602D01*
X436848Y207750D01*
X437020Y207873D01*
X437180Y207984D01*
X437364Y208070D01*
X437537Y208156D01*
X437709Y208217D01*
X438053Y208316D01*
X438213Y208340D01*
X438361Y208365D01*
X438496Y208390D01*
X438607Y208402D01*
X438693Y208414D01*
X443490D01*
X443576Y208439D01*
X443637Y208463D01*
X443699Y208488D01*
X443736Y208513D01*
X443760Y208537D01*
X443785Y208549D01*
Y208562D01*
X443822Y208636D01*
X443847Y208734D01*
X443859Y208931D01*
Y209017D01*
Y209091D01*
X443847Y209140D01*
Y209152D01*
Y209300D01*
X443871Y209435D01*
X443920Y209546D01*
X443969Y209644D01*
X444031Y209718D01*
X444080Y209767D01*
X444117Y209804D01*
X444129Y209816D01*
X444215Y209866D01*
X444314Y209903D01*
X444511Y209952D01*
X444597Y209964D01*
X444671Y209976D01*
X444732D01*
X444867Y209964D01*
D02*
G37*
G36*
X443121Y199841D02*
X443637Y199804D01*
X444105Y199743D01*
X444560Y199669D01*
X444978Y199583D01*
X445359Y199484D01*
X445716Y199386D01*
X446036Y199275D01*
X446331Y199165D01*
X446577Y199066D01*
X446799Y198968D01*
X446983Y198882D01*
X447118Y198808D01*
X447217Y198746D01*
X447278Y198709D01*
X447303Y198697D01*
X447659Y198439D01*
X447967Y198156D01*
X448238Y197861D01*
X448471Y197553D01*
X448668Y197246D01*
X448828Y196926D01*
X448963Y196618D01*
X449074Y196323D01*
X449148Y196040D01*
X449209Y195770D01*
X449259Y195536D01*
X449283Y195327D01*
X449308Y195155D01*
X449320Y195032D01*
Y194983D01*
Y194946D01*
Y194933D01*
Y194921D01*
X449295Y194478D01*
X449234Y194060D01*
X449135Y193667D01*
X449013Y193310D01*
X448865Y192978D01*
X448705Y192683D01*
X448533Y192412D01*
X448348Y192166D01*
X448164Y191957D01*
X447992Y191772D01*
X447832Y191612D01*
X447684Y191477D01*
X447561Y191379D01*
X447463Y191317D01*
X447401Y191268D01*
X447377Y191256D01*
X447020Y191022D01*
X446639Y190825D01*
X446245Y190653D01*
X445839Y190505D01*
X445433Y190382D01*
X445040Y190284D01*
X444658Y190198D01*
X444289Y190124D01*
X443933Y190075D01*
X443613Y190038D01*
X443330Y190001D01*
X443072Y189989D01*
X442973Y189977D01*
X442875D01*
X442789Y189964D01*
X442592D01*
X442063Y189977D01*
X441559Y190013D01*
X441091Y190087D01*
X440636Y190161D01*
X440218Y190259D01*
X439824Y190370D01*
X439468Y190493D01*
X439136Y190604D01*
X438840Y190727D01*
X438582Y190850D01*
X438361Y190961D01*
X438176Y191059D01*
X438041Y191133D01*
X437930Y191194D01*
X437869Y191243D01*
X437844Y191256D01*
X437500Y191489D01*
X437205Y191760D01*
X436946Y192043D01*
X436725Y192338D01*
X436540Y192646D01*
X436380Y192941D01*
X436257Y193248D01*
X436159Y193544D01*
X436073Y193814D01*
X436011Y194085D01*
X435975Y194318D01*
X435938Y194515D01*
X435925Y194687D01*
X435913Y194810D01*
Y194860D01*
Y194896D01*
Y194909D01*
Y194921D01*
X435938Y195364D01*
X435999Y195782D01*
X436097Y196176D01*
X436221Y196532D01*
X436356Y196852D01*
X436528Y197160D01*
X436700Y197418D01*
X436885Y197664D01*
X437057Y197873D01*
X437229Y198058D01*
X437401Y198205D01*
X437549Y198328D01*
X437672Y198427D01*
X437758Y198500D01*
X437819Y198537D01*
X437844Y198550D01*
X438201Y198783D01*
X438582Y198980D01*
X438963Y199152D01*
X439369Y199300D01*
X439763Y199435D01*
X440157Y199534D01*
X440538Y199620D01*
X440907Y199694D01*
X441251Y199743D01*
X441571Y199780D01*
X441866Y199817D01*
X442112Y199829D01*
X442223Y199841D01*
X442309D01*
X442395Y199853D01*
X442592D01*
X443121Y199841D01*
D02*
G37*
G36*
X440169Y188107D02*
X440292Y188070D01*
X440378Y188033D01*
X440452Y187984D01*
X440489Y187959D01*
X440501Y187947D01*
X440587Y187836D01*
X440649Y187726D01*
X440698Y187603D01*
X440722Y187480D01*
X440747Y187369D01*
X440759Y187283D01*
Y187234D01*
Y187209D01*
Y187074D01*
X440735Y186951D01*
X440698Y186828D01*
X440661Y186729D01*
X440624Y186643D01*
X440599Y186582D01*
X440575Y186545D01*
X440562Y186532D01*
X440464Y186422D01*
X440341Y186336D01*
X440230Y186274D01*
X440120Y186237D01*
X440021Y186225D01*
X439935Y186213D01*
X439861D01*
X439652Y186225D01*
X439455Y186213D01*
X439271Y186200D01*
X439099Y186163D01*
X438951Y186114D01*
X438803Y186065D01*
X438681Y186004D01*
X438582Y185942D01*
X438484Y185881D01*
X438398Y185819D01*
X438324Y185758D01*
X438275Y185708D01*
X438225Y185659D01*
X438201Y185622D01*
X438189Y185610D01*
X438176Y185598D01*
X438090Y185462D01*
X438016Y185327D01*
X437906Y185007D01*
X437819Y184675D01*
X437770Y184355D01*
X437746Y184195D01*
X437733Y184060D01*
X437721Y183925D01*
Y183814D01*
X437709Y183716D01*
Y183654D01*
Y183605D01*
Y183593D01*
Y183384D01*
X437733Y183187D01*
X437746Y183002D01*
X437783Y182843D01*
X437807Y182695D01*
X437844Y182547D01*
X437893Y182424D01*
X437930Y182314D01*
X437967Y182215D01*
X438016Y182141D01*
X438053Y182068D01*
X438078Y182006D01*
X438115Y181969D01*
X438127Y181932D01*
X438152Y181908D01*
X438275Y181797D01*
X438410Y181686D01*
X438545Y181600D01*
X438681Y181526D01*
X438963Y181416D01*
X439234Y181342D01*
X439480Y181293D01*
X439578Y181280D01*
X439677Y181268D01*
X439751Y181256D01*
X439849D01*
X440107Y181268D01*
X440329Y181293D01*
X440513Y181342D01*
X440673Y181379D01*
X440784Y181428D01*
X440870Y181477D01*
X440919Y181502D01*
X440931Y181514D01*
X440993Y181662D01*
X441067Y181809D01*
X441190Y182141D01*
X441300Y182486D01*
X441399Y182818D01*
X441448Y182966D01*
X441485Y183113D01*
X441522Y183236D01*
X441559Y183347D01*
X441571Y183445D01*
X441596Y183507D01*
X441608Y183556D01*
Y183568D01*
X441694Y183937D01*
X441768Y184269D01*
X441854Y184589D01*
X441928Y184872D01*
X442014Y185143D01*
X442088Y185376D01*
X442174Y185598D01*
X442247Y185794D01*
X442309Y185954D01*
X442383Y186114D01*
X442444Y186237D01*
X442493Y186348D01*
X442543Y186434D01*
X442580Y186496D01*
X442604Y186545D01*
X442629Y186569D01*
Y186582D01*
X442813Y186815D01*
X443022Y187012D01*
X443244Y187197D01*
X443477Y187344D01*
X443711Y187467D01*
X443945Y187578D01*
X444179Y187664D01*
X444412Y187738D01*
X444634Y187787D01*
X444831Y187824D01*
X445015Y187861D01*
X445175Y187873D01*
X445310Y187885D01*
X445409Y187898D01*
X445495D01*
X445815Y187885D01*
X446110Y187849D01*
X446393Y187799D01*
X446663Y187726D01*
X446897Y187639D01*
X447131Y187541D01*
X447340Y187443D01*
X447524Y187332D01*
X447684Y187234D01*
X447832Y187135D01*
X447955Y187037D01*
X448065Y186951D01*
X448139Y186877D01*
X448201Y186828D01*
X448238Y186791D01*
X448250Y186778D01*
X448434Y186557D01*
X448594Y186311D01*
X448742Y186053D01*
X448865Y185794D01*
X448963Y185524D01*
X449049Y185266D01*
X449123Y185007D01*
X449172Y184749D01*
X449222Y184515D01*
X449246Y184294D01*
X449271Y184097D01*
X449295Y183925D01*
Y183777D01*
X449308Y183667D01*
Y183605D01*
Y183581D01*
Y183359D01*
X449283Y183138D01*
X449259Y182904D01*
X449234Y182695D01*
X449209Y182510D01*
X449197Y182437D01*
X449185Y182375D01*
X449172Y182314D01*
Y182277D01*
X449160Y182252D01*
Y182240D01*
X449123Y182043D01*
X449074Y181883D01*
X449025Y181760D01*
X448988Y181674D01*
X448951Y181625D01*
X448914Y181588D01*
X448902Y181563D01*
X448889D01*
X448828Y181391D01*
X448779Y181256D01*
X448742Y181157D01*
X448717Y181096D01*
X448705Y181047D01*
Y181010D01*
Y180998D01*
X448717Y181034D01*
X448730Y181047D01*
X448754D01*
X448828Y181022D01*
X448939Y180998D01*
X449025Y180936D01*
X449099Y180862D01*
X449160Y180776D01*
X449209Y180690D01*
X449234Y180629D01*
X449259Y180579D01*
Y180555D01*
X449283Y180432D01*
X449295Y180309D01*
X449308Y180186D01*
X449295Y180063D01*
X449283Y179964D01*
X449271Y179878D01*
X449259Y179829D01*
Y179804D01*
X449222Y179681D01*
X449172Y179571D01*
X449123Y179472D01*
X449074Y179386D01*
X449025Y179325D01*
X448988Y179276D01*
X448963Y179251D01*
X448951Y179239D01*
X448828Y179165D01*
X448693Y179128D01*
X448570Y179116D01*
X448447D01*
X448336Y179128D01*
X448250Y179153D01*
X448188Y179165D01*
X448164Y179177D01*
X447979Y179251D01*
X447770Y179312D01*
X447537Y179374D01*
X447315Y179411D01*
X447106Y179448D01*
X447020Y179460D01*
X446946Y179472D01*
X446872D01*
X446823Y179485D01*
X446786D01*
X446491Y179497D01*
X446208Y179509D01*
X445974Y179497D01*
X445765Y179485D01*
X445593Y179472D01*
X445470Y179460D01*
X445433D01*
X445396Y179448D01*
X445212D01*
X445052Y179460D01*
X444929Y179509D01*
X444818Y179546D01*
X444732Y179608D01*
X444671Y179645D01*
X444634Y179681D01*
X444621Y179694D01*
X444548Y179804D01*
X444486Y179915D01*
X444449Y180026D01*
X444412Y180137D01*
X444400Y180223D01*
X444388Y180296D01*
Y180358D01*
Y180370D01*
X444400Y180518D01*
X444425Y180665D01*
X444461Y180776D01*
X444498Y180887D01*
X444535Y180961D01*
X444572Y181022D01*
X444597Y181059D01*
X444609Y181071D01*
X444720Y181182D01*
X444843Y181256D01*
X444966Y181305D01*
X445089Y181342D01*
X445199Y181354D01*
X445286Y181367D01*
X445359D01*
X445556Y181354D01*
X445753D01*
X445925Y181379D01*
X446097Y181416D01*
X446405Y181502D01*
X446540Y181563D01*
X446651Y181625D01*
X446762Y181686D01*
X446860Y181736D01*
X446946Y181797D01*
X447008Y181846D01*
X447057Y181895D01*
X447094Y181932D01*
X447118Y181945D01*
X447131Y181957D01*
X447192Y182055D01*
X447254Y182166D01*
X447340Y182412D01*
X447413Y182670D01*
X447450Y182916D01*
X447475Y183138D01*
X447487Y183236D01*
X447500Y183322D01*
Y183396D01*
Y183445D01*
Y183482D01*
Y183494D01*
Y183728D01*
X447487Y183949D01*
X447463Y184146D01*
X447450Y184331D01*
X447413Y184503D01*
X447389Y184663D01*
X447352Y184798D01*
X447327Y184921D01*
X447291Y185020D01*
X447254Y185118D01*
X447229Y185192D01*
X447204Y185253D01*
X447180Y185302D01*
X447155Y185339D01*
X447143Y185352D01*
Y185364D01*
X447008Y185462D01*
X446872Y185548D01*
X446614Y185696D01*
X446343Y185794D01*
X446110Y185856D01*
X445888Y185905D01*
X445802Y185917D01*
X445728D01*
X445667Y185930D01*
X445581D01*
X445396Y185917D01*
X445224Y185893D01*
X445052Y185856D01*
X444904Y185819D01*
X444634Y185696D01*
X444412Y185561D01*
X444240Y185425D01*
X444166Y185364D01*
X444105Y185302D01*
X444068Y185266D01*
X444031Y185229D01*
X444019Y185204D01*
X444006Y185192D01*
X443945Y185093D01*
X443896Y184995D01*
X443834Y184872D01*
X443785Y184737D01*
X443674Y184454D01*
X443588Y184171D01*
X443502Y183913D01*
X443477Y183802D01*
X443441Y183691D01*
X443428Y183617D01*
X443404Y183544D01*
X443391Y183507D01*
Y183494D01*
X443268Y182916D01*
X443231Y182756D01*
X443207Y182609D01*
X443170Y182474D01*
X443145Y182351D01*
X443096Y182141D01*
X443047Y181982D01*
X443022Y181859D01*
X442998Y181772D01*
X442973Y181723D01*
Y181711D01*
X442875Y181440D01*
X442789Y181207D01*
X442690Y181010D01*
X442617Y180850D01*
X442543Y180739D01*
X442481Y180653D01*
X442444Y180604D01*
X442432Y180592D01*
X442260Y180346D01*
X442088Y180149D01*
X441915Y179977D01*
X441755Y179854D01*
X441620Y179755D01*
X441509Y179681D01*
X441436Y179645D01*
X441423Y179632D01*
X441411D01*
X441116Y179509D01*
X440808Y179423D01*
X440513Y179362D01*
X440230Y179325D01*
X440095Y179300D01*
X439984Y179288D01*
X439874D01*
X439787Y179276D01*
X439615D01*
X439308Y179288D01*
X439013Y179325D01*
X438730Y179399D01*
X438471Y179472D01*
X438225Y179571D01*
X437992Y179681D01*
X437795Y179792D01*
X437598Y179915D01*
X437438Y180038D01*
X437291Y180149D01*
X437168Y180260D01*
X437057Y180358D01*
X436983Y180432D01*
X436922Y180493D01*
X436885Y180542D01*
X436872Y180555D01*
X436700Y180752D01*
X436553Y180973D01*
X436417Y181207D01*
X436307Y181453D01*
X436221Y181711D01*
X436134Y181969D01*
X436073Y182215D01*
X436024Y182461D01*
X435987Y182695D01*
X435950Y182916D01*
X435925Y183113D01*
X435913Y183285D01*
Y183421D01*
X435901Y183531D01*
Y183593D01*
Y183617D01*
Y183851D01*
X435913Y184060D01*
X435925Y184232D01*
X435950Y184380D01*
X435962Y184503D01*
X435975Y184577D01*
X435987Y184638D01*
Y184651D01*
X436024Y184860D01*
X436073Y185044D01*
X436122Y185216D01*
X436159Y185352D01*
X436196Y185462D01*
X436233Y185548D01*
X436245Y185598D01*
X436257Y185610D01*
X436343Y185770D01*
X436405Y185893D01*
X436454Y186004D01*
X436491Y186077D01*
X436503Y186139D01*
X436516Y186176D01*
X436528Y186188D01*
Y186200D01*
X436479D01*
X436442Y186213D01*
X436417D01*
X436294Y186250D01*
X436196Y186299D01*
X436110Y186360D01*
X436036Y186434D01*
X435987Y186508D01*
X435950Y186557D01*
X435938Y186606D01*
X435925Y186619D01*
X435888Y186729D01*
X435864Y186852D01*
X435851Y186963D01*
Y187061D01*
X435864Y187160D01*
Y187234D01*
X435876Y187283D01*
Y187295D01*
X435913Y187418D01*
X435950Y187541D01*
X435999Y187639D01*
X436048Y187713D01*
X436097Y187787D01*
X436134Y187836D01*
X436159Y187861D01*
X436171Y187873D01*
X436282Y187947D01*
X436380Y187996D01*
X436491Y188021D01*
X436589Y188033D01*
X436676Y188021D01*
X436737D01*
X436786Y188008D01*
X436799D01*
X437020Y187959D01*
X437241Y187935D01*
X437475Y187910D01*
X437709Y187898D01*
X438201D01*
X438496Y187922D01*
X438767Y187947D01*
X439025Y187984D01*
X439246Y188021D01*
X439431Y188058D01*
X439517Y188070D01*
X439578Y188095D01*
X439628Y188107D01*
X439665D01*
X439689Y188119D01*
X439701D01*
X439874Y188144D01*
X440033D01*
X440169Y188107D01*
D02*
G37*
%LPC*%
G36*
X441202Y248721D02*
X441079D01*
X440845Y248709D01*
X440612Y248697D01*
X440403Y248672D01*
X440193Y248635D01*
X440009Y248586D01*
X439837Y248537D01*
X439677Y248488D01*
X439529Y248426D01*
X439406Y248377D01*
X439295Y248328D01*
X439197Y248278D01*
X439111Y248229D01*
X439049Y248192D01*
X439000Y248168D01*
X438976Y248143D01*
X438963D01*
X438803Y248020D01*
X438668Y247885D01*
X438557Y247737D01*
X438447Y247590D01*
X438361Y247442D01*
X438299Y247294D01*
X438238Y247147D01*
X438189Y247012D01*
X438127Y246766D01*
X438102Y246655D01*
X438090Y246556D01*
Y246483D01*
X438078Y246421D01*
Y246384D01*
Y246372D01*
X438090Y246175D01*
X438115Y245978D01*
X438164Y245794D01*
X438213Y245634D01*
X438287Y245474D01*
X438361Y245326D01*
X438435Y245203D01*
X438521Y245080D01*
X438607Y244982D01*
X438681Y244884D01*
X438754Y244810D01*
X438828Y244736D01*
X438877Y244687D01*
X438927Y244650D01*
X438951Y244638D01*
X438963Y244625D01*
X439123Y244515D01*
X439295Y244429D01*
X439468Y244342D01*
X439640Y244281D01*
X439997Y244170D01*
X440329Y244096D01*
X440489Y244072D01*
X440624Y244060D01*
X440759Y244035D01*
X440870D01*
X440956Y244023D01*
X441079D01*
X441325Y244035D01*
X441559Y244047D01*
X441989Y244121D01*
X442198Y244170D01*
X442383Y244219D01*
X442555Y244281D01*
X442715Y244342D01*
X442863Y244404D01*
X442985Y244465D01*
X443096Y244515D01*
X443195Y244564D01*
X443268Y244601D01*
X443318Y244638D01*
X443355Y244650D01*
X443367Y244662D01*
X443502Y244785D01*
X443613Y244908D01*
X443711Y245044D01*
X443797Y245179D01*
X443871Y245326D01*
X443933Y245462D01*
X444019Y245745D01*
X444080Y245991D01*
X444093Y246101D01*
X444105Y246187D01*
X444117Y246261D01*
Y246323D01*
Y246360D01*
Y246372D01*
X444105Y246581D01*
X444080Y246766D01*
X444043Y246950D01*
X444006Y247110D01*
X443945Y247270D01*
X443883Y247405D01*
X443822Y247540D01*
X443748Y247651D01*
X443674Y247750D01*
X443613Y247848D01*
X443551Y247922D01*
X443490Y247983D01*
X443453Y248032D01*
X443416Y248069D01*
X443391Y248082D01*
X443379Y248094D01*
X443195Y248205D01*
X442998Y248303D01*
X442801Y248389D01*
X442604Y248451D01*
X442223Y248574D01*
X441866Y248647D01*
X441694Y248672D01*
X441546Y248684D01*
X441411Y248697D01*
X441300Y248709D01*
X441202Y248721D01*
D02*
G37*
G36*
X439259Y229742D02*
X439197D01*
X438963Y229730D01*
X438754Y229681D01*
X438570Y229619D01*
X438422Y229546D01*
X438299Y229484D01*
X438213Y229423D01*
X438164Y229373D01*
X438139Y229361D01*
X438004Y229201D01*
X437893Y229017D01*
X437819Y228844D01*
X437770Y228672D01*
X437746Y228525D01*
X437733Y228402D01*
X437721Y228352D01*
Y228316D01*
Y228303D01*
Y228291D01*
X437746Y227947D01*
X437795Y227627D01*
X437856Y227332D01*
X437943Y227073D01*
X437979Y226963D01*
X438016Y226852D01*
X438053Y226766D01*
X438090Y226692D01*
X438115Y226630D01*
X438139Y226581D01*
X438152Y226557D01*
Y226544D01*
X438299Y226274D01*
X438459Y226052D01*
X438607Y225843D01*
X438754Y225683D01*
X438877Y225560D01*
X438988Y225462D01*
X439049Y225413D01*
X439074Y225388D01*
X440747D01*
X440771Y225536D01*
X440784Y225683D01*
X440796Y225843D01*
X440821Y225991D01*
X440833Y226126D01*
Y226225D01*
X440845Y226298D01*
Y226311D01*
Y226323D01*
X440858Y226507D01*
X440870Y226667D01*
Y226803D01*
X440882Y226913D01*
Y226999D01*
Y227049D01*
Y227086D01*
Y227098D01*
Y227356D01*
X440870Y227602D01*
X440845Y227824D01*
X440833Y228020D01*
X440808Y228217D01*
X440771Y228377D01*
X440747Y228525D01*
X440710Y228660D01*
X440673Y228783D01*
X440649Y228881D01*
X440624Y228967D01*
X440587Y229029D01*
X440575Y229090D01*
X440550Y229127D01*
X440538Y229140D01*
Y229152D01*
X440415Y229250D01*
X440292Y229349D01*
X440046Y229496D01*
X439824Y229595D01*
X439615Y229669D01*
X439443Y229706D01*
X439308Y229730D01*
X439259Y229742D01*
D02*
G37*
G36*
X442826Y197873D02*
X442617D01*
X442211Y197861D01*
X441829Y197848D01*
X441473Y197812D01*
X441128Y197762D01*
X440821Y197713D01*
X440525Y197652D01*
X440267Y197590D01*
X440033Y197516D01*
X439812Y197455D01*
X439628Y197393D01*
X439480Y197332D01*
X439345Y197283D01*
X439246Y197233D01*
X439173Y197197D01*
X439123Y197184D01*
X439111Y197172D01*
X438865Y197024D01*
X438656Y196852D01*
X438471Y196680D01*
X438311Y196495D01*
X438176Y196311D01*
X438065Y196126D01*
X437967Y195942D01*
X437893Y195757D01*
X437832Y195585D01*
X437795Y195438D01*
X437758Y195290D01*
X437746Y195167D01*
X437733Y195069D01*
X437721Y194983D01*
Y194933D01*
Y194921D01*
X437733Y194650D01*
X437770Y194404D01*
X437832Y194171D01*
X437906Y193949D01*
X438004Y193753D01*
X438102Y193568D01*
X438201Y193396D01*
X438324Y193248D01*
X438435Y193113D01*
X438533Y193002D01*
X438644Y192904D01*
X438730Y192830D01*
X438803Y192756D01*
X438865Y192719D01*
X438902Y192695D01*
X438914Y192683D01*
X439197Y192547D01*
X439505Y192437D01*
X439812Y192338D01*
X440120Y192252D01*
X440427Y192178D01*
X440735Y192129D01*
X441042Y192080D01*
X441325Y192031D01*
X441596Y192006D01*
X441842Y191981D01*
X442063Y191969D01*
X442247Y191957D01*
X442407Y191945D01*
X442617D01*
X443022Y191957D01*
X443404Y191981D01*
X443773Y192018D01*
X444117Y192055D01*
X444437Y192117D01*
X444732Y192178D01*
X445003Y192240D01*
X445249Y192314D01*
X445470Y192387D01*
X445667Y192449D01*
X445827Y192510D01*
X445974Y192572D01*
X446073Y192609D01*
X446159Y192646D01*
X446208Y192670D01*
X446220Y192683D01*
X446454Y192830D01*
X446651Y193002D01*
X446823Y193175D01*
X446971Y193359D01*
X447094Y193544D01*
X447192Y193728D01*
X447278Y193912D01*
X447352Y194085D01*
X447401Y194257D01*
X447438Y194417D01*
X447475Y194552D01*
X447487Y194675D01*
X447500Y194773D01*
X447512Y194860D01*
Y194909D01*
Y194921D01*
X447500Y195192D01*
X447450Y195450D01*
X447389Y195684D01*
X447291Y195905D01*
X447192Y196102D01*
X447069Y196286D01*
X446946Y196459D01*
X446823Y196606D01*
X446688Y196741D01*
X446565Y196852D01*
X446442Y196951D01*
X446343Y197024D01*
X446245Y197086D01*
X446183Y197135D01*
X446134Y197160D01*
X446122Y197172D01*
X445876Y197295D01*
X445605Y197406D01*
X445323Y197492D01*
X445040Y197578D01*
X444744Y197639D01*
X444449Y197701D01*
X444166Y197750D01*
X443896Y197787D01*
X443625Y197812D01*
X443391Y197836D01*
X443170Y197848D01*
X442985Y197861D01*
X442826Y197873D01*
D02*
G37*
%LPD*%
D24*
X594095Y130512D02*
G03*
X606890Y143307I0J12795D01*
G01*
X349016D02*
G03*
X361811Y130512I12795J0D01*
G01*
Y352953D02*
G03*
X349016Y340158I0J-12795D01*
G01*
X606890Y340158D02*
G03*
X594095Y352953I-12795J0D01*
G01*
X349016Y143307D02*
Y340158D01*
X361811Y352953D02*
X594095D01*
X606890Y143307D02*
Y340158D01*
X361811Y130512D02*
X594095D01*
D37*
X385138Y230709D02*
D03*
X365256D02*
D03*
X385138Y246063D02*
D03*
X365256D02*
D03*
D38*
X587008Y209646D02*
D03*
Y215551D02*
D03*
Y165157D02*
D03*
Y171063D02*
D03*
X456299Y318307D02*
D03*
Y312402D02*
D03*
X449213Y318307D02*
D03*
Y312402D02*
D03*
X560630Y238779D02*
D03*
Y244685D02*
D03*
X550787Y238779D02*
D03*
Y244685D02*
D03*
D39*
X514055Y311988D02*
D03*
X494055Y276988D02*
D03*
Y311988D02*
D03*
X524055Y276988D02*
D03*
Y311988D02*
D03*
D40*
X445256Y283465D02*
D03*
X450256D02*
D03*
X455256D02*
D03*
X460256D02*
D03*
X445256Y302362D02*
D03*
X450256D02*
D03*
X455256D02*
D03*
X460256D02*
D03*
D41*
X470472Y312795D02*
D03*
Y318701D02*
D03*
D42*
X418110Y306693D02*
D03*
Y312205D02*
D03*
D43*
X478701Y296457D02*
D03*
X408701D02*
D03*
X478701Y306457D02*
D03*
Y286457D02*
D03*
X408701D02*
D03*
Y306457D02*
D03*
X405118Y260197D02*
D03*
Y190197D02*
D03*
X395118Y260197D02*
D03*
X415118D02*
D03*
Y190197D02*
D03*
X395118D02*
D03*
X477953Y260197D02*
D03*
Y190197D02*
D03*
X467953Y260197D02*
D03*
X487953D02*
D03*
Y190197D02*
D03*
X467953D02*
D03*
X550394Y260197D02*
D03*
Y190197D02*
D03*
X540394Y260197D02*
D03*
X560394D02*
D03*
Y190197D02*
D03*
X540394D02*
D03*
X360630Y190787D02*
D03*
Y180787D02*
D03*
X572953Y343189D02*
D03*
Y333189D02*
D03*
X562953Y343189D02*
D03*
Y333189D02*
D03*
X552953Y343189D02*
D03*
Y333189D02*
D03*
X542953Y343189D02*
D03*
Y333189D02*
D03*
X532953Y343189D02*
D03*
Y333189D02*
D03*
X522953Y343189D02*
D03*
Y333189D02*
D03*
X512953Y343189D02*
D03*
Y333189D02*
D03*
X502953Y343189D02*
D03*
Y333189D02*
D03*
X492953Y343189D02*
D03*
Y333189D02*
D03*
X482953Y343189D02*
D03*
Y333189D02*
D03*
X472953Y343189D02*
D03*
Y333189D02*
D03*
X462953Y343189D02*
D03*
Y333189D02*
D03*
X452953Y343189D02*
D03*
Y333189D02*
D03*
X442953Y343189D02*
D03*
Y333189D02*
D03*
X432953Y343189D02*
D03*
Y333189D02*
D03*
X422953Y343189D02*
D03*
Y333189D02*
D03*
X412953Y343189D02*
D03*
Y333189D02*
D03*
X402953Y343189D02*
D03*
Y333189D02*
D03*
X392953Y343189D02*
D03*
Y333189D02*
D03*
X382953Y343189D02*
D03*
X599606Y240630D02*
D03*
Y230630D02*
D03*
Y220630D02*
D03*
Y196142D02*
D03*
Y186142D02*
D03*
Y176142D02*
D03*
X394016Y286457D02*
D03*
Y296457D02*
D03*
X572913Y272441D02*
D03*
X562913D02*
D03*
X552913D02*
D03*
X572913Y284646D02*
D03*
X562913D02*
D03*
X552913D02*
D03*
X572913Y296850D02*
D03*
X562913D02*
D03*
X552913D02*
D03*
X572913Y309055D02*
D03*
X562913D02*
D03*
X552913D02*
D03*
X599606Y285512D02*
D03*
Y275512D02*
D03*
Y265512D02*
D03*
X572913Y321260D02*
D03*
X562913D02*
D03*
X552913D02*
D03*
X599606Y311181D02*
D03*
Y321181D02*
D03*
X560394Y175512D02*
D03*
X550394D02*
D03*
X487953D02*
D03*
X477953D02*
D03*
X415118D02*
D03*
X405118D02*
D03*
D44*
X360630Y200787D02*
D03*
X599606Y210630D02*
D03*
Y166142D02*
D03*
Y255512D02*
D03*
Y301181D02*
D03*
D45*
X382953Y333189D02*
D03*
X542913Y272441D02*
D03*
Y284646D02*
D03*
Y296850D02*
D03*
Y309055D02*
D03*
Y321260D02*
D03*
D46*
X363779Y338189D02*
D03*
X592126D02*
D03*
Y145276D02*
D03*
X363779D02*
D03*
D47*
X374016Y316457D02*
D03*
Y276457D02*
D03*
X530394Y155512D02*
D03*
X570394D02*
D03*
X457953D02*
D03*
X497953D02*
D03*
X385118D02*
D03*
X425118D02*
D03*
D48*
X385138Y230709D02*
D03*
X385138Y246063D02*
D03*
X365256D02*
D03*
X494095Y309449D02*
D03*
Y314567D02*
D03*
X449213Y312402D02*
D03*
X456299D02*
D03*
X418110Y312205D02*
D03*
X445256Y302362D02*
D03*
X470472Y312795D02*
D03*
X364016Y312992D02*
D03*
X462598Y271260D02*
D03*
X445256Y283465D02*
D03*
X524055Y311988D02*
D03*
X445236Y260197D02*
D03*
X539370Y216535D02*
D03*
X587008Y215551D02*
D03*
X530315Y283071D02*
D03*
X523228Y296850D02*
D03*
X515354Y322047D02*
D03*
X374410Y296457D02*
D03*
X396850Y312205D02*
D03*
X391732Y306693D02*
D03*
X401181Y278346D02*
D03*
X417717Y278740D02*
D03*
X427165Y287008D02*
D03*
Y296063D02*
D03*
X435827Y304724D02*
D03*
X485039Y278740D02*
D03*
X437402Y268898D02*
D03*
X366142Y221654D02*
D03*
X355906Y156299D02*
D03*
X377953Y137402D02*
D03*
X572047Y177165D02*
D03*
X405512Y154724D02*
D03*
X477559Y155905D02*
D03*
X551181D02*
D03*
X406693Y226378D02*
D03*
X479921Y224410D02*
D03*
X544882Y231496D02*
D03*
X523228Y222047D02*
D03*
X507874Y259842D02*
D03*
M02*
