G04 Layer_Physical_Order=2*
G04 Layer_Color=16711680*
%FSLAX25Y25*%
%MOIN*%
G70*
G01*
G75*
%ADD16C,0.04724*%
%ADD17C,0.01000*%
%ADD22C,0.03937*%
%ADD24C,0.00965*%
%ADD25C,0.05906*%
%ADD26R,0.05906X0.05906*%
%ADD27R,0.05906X0.05906*%
%ADD28C,0.11417*%
%ADD29C,0.08701*%
%ADD30C,0.02362*%
%ADD31C,0.05118*%
%ADD32C,0.01772*%
G36*
X594869Y351969D02*
X596404Y351766D01*
X597899Y351366D01*
X599330Y350773D01*
X600670Y349999D01*
X601899Y349057D01*
X602993Y347962D01*
X603936Y346733D01*
X604710Y345393D01*
X605303Y343962D01*
X605703Y342467D01*
X605905Y340932D01*
Y340158D01*
Y143307D01*
Y142533D01*
X605703Y140998D01*
X605303Y139502D01*
X604710Y138072D01*
X603936Y136731D01*
X602993Y135503D01*
X601899Y134408D01*
X600670Y133466D01*
X599330Y132691D01*
X597899Y132099D01*
X596404Y131698D01*
X594869Y131496D01*
X594095Y131496D01*
X361811D01*
X361037Y131496D01*
X359502Y131698D01*
X358006Y132099D01*
X356576Y132691D01*
X355235Y133466D01*
X354007Y134408D01*
X352912Y135503D01*
X351969Y136731D01*
X351195Y138072D01*
X350603Y139502D01*
X350202Y140998D01*
X350000Y142533D01*
X350000Y143307D01*
Y340158D01*
X350000Y340932D01*
X350202Y342467D01*
X350603Y343962D01*
X351195Y345393D01*
X351969Y346733D01*
X352912Y347962D01*
X354007Y349057D01*
X355235Y349999D01*
X356576Y350773D01*
X358006Y351366D01*
X359172Y351678D01*
X359245Y351638D01*
X359259Y351598D01*
X359215Y351085D01*
X358934Y350968D01*
X358232Y350429D01*
X351933Y344130D01*
X351394Y343428D01*
X351055Y342610D01*
X350939Y341732D01*
Y247176D01*
X350863Y246992D01*
X350741Y246063D01*
X350863Y245134D01*
X350939Y244950D01*
Y224907D01*
X350924Y224787D01*
Y190551D01*
Y175408D01*
X351039Y174530D01*
X351378Y173712D01*
X351917Y173010D01*
X391892Y133035D01*
X391892Y133035D01*
X392594Y132496D01*
X393412Y132157D01*
X394290Y132042D01*
X568898D01*
X569775Y132157D01*
X570114Y132298D01*
X570593Y132496D01*
X571296Y133035D01*
X585100Y146839D01*
X585370Y146677D01*
X585510Y146542D01*
X585385Y145276D01*
X585514Y143960D01*
X585898Y142696D01*
X586521Y141530D01*
X587359Y140509D01*
X588381Y139671D01*
X589546Y139048D01*
X590811Y138664D01*
X592126Y138534D01*
X593441Y138664D01*
X594706Y139048D01*
X595871Y139671D01*
X596893Y140509D01*
X597731Y141530D01*
X598354Y142696D01*
X598738Y143960D01*
X598867Y145276D01*
X598738Y146591D01*
X598354Y147855D01*
X597731Y149021D01*
X596893Y150042D01*
X595871Y150881D01*
X594706Y151504D01*
X593441Y151887D01*
X592126Y152017D01*
X590860Y151892D01*
X590725Y152031D01*
X590562Y152302D01*
X600449Y162189D01*
X603559D01*
Y170095D01*
X599888D01*
X597991Y171991D01*
X598275Y172415D01*
X598574Y172291D01*
X599606Y172155D01*
X600638Y172291D01*
X601600Y172689D01*
X602425Y173323D01*
X603059Y174148D01*
X603457Y175110D01*
X603593Y176142D01*
X603457Y177174D01*
X603059Y178135D01*
X602425Y178961D01*
X601600Y179595D01*
X600638Y179993D01*
X599606Y180129D01*
X598574Y179993D01*
X597613Y179595D01*
X596787Y178961D01*
X596154Y178135D01*
X596014Y177798D01*
X595514Y177897D01*
Y184386D01*
X596014Y184486D01*
X596154Y184148D01*
X596787Y183323D01*
X597613Y182689D01*
X598574Y182291D01*
X599606Y182155D01*
X600638Y182291D01*
X601600Y182689D01*
X602425Y183323D01*
X603059Y184148D01*
X603457Y185110D01*
X603593Y186142D01*
X603457Y187174D01*
X603059Y188135D01*
X602425Y188961D01*
X601600Y189594D01*
X600638Y189993D01*
X599606Y190129D01*
X598574Y189993D01*
X597613Y189594D01*
X596787Y188961D01*
X596154Y188135D01*
X596014Y187798D01*
X595514Y187897D01*
Y194386D01*
X596014Y194486D01*
X596154Y194148D01*
X596787Y193323D01*
X597613Y192689D01*
X598574Y192291D01*
X599106Y192221D01*
Y196142D01*
Y200063D01*
X598574Y199993D01*
X597613Y199594D01*
X596787Y198961D01*
X596154Y198135D01*
X596014Y197798D01*
X595514Y197897D01*
Y202303D01*
X599888Y206677D01*
X603559D01*
Y214583D01*
X595653D01*
Y210911D01*
X590403Y205661D01*
X589927Y205040D01*
X589628Y204318D01*
X589526Y203543D01*
Y173228D01*
X589628Y172453D01*
X589927Y171731D01*
X590403Y171111D01*
X595091Y166422D01*
X567493Y138824D01*
X395694D01*
X384845Y149674D01*
X385066Y150122D01*
X385118Y150115D01*
X386515Y150299D01*
X387816Y150838D01*
X388934Y151696D01*
X389792Y152813D01*
X390331Y154115D01*
X390515Y155512D01*
X390331Y156909D01*
X389792Y158210D01*
X388934Y159328D01*
X387816Y160185D01*
X386515Y160724D01*
X385118Y160908D01*
X383721Y160724D01*
X382420Y160185D01*
X381302Y159328D01*
X380445Y158210D01*
X379905Y156909D01*
X379721Y155512D01*
X379728Y155460D01*
X379280Y155239D01*
X357706Y176812D01*
Y177418D01*
X358206Y177665D01*
X358636Y177335D01*
X359598Y176936D01*
X360130Y176866D01*
Y180787D01*
Y184708D01*
X359598Y184638D01*
X358636Y184240D01*
X358206Y183910D01*
X357706Y184157D01*
Y187396D01*
X358556D01*
X358636Y187335D01*
X359598Y186936D01*
X360630Y186801D01*
X361662Y186936D01*
X362623Y187335D01*
X363449Y187968D01*
X364083Y188794D01*
X364481Y189755D01*
X364617Y190787D01*
X364481Y191819D01*
X364083Y192781D01*
X363449Y193606D01*
X362623Y194240D01*
X361662Y194638D01*
X360630Y194774D01*
X359598Y194638D01*
X358636Y194240D01*
X358556Y194179D01*
X357706D01*
Y196835D01*
X364583D01*
Y204740D01*
X357706D01*
Y224683D01*
X357722Y224803D01*
Y242473D01*
X365256D01*
X366185Y242596D01*
X367051Y242954D01*
X367794Y243525D01*
X368365Y244268D01*
X368723Y245134D01*
X368846Y246063D01*
X368723Y246992D01*
X368365Y247858D01*
X367794Y248601D01*
X367051Y249172D01*
X366185Y249530D01*
X365256Y249653D01*
X357722D01*
Y334330D01*
X357805Y334351D01*
X358222Y334386D01*
X359013Y333422D01*
X360034Y332584D01*
X361200Y331961D01*
X362464Y331577D01*
X363779Y331448D01*
X365095Y331577D01*
X366359Y331961D01*
X367525Y332584D01*
X368546Y333422D01*
X369385Y334444D01*
X370007Y335609D01*
X370391Y336874D01*
X370521Y338189D01*
X370391Y339504D01*
X370067Y340571D01*
X370510Y340836D01*
X379000Y332346D01*
Y329236D01*
X386906D01*
Y337142D01*
X383796D01*
X382132Y338806D01*
X382365Y339280D01*
X382953Y339202D01*
X383985Y339338D01*
X384946Y339736D01*
X385772Y340370D01*
X386405Y341196D01*
X386804Y342157D01*
X386940Y343189D01*
X386804Y344221D01*
X386405Y345182D01*
X385772Y346008D01*
X384946Y346642D01*
X383985Y347040D01*
X382953Y347176D01*
X381921Y347040D01*
X380959Y346642D01*
X380134Y346008D01*
X379500Y345182D01*
X379102Y344221D01*
X378966Y343189D01*
X379043Y342601D01*
X378570Y342368D01*
X370508Y350429D01*
X369806Y350968D01*
X369327Y351167D01*
X368988Y351307D01*
X368110Y351423D01*
X361293D01*
X361122Y351923D01*
X361182Y351969D01*
X361811Y351969D01*
Y351969D01*
X594095D01*
X594869Y351969D01*
D02*
G37*
%LPC*%
G36*
X543453Y347110D02*
Y343689D01*
X546874D01*
X546804Y344221D01*
X546406Y345182D01*
X545772Y346008D01*
X544946Y346642D01*
X543985Y347040D01*
X543453Y347110D01*
D02*
G37*
G36*
X542453D02*
X541921Y347040D01*
X540959Y346642D01*
X540134Y346008D01*
X539500Y345182D01*
X539102Y344221D01*
X539032Y343689D01*
X542453D01*
Y347110D01*
D02*
G37*
G36*
X523453D02*
Y343689D01*
X526874D01*
X526804Y344221D01*
X526405Y345182D01*
X525772Y346008D01*
X524946Y346642D01*
X523985Y347040D01*
X523453Y347110D01*
D02*
G37*
G36*
X522453D02*
X521921Y347040D01*
X520959Y346642D01*
X520134Y346008D01*
X519500Y345182D01*
X519102Y344221D01*
X519032Y343689D01*
X522453D01*
Y347110D01*
D02*
G37*
G36*
X473453D02*
Y343689D01*
X476874D01*
X476804Y344221D01*
X476405Y345182D01*
X475772Y346008D01*
X474946Y346642D01*
X473985Y347040D01*
X473453Y347110D01*
D02*
G37*
G36*
X472453D02*
X471921Y347040D01*
X470959Y346642D01*
X470134Y346008D01*
X469500Y345182D01*
X469102Y344221D01*
X469032Y343689D01*
X472453D01*
Y347110D01*
D02*
G37*
G36*
X443453D02*
Y343689D01*
X446874D01*
X446804Y344221D01*
X446406Y345182D01*
X445772Y346008D01*
X444946Y346642D01*
X443985Y347040D01*
X443453Y347110D01*
D02*
G37*
G36*
X442453D02*
X441921Y347040D01*
X440959Y346642D01*
X440134Y346008D01*
X439500Y345182D01*
X439102Y344221D01*
X439032Y343689D01*
X442453D01*
Y347110D01*
D02*
G37*
G36*
X403453D02*
Y343689D01*
X406874D01*
X406804Y344221D01*
X406405Y345182D01*
X405772Y346008D01*
X404946Y346642D01*
X403985Y347040D01*
X403453Y347110D01*
D02*
G37*
G36*
X402453D02*
X401921Y347040D01*
X400959Y346642D01*
X400134Y346008D01*
X399500Y345182D01*
X399102Y344221D01*
X399032Y343689D01*
X402453D01*
Y347110D01*
D02*
G37*
G36*
X546874Y342689D02*
X543453D01*
Y339268D01*
X543985Y339338D01*
X544946Y339736D01*
X545772Y340370D01*
X546406Y341196D01*
X546804Y342157D01*
X546874Y342689D01*
D02*
G37*
G36*
X542453D02*
X539032D01*
X539102Y342157D01*
X539500Y341196D01*
X540134Y340370D01*
X540959Y339736D01*
X541921Y339338D01*
X542453Y339268D01*
Y342689D01*
D02*
G37*
G36*
X526874D02*
X523453D01*
Y339268D01*
X523985Y339338D01*
X524946Y339736D01*
X525772Y340370D01*
X526405Y341196D01*
X526804Y342157D01*
X526874Y342689D01*
D02*
G37*
G36*
X522453D02*
X519032D01*
X519102Y342157D01*
X519500Y341196D01*
X520134Y340370D01*
X520959Y339736D01*
X521921Y339338D01*
X522453Y339268D01*
Y342689D01*
D02*
G37*
G36*
X476874D02*
X473453D01*
Y339268D01*
X473985Y339338D01*
X474946Y339736D01*
X475772Y340370D01*
X476405Y341196D01*
X476804Y342157D01*
X476874Y342689D01*
D02*
G37*
G36*
X472453D02*
X469032D01*
X469102Y342157D01*
X469500Y341196D01*
X470134Y340370D01*
X470959Y339736D01*
X471921Y339338D01*
X472453Y339268D01*
Y342689D01*
D02*
G37*
G36*
X446874D02*
X443453D01*
Y339268D01*
X443985Y339338D01*
X444946Y339736D01*
X445772Y340370D01*
X446406Y341196D01*
X446804Y342157D01*
X446874Y342689D01*
D02*
G37*
G36*
X442453D02*
X439032D01*
X439102Y342157D01*
X439500Y341196D01*
X440134Y340370D01*
X440959Y339736D01*
X441921Y339338D01*
X442453Y339268D01*
Y342689D01*
D02*
G37*
G36*
X406874D02*
X403453D01*
Y339268D01*
X403985Y339338D01*
X404946Y339736D01*
X405772Y340370D01*
X406405Y341196D01*
X406804Y342157D01*
X406874Y342689D01*
D02*
G37*
G36*
X402453D02*
X399032D01*
X399102Y342157D01*
X399500Y341196D01*
X400134Y340370D01*
X400959Y339736D01*
X401921Y339338D01*
X402453Y339268D01*
Y342689D01*
D02*
G37*
G36*
X572953Y347176D02*
X571921Y347040D01*
X570959Y346642D01*
X570134Y346008D01*
X569500Y345182D01*
X569102Y344221D01*
X568966Y343189D01*
X569102Y342157D01*
X569500Y341196D01*
X570134Y340370D01*
X570959Y339736D01*
X571921Y339338D01*
X572953Y339202D01*
X573985Y339338D01*
X574946Y339736D01*
X575772Y340370D01*
X576405Y341196D01*
X576804Y342157D01*
X576940Y343189D01*
X576804Y344221D01*
X576405Y345182D01*
X575772Y346008D01*
X574946Y346642D01*
X573985Y347040D01*
X572953Y347176D01*
D02*
G37*
G36*
X562953D02*
X561921Y347040D01*
X560959Y346642D01*
X560134Y346008D01*
X559500Y345182D01*
X559102Y344221D01*
X558966Y343189D01*
X559102Y342157D01*
X559500Y341196D01*
X560134Y340370D01*
X560959Y339736D01*
X561921Y339338D01*
X562953Y339202D01*
X563985Y339338D01*
X564946Y339736D01*
X565772Y340370D01*
X566405Y341196D01*
X566804Y342157D01*
X566940Y343189D01*
X566804Y344221D01*
X566405Y345182D01*
X565772Y346008D01*
X564946Y346642D01*
X563985Y347040D01*
X562953Y347176D01*
D02*
G37*
G36*
X552953D02*
X551921Y347040D01*
X550959Y346642D01*
X550134Y346008D01*
X549500Y345182D01*
X549102Y344221D01*
X548966Y343189D01*
X549102Y342157D01*
X549500Y341196D01*
X550134Y340370D01*
X550959Y339736D01*
X551921Y339338D01*
X552953Y339202D01*
X553985Y339338D01*
X554946Y339736D01*
X555772Y340370D01*
X556405Y341196D01*
X556804Y342157D01*
X556940Y343189D01*
X556804Y344221D01*
X556405Y345182D01*
X555772Y346008D01*
X554946Y346642D01*
X553985Y347040D01*
X552953Y347176D01*
D02*
G37*
G36*
X532953D02*
X531921Y347040D01*
X530959Y346642D01*
X530134Y346008D01*
X529500Y345182D01*
X529102Y344221D01*
X528966Y343189D01*
X529102Y342157D01*
X529500Y341196D01*
X530134Y340370D01*
X530959Y339736D01*
X531921Y339338D01*
X532953Y339202D01*
X533985Y339338D01*
X534946Y339736D01*
X535772Y340370D01*
X536406Y341196D01*
X536804Y342157D01*
X536940Y343189D01*
X536804Y344221D01*
X536406Y345182D01*
X535772Y346008D01*
X534946Y346642D01*
X533985Y347040D01*
X532953Y347176D01*
D02*
G37*
G36*
X512953D02*
X511921Y347040D01*
X510959Y346642D01*
X510134Y346008D01*
X509500Y345182D01*
X509102Y344221D01*
X508966Y343189D01*
X509102Y342157D01*
X509500Y341196D01*
X510134Y340370D01*
X510959Y339736D01*
X511921Y339338D01*
X512953Y339202D01*
X513985Y339338D01*
X514946Y339736D01*
X515772Y340370D01*
X516405Y341196D01*
X516804Y342157D01*
X516940Y343189D01*
X516804Y344221D01*
X516405Y345182D01*
X515772Y346008D01*
X514946Y346642D01*
X513985Y347040D01*
X512953Y347176D01*
D02*
G37*
G36*
X502953D02*
X501921Y347040D01*
X500959Y346642D01*
X500134Y346008D01*
X499500Y345182D01*
X499102Y344221D01*
X498966Y343189D01*
X499102Y342157D01*
X499500Y341196D01*
X500134Y340370D01*
X500959Y339736D01*
X501921Y339338D01*
X502953Y339202D01*
X503985Y339338D01*
X504946Y339736D01*
X505772Y340370D01*
X506405Y341196D01*
X506804Y342157D01*
X506940Y343189D01*
X506804Y344221D01*
X506405Y345182D01*
X505772Y346008D01*
X504946Y346642D01*
X503985Y347040D01*
X502953Y347176D01*
D02*
G37*
G36*
X492953D02*
X491921Y347040D01*
X490959Y346642D01*
X490134Y346008D01*
X489500Y345182D01*
X489102Y344221D01*
X488966Y343189D01*
X489102Y342157D01*
X489500Y341196D01*
X490134Y340370D01*
X490959Y339736D01*
X491921Y339338D01*
X492953Y339202D01*
X493985Y339338D01*
X494946Y339736D01*
X495772Y340370D01*
X496406Y341196D01*
X496804Y342157D01*
X496940Y343189D01*
X496804Y344221D01*
X496406Y345182D01*
X495772Y346008D01*
X494946Y346642D01*
X493985Y347040D01*
X492953Y347176D01*
D02*
G37*
G36*
X482953D02*
X481921Y347040D01*
X480959Y346642D01*
X480134Y346008D01*
X479500Y345182D01*
X479102Y344221D01*
X478966Y343189D01*
X479102Y342157D01*
X479500Y341196D01*
X480134Y340370D01*
X480959Y339736D01*
X481921Y339338D01*
X482953Y339202D01*
X483985Y339338D01*
X484946Y339736D01*
X485772Y340370D01*
X486406Y341196D01*
X486804Y342157D01*
X486940Y343189D01*
X486804Y344221D01*
X486406Y345182D01*
X485772Y346008D01*
X484946Y346642D01*
X483985Y347040D01*
X482953Y347176D01*
D02*
G37*
G36*
X462953D02*
X461921Y347040D01*
X460959Y346642D01*
X460134Y346008D01*
X459500Y345182D01*
X459102Y344221D01*
X458966Y343189D01*
X459102Y342157D01*
X459500Y341196D01*
X460134Y340370D01*
X460959Y339736D01*
X461921Y339338D01*
X462953Y339202D01*
X463985Y339338D01*
X464946Y339736D01*
X465772Y340370D01*
X466405Y341196D01*
X466804Y342157D01*
X466940Y343189D01*
X466804Y344221D01*
X466405Y345182D01*
X465772Y346008D01*
X464946Y346642D01*
X463985Y347040D01*
X462953Y347176D01*
D02*
G37*
G36*
X452953D02*
X451921Y347040D01*
X450959Y346642D01*
X450134Y346008D01*
X449500Y345182D01*
X449102Y344221D01*
X448966Y343189D01*
X449102Y342157D01*
X449500Y341196D01*
X450134Y340370D01*
X450959Y339736D01*
X451921Y339338D01*
X452953Y339202D01*
X453985Y339338D01*
X454946Y339736D01*
X455772Y340370D01*
X456405Y341196D01*
X456804Y342157D01*
X456940Y343189D01*
X456804Y344221D01*
X456405Y345182D01*
X455772Y346008D01*
X454946Y346642D01*
X453985Y347040D01*
X452953Y347176D01*
D02*
G37*
G36*
X432953D02*
X431921Y347040D01*
X430959Y346642D01*
X430134Y346008D01*
X429500Y345182D01*
X429102Y344221D01*
X428966Y343189D01*
X429102Y342157D01*
X429500Y341196D01*
X430134Y340370D01*
X430959Y339736D01*
X431921Y339338D01*
X432953Y339202D01*
X433985Y339338D01*
X434946Y339736D01*
X435772Y340370D01*
X436406Y341196D01*
X436804Y342157D01*
X436940Y343189D01*
X436804Y344221D01*
X436406Y345182D01*
X435772Y346008D01*
X434946Y346642D01*
X433985Y347040D01*
X432953Y347176D01*
D02*
G37*
G36*
X422953D02*
X421921Y347040D01*
X420959Y346642D01*
X420134Y346008D01*
X419500Y345182D01*
X419102Y344221D01*
X418966Y343189D01*
X419102Y342157D01*
X419500Y341196D01*
X420134Y340370D01*
X420959Y339736D01*
X421921Y339338D01*
X422953Y339202D01*
X423985Y339338D01*
X424946Y339736D01*
X425772Y340370D01*
X426405Y341196D01*
X426804Y342157D01*
X426940Y343189D01*
X426804Y344221D01*
X426405Y345182D01*
X425772Y346008D01*
X424946Y346642D01*
X423985Y347040D01*
X422953Y347176D01*
D02*
G37*
G36*
X412953D02*
X411921Y347040D01*
X410959Y346642D01*
X410134Y346008D01*
X409500Y345182D01*
X409102Y344221D01*
X408966Y343189D01*
X409102Y342157D01*
X409500Y341196D01*
X410134Y340370D01*
X410959Y339736D01*
X411921Y339338D01*
X412953Y339202D01*
X413985Y339338D01*
X414946Y339736D01*
X415772Y340370D01*
X416405Y341196D01*
X416804Y342157D01*
X416940Y343189D01*
X416804Y344221D01*
X416405Y345182D01*
X415772Y346008D01*
X414946Y346642D01*
X413985Y347040D01*
X412953Y347176D01*
D02*
G37*
G36*
X392953D02*
X391921Y347040D01*
X390959Y346642D01*
X390134Y346008D01*
X389500Y345182D01*
X389102Y344221D01*
X388966Y343189D01*
X389102Y342157D01*
X389500Y341196D01*
X390134Y340370D01*
X390959Y339736D01*
X391921Y339338D01*
X392953Y339202D01*
X393985Y339338D01*
X394946Y339736D01*
X395772Y340370D01*
X396406Y341196D01*
X396804Y342157D01*
X396940Y343189D01*
X396804Y344221D01*
X396406Y345182D01*
X395772Y346008D01*
X394946Y346642D01*
X393985Y347040D01*
X392953Y347176D01*
D02*
G37*
G36*
X573453Y337110D02*
Y333689D01*
X576874D01*
X576804Y334221D01*
X576405Y335182D01*
X575772Y336008D01*
X574946Y336642D01*
X573985Y337040D01*
X573453Y337110D01*
D02*
G37*
G36*
X572453D02*
X571921Y337040D01*
X570959Y336642D01*
X570134Y336008D01*
X569500Y335182D01*
X569102Y334221D01*
X569032Y333689D01*
X572453D01*
Y337110D01*
D02*
G37*
G36*
X503453D02*
Y333689D01*
X506874D01*
X506804Y334221D01*
X506405Y335182D01*
X505772Y336008D01*
X504946Y336642D01*
X503985Y337040D01*
X503453Y337110D01*
D02*
G37*
G36*
X502453D02*
X501921Y337040D01*
X500959Y336642D01*
X500134Y336008D01*
X499500Y335182D01*
X499102Y334221D01*
X499032Y333689D01*
X502453D01*
Y337110D01*
D02*
G37*
G36*
X423453D02*
Y333689D01*
X426874D01*
X426804Y334221D01*
X426405Y335182D01*
X425772Y336008D01*
X424946Y336642D01*
X423985Y337040D01*
X423453Y337110D01*
D02*
G37*
G36*
X422453D02*
X421921Y337040D01*
X420959Y336642D01*
X420134Y336008D01*
X419500Y335182D01*
X419102Y334221D01*
X419032Y333689D01*
X422453D01*
Y337110D01*
D02*
G37*
G36*
X592126Y344930D02*
X590811Y344801D01*
X589546Y344417D01*
X588381Y343794D01*
X587359Y342956D01*
X586521Y341934D01*
X585898Y340769D01*
X585514Y339504D01*
X585385Y338189D01*
X585514Y336874D01*
X585898Y335609D01*
X586521Y334444D01*
X587359Y333422D01*
X588381Y332584D01*
X589546Y331961D01*
X590811Y331577D01*
X592126Y331448D01*
X593441Y331577D01*
X594706Y331961D01*
X595871Y332584D01*
X596893Y333422D01*
X597731Y334444D01*
X598354Y335609D01*
X598738Y336874D01*
X598867Y338189D01*
X598738Y339504D01*
X598354Y340769D01*
X597731Y341934D01*
X596893Y342956D01*
X595871Y343794D01*
X594706Y344417D01*
X593441Y344801D01*
X592126Y344930D01*
D02*
G37*
G36*
X532953Y337176D02*
X531921Y337040D01*
X530959Y336642D01*
X530134Y336008D01*
X529500Y335182D01*
X529102Y334221D01*
X528966Y333189D01*
X529102Y332157D01*
X529500Y331196D01*
X529827Y330769D01*
X529581Y330269D01*
X526325D01*
X526078Y330769D01*
X526405Y331196D01*
X526804Y332157D01*
X526940Y333189D01*
X526804Y334221D01*
X526405Y335182D01*
X525772Y336008D01*
X524946Y336642D01*
X523985Y337040D01*
X522953Y337176D01*
X521921Y337040D01*
X520959Y336642D01*
X520134Y336008D01*
X519500Y335182D01*
X519102Y334221D01*
X518966Y333189D01*
X519102Y332157D01*
X519500Y331196D01*
X519827Y330769D01*
X519581Y330269D01*
X516325D01*
X516078Y330769D01*
X516405Y331196D01*
X516804Y332157D01*
X516940Y333189D01*
X516804Y334221D01*
X516405Y335182D01*
X515772Y336008D01*
X514946Y336642D01*
X513985Y337040D01*
X512953Y337176D01*
X511921Y337040D01*
X510959Y336642D01*
X510134Y336008D01*
X509500Y335182D01*
X509102Y334221D01*
X508966Y333189D01*
X509102Y332157D01*
X509500Y331196D01*
X509827Y330769D01*
X509581Y330269D01*
X506325D01*
X506078Y330769D01*
X506405Y331196D01*
X506804Y332157D01*
X506874Y332689D01*
X499032D01*
X499102Y332157D01*
X499500Y331196D01*
X499827Y330769D01*
X499581Y330269D01*
X496325D01*
X496078Y330769D01*
X496406Y331196D01*
X496804Y332157D01*
X496940Y333189D01*
X496804Y334221D01*
X496406Y335182D01*
X495772Y336008D01*
X494946Y336642D01*
X493985Y337040D01*
X492953Y337176D01*
X491921Y337040D01*
X490959Y336642D01*
X490134Y336008D01*
X489500Y335182D01*
X489102Y334221D01*
X488966Y333189D01*
X489102Y332157D01*
X489500Y331196D01*
X489827Y330769D01*
X489581Y330269D01*
X486325D01*
X486078Y330769D01*
X486406Y331196D01*
X486804Y332157D01*
X486940Y333189D01*
X486804Y334221D01*
X486406Y335182D01*
X485772Y336008D01*
X484946Y336642D01*
X483985Y337040D01*
X482953Y337176D01*
X481921Y337040D01*
X480959Y336642D01*
X480134Y336008D01*
X479500Y335182D01*
X479102Y334221D01*
X478966Y333189D01*
X479102Y332157D01*
X479500Y331196D01*
X479827Y330769D01*
X479581Y330269D01*
X476325D01*
X476078Y330769D01*
X476405Y331196D01*
X476804Y332157D01*
X476940Y333189D01*
X476804Y334221D01*
X476405Y335182D01*
X475772Y336008D01*
X474946Y336642D01*
X473985Y337040D01*
X472953Y337176D01*
X471921Y337040D01*
X470959Y336642D01*
X470134Y336008D01*
X469500Y335182D01*
X469102Y334221D01*
X468966Y333189D01*
X469102Y332157D01*
X469500Y331196D01*
X469827Y330769D01*
X469581Y330269D01*
X468592D01*
X466775Y332086D01*
X466804Y332157D01*
X466940Y333189D01*
X466804Y334221D01*
X466405Y335182D01*
X465772Y336008D01*
X464946Y336642D01*
X463985Y337040D01*
X462953Y337176D01*
X461921Y337040D01*
X460959Y336642D01*
X460134Y336008D01*
X459500Y335182D01*
X459102Y334221D01*
X458966Y333189D01*
X459102Y332157D01*
X459500Y331196D01*
X460134Y330370D01*
X460959Y329736D01*
X461921Y329338D01*
X462953Y329202D01*
X463985Y329338D01*
X464055Y329367D01*
X465549Y327874D01*
X465358Y327412D01*
X431102D01*
X430905Y327373D01*
X430705Y327355D01*
X430634Y327319D01*
X430556Y327303D01*
X430389Y327191D01*
X430211Y327099D01*
X422728Y321112D01*
X395276D01*
X395276Y321112D01*
X394729Y321004D01*
X394266Y320694D01*
X379699Y306128D01*
X379390Y305664D01*
X379281Y305118D01*
X379281Y305118D01*
Y283071D01*
X379288Y283039D01*
X379283Y283007D01*
X379342Y282767D01*
X379390Y282525D01*
X379408Y282498D01*
X379416Y282466D01*
X379562Y282267D01*
X379699Y282062D01*
X379726Y282044D01*
X379746Y282017D01*
X393525Y269419D01*
X393736Y269291D01*
X393942Y269154D01*
X393974Y269147D01*
X394002Y269131D01*
X394246Y269093D01*
X394488Y269045D01*
X422047D01*
X422047Y269045D01*
X422593Y269154D01*
X423057Y269463D01*
X441561Y287967D01*
X441561Y287967D01*
X443111Y289517D01*
X461614D01*
X464739Y286392D01*
X464739Y286392D01*
X467864Y283267D01*
Y282283D01*
X467864Y282283D01*
X467973Y281737D01*
X468282Y281274D01*
X482566Y266990D01*
X482359Y266490D01*
X457874D01*
X457289Y266374D01*
X456793Y266042D01*
X452477Y261726D01*
X446838D01*
X446809Y261769D01*
X446087Y262251D01*
X445236Y262421D01*
X444385Y262251D01*
X443664Y261769D01*
X443182Y261048D01*
X443012Y260197D01*
X443182Y259346D01*
X443664Y258624D01*
X444385Y258142D01*
X445236Y257973D01*
X446087Y258142D01*
X446809Y258624D01*
X446838Y258667D01*
X453110D01*
X453695Y258784D01*
X454192Y259115D01*
X458507Y263431D01*
X464929D01*
X465069Y262931D01*
X464500Y262190D01*
X464102Y261229D01*
X464032Y260697D01*
X467953D01*
X471874D01*
X471804Y261229D01*
X471406Y262190D01*
X470837Y262931D01*
X470977Y263431D01*
X474929D01*
X475069Y262931D01*
X474500Y262190D01*
X474102Y261229D01*
X473966Y260197D01*
X474102Y259165D01*
X474500Y258203D01*
X475134Y257378D01*
X475959Y256744D01*
X476921Y256346D01*
X477953Y256210D01*
X478903Y256335D01*
X482777Y252462D01*
X483273Y252130D01*
X483858Y252014D01*
X543740D01*
X544325Y252130D01*
X544822Y252462D01*
X548898Y256538D01*
X549362Y256346D01*
X550394Y256210D01*
X551426Y256346D01*
X552387Y256744D01*
X553213Y257378D01*
X553846Y258203D01*
X554245Y259165D01*
X554381Y260197D01*
X554245Y261229D01*
X553846Y262190D01*
X553213Y263016D01*
X552387Y263650D01*
X552220Y263719D01*
X552320Y264219D01*
X554209D01*
X556735Y261693D01*
X556543Y261229D01*
X556407Y260197D01*
X556543Y259165D01*
X556941Y258203D01*
X557575Y257378D01*
X558400Y256744D01*
X559362Y256346D01*
X560394Y256210D01*
X561426Y256346D01*
X562387Y256744D01*
X563213Y257378D01*
X563846Y258203D01*
X564245Y259165D01*
X564381Y260197D01*
X564245Y261229D01*
X563846Y262190D01*
X563213Y263016D01*
X562387Y263650D01*
X561426Y264048D01*
X560394Y264184D01*
X559362Y264048D01*
X558898Y263856D01*
X555924Y266829D01*
X555428Y267161D01*
X554843Y267277D01*
X512364D01*
X512047Y267664D01*
X512057Y267717D01*
Y317717D01*
X511949Y318263D01*
X511639Y318726D01*
X511176Y319035D01*
X510630Y319144D01*
X501379D01*
X494561Y325962D01*
X494752Y326424D01*
X535030D01*
X538961Y322493D01*
Y317307D01*
X546866D01*
Y325213D01*
X541680D01*
X537186Y329706D01*
X536563Y330123D01*
X536259Y330183D01*
X536052Y330734D01*
X536406Y331196D01*
X536804Y332157D01*
X536940Y333189D01*
X536804Y334221D01*
X536406Y335182D01*
X535772Y336008D01*
X534946Y336642D01*
X533985Y337040D01*
X532953Y337176D01*
D02*
G37*
G36*
X576874Y332689D02*
X573453D01*
Y329268D01*
X573985Y329338D01*
X574946Y329736D01*
X575772Y330370D01*
X576405Y331196D01*
X576804Y332157D01*
X576874Y332689D01*
D02*
G37*
G36*
X572453D02*
X569032D01*
X569102Y332157D01*
X569500Y331196D01*
X570134Y330370D01*
X570959Y329736D01*
X571921Y329338D01*
X572453Y329268D01*
Y332689D01*
D02*
G37*
G36*
X426874D02*
X423453D01*
Y329268D01*
X423985Y329338D01*
X424946Y329736D01*
X425772Y330370D01*
X426405Y331196D01*
X426804Y332157D01*
X426874Y332689D01*
D02*
G37*
G36*
X422453D02*
X419032D01*
X419102Y332157D01*
X419500Y331196D01*
X420134Y330370D01*
X420959Y329736D01*
X421921Y329338D01*
X422453Y329268D01*
Y332689D01*
D02*
G37*
G36*
X562953Y337176D02*
X561921Y337040D01*
X560959Y336642D01*
X560134Y336008D01*
X559500Y335182D01*
X559102Y334221D01*
X558966Y333189D01*
X559102Y332157D01*
X559500Y331196D01*
X560134Y330370D01*
X560959Y329736D01*
X561921Y329338D01*
X562953Y329202D01*
X563985Y329338D01*
X564946Y329736D01*
X565772Y330370D01*
X566405Y331196D01*
X566804Y332157D01*
X566940Y333189D01*
X566804Y334221D01*
X566405Y335182D01*
X565772Y336008D01*
X564946Y336642D01*
X563985Y337040D01*
X562953Y337176D01*
D02*
G37*
G36*
X552953D02*
X551921Y337040D01*
X550959Y336642D01*
X550134Y336008D01*
X549500Y335182D01*
X549102Y334221D01*
X548966Y333189D01*
X549102Y332157D01*
X549500Y331196D01*
X550134Y330370D01*
X550959Y329736D01*
X551921Y329338D01*
X552953Y329202D01*
X553985Y329338D01*
X554946Y329736D01*
X555772Y330370D01*
X556405Y331196D01*
X556804Y332157D01*
X556940Y333189D01*
X556804Y334221D01*
X556405Y335182D01*
X555772Y336008D01*
X554946Y336642D01*
X553985Y337040D01*
X552953Y337176D01*
D02*
G37*
G36*
X542953D02*
X541921Y337040D01*
X540959Y336642D01*
X540134Y336008D01*
X539500Y335182D01*
X539102Y334221D01*
X538966Y333189D01*
X539102Y332157D01*
X539500Y331196D01*
X540134Y330370D01*
X540959Y329736D01*
X541921Y329338D01*
X542953Y329202D01*
X543985Y329338D01*
X544946Y329736D01*
X545772Y330370D01*
X546406Y331196D01*
X546804Y332157D01*
X546940Y333189D01*
X546804Y334221D01*
X546406Y335182D01*
X545772Y336008D01*
X544946Y336642D01*
X543985Y337040D01*
X542953Y337176D01*
D02*
G37*
G36*
X452953D02*
X451921Y337040D01*
X450959Y336642D01*
X450134Y336008D01*
X449500Y335182D01*
X449102Y334221D01*
X448966Y333189D01*
X449102Y332157D01*
X449500Y331196D01*
X450134Y330370D01*
X450959Y329736D01*
X451921Y329338D01*
X452953Y329202D01*
X453985Y329338D01*
X454946Y329736D01*
X455772Y330370D01*
X456405Y331196D01*
X456804Y332157D01*
X456940Y333189D01*
X456804Y334221D01*
X456405Y335182D01*
X455772Y336008D01*
X454946Y336642D01*
X453985Y337040D01*
X452953Y337176D01*
D02*
G37*
G36*
X442953D02*
X441921Y337040D01*
X440959Y336642D01*
X440134Y336008D01*
X439500Y335182D01*
X439102Y334221D01*
X438966Y333189D01*
X439102Y332157D01*
X439500Y331196D01*
X440134Y330370D01*
X440959Y329736D01*
X441921Y329338D01*
X442953Y329202D01*
X443985Y329338D01*
X444946Y329736D01*
X445772Y330370D01*
X446406Y331196D01*
X446804Y332157D01*
X446940Y333189D01*
X446804Y334221D01*
X446406Y335182D01*
X445772Y336008D01*
X444946Y336642D01*
X443985Y337040D01*
X442953Y337176D01*
D02*
G37*
G36*
X432953D02*
X431921Y337040D01*
X430959Y336642D01*
X430134Y336008D01*
X429500Y335182D01*
X429102Y334221D01*
X428966Y333189D01*
X429102Y332157D01*
X429500Y331196D01*
X430134Y330370D01*
X430959Y329736D01*
X431921Y329338D01*
X432953Y329202D01*
X433985Y329338D01*
X434946Y329736D01*
X435772Y330370D01*
X436406Y331196D01*
X436804Y332157D01*
X436940Y333189D01*
X436804Y334221D01*
X436406Y335182D01*
X435772Y336008D01*
X434946Y336642D01*
X433985Y337040D01*
X432953Y337176D01*
D02*
G37*
G36*
X412953D02*
X411921Y337040D01*
X410959Y336642D01*
X410134Y336008D01*
X409500Y335182D01*
X409102Y334221D01*
X408966Y333189D01*
X409102Y332157D01*
X409500Y331196D01*
X410134Y330370D01*
X410959Y329736D01*
X411921Y329338D01*
X412953Y329202D01*
X413985Y329338D01*
X414946Y329736D01*
X415772Y330370D01*
X416405Y331196D01*
X416804Y332157D01*
X416940Y333189D01*
X416804Y334221D01*
X416405Y335182D01*
X415772Y336008D01*
X414946Y336642D01*
X413985Y337040D01*
X412953Y337176D01*
D02*
G37*
G36*
X402953D02*
X401921Y337040D01*
X400959Y336642D01*
X400134Y336008D01*
X399500Y335182D01*
X399102Y334221D01*
X398966Y333189D01*
X399102Y332157D01*
X399500Y331196D01*
X400134Y330370D01*
X400959Y329736D01*
X401921Y329338D01*
X402953Y329202D01*
X403985Y329338D01*
X404946Y329736D01*
X405772Y330370D01*
X406405Y331196D01*
X406804Y332157D01*
X406940Y333189D01*
X406804Y334221D01*
X406405Y335182D01*
X405772Y336008D01*
X404946Y336642D01*
X403985Y337040D01*
X402953Y337176D01*
D02*
G37*
G36*
X392953D02*
X391921Y337040D01*
X390959Y336642D01*
X390134Y336008D01*
X389500Y335182D01*
X389102Y334221D01*
X388966Y333189D01*
X389102Y332157D01*
X389500Y331196D01*
X390134Y330370D01*
X390959Y329736D01*
X391921Y329338D01*
X392953Y329202D01*
X393985Y329338D01*
X394946Y329736D01*
X395772Y330370D01*
X396406Y331196D01*
X396804Y332157D01*
X396940Y333189D01*
X396804Y334221D01*
X396406Y335182D01*
X395772Y336008D01*
X394946Y336642D01*
X393985Y337040D01*
X392953Y337176D01*
D02*
G37*
G36*
X515854Y324172D02*
Y322547D01*
X517479D01*
X517409Y322898D01*
X516927Y323620D01*
X516205Y324102D01*
X515854Y324172D01*
D02*
G37*
G36*
X514854D02*
X514503Y324102D01*
X513782Y323620D01*
X513300Y322898D01*
X513230Y322547D01*
X514854D01*
Y324172D01*
D02*
G37*
G36*
X553413Y325181D02*
Y321760D01*
X556834D01*
X556764Y322292D01*
X556366Y323253D01*
X555732Y324079D01*
X554907Y324713D01*
X553945Y325111D01*
X553413Y325181D01*
D02*
G37*
G36*
X552413D02*
X551882Y325111D01*
X550920Y324713D01*
X550094Y324079D01*
X549461Y323253D01*
X549062Y322292D01*
X548992Y321760D01*
X552413D01*
Y325181D01*
D02*
G37*
G36*
X517479Y321547D02*
X515854D01*
Y319923D01*
X516205Y319993D01*
X516927Y320475D01*
X517409Y321196D01*
X517479Y321547D01*
D02*
G37*
G36*
X514854D02*
X513230D01*
X513300Y321196D01*
X513782Y320475D01*
X514503Y319993D01*
X514854Y319923D01*
Y321547D01*
D02*
G37*
G36*
X556834Y320760D02*
X553413D01*
Y317339D01*
X553945Y317409D01*
X554907Y317807D01*
X555732Y318441D01*
X556366Y319266D01*
X556764Y320228D01*
X556834Y320760D01*
D02*
G37*
G36*
X552413D02*
X548992D01*
X549062Y320228D01*
X549461Y319266D01*
X550094Y318441D01*
X550920Y317807D01*
X551882Y317409D01*
X552413Y317339D01*
Y320760D01*
D02*
G37*
G36*
X572913Y325247D02*
X571881Y325111D01*
X570920Y324713D01*
X570094Y324079D01*
X569461Y323253D01*
X569062Y322292D01*
X568926Y321260D01*
X569062Y320228D01*
X569461Y319266D01*
X570094Y318441D01*
X570920Y317807D01*
X571881Y317409D01*
X572913Y317273D01*
X573945Y317409D01*
X574907Y317807D01*
X575733Y318441D01*
X576366Y319266D01*
X576764Y320228D01*
X576900Y321260D01*
X576764Y322292D01*
X576366Y323253D01*
X575733Y324079D01*
X574907Y324713D01*
X573945Y325111D01*
X572913Y325247D01*
D02*
G37*
G36*
X562913D02*
X561881Y325111D01*
X560920Y324713D01*
X560094Y324079D01*
X559461Y323253D01*
X559062Y322292D01*
X558926Y321260D01*
X559062Y320228D01*
X559461Y319266D01*
X560094Y318441D01*
X560920Y317807D01*
X561881Y317409D01*
X562913Y317273D01*
X563945Y317409D01*
X564907Y317807D01*
X565732Y318441D01*
X566366Y319266D01*
X566764Y320228D01*
X566900Y321260D01*
X566764Y322292D01*
X566366Y323253D01*
X565732Y324079D01*
X564907Y324713D01*
X563945Y325111D01*
X562913Y325247D01*
D02*
G37*
G36*
X599606Y325168D02*
X598574Y325032D01*
X597613Y324634D01*
X596787Y324000D01*
X596154Y323175D01*
X595755Y322213D01*
X595619Y321181D01*
X595755Y320149D01*
X596154Y319188D01*
X596787Y318362D01*
X597613Y317728D01*
X598574Y317330D01*
X599606Y317194D01*
X600638Y317330D01*
X601600Y317728D01*
X602425Y318362D01*
X603059Y319188D01*
X603457Y320149D01*
X603593Y321181D01*
X603457Y322213D01*
X603059Y323175D01*
X602425Y324000D01*
X601600Y324634D01*
X600638Y325032D01*
X599606Y325168D01*
D02*
G37*
G36*
X364516Y315117D02*
Y313492D01*
X366140D01*
X366070Y313843D01*
X365588Y314565D01*
X364867Y315047D01*
X364516Y315117D01*
D02*
G37*
G36*
X363516D02*
X363165Y315047D01*
X362443Y314565D01*
X361961Y313843D01*
X361891Y313492D01*
X363516D01*
Y315117D01*
D02*
G37*
G36*
X524555Y314113D02*
Y312488D01*
X526180D01*
X526110Y312839D01*
X525628Y313561D01*
X524906Y314043D01*
X524555Y314113D01*
D02*
G37*
G36*
X523555D02*
X523204Y314043D01*
X522483Y313561D01*
X522001Y312839D01*
X521931Y312488D01*
X523555D01*
Y314113D01*
D02*
G37*
G36*
X600106Y315102D02*
Y311681D01*
X603527D01*
X603457Y312213D01*
X603059Y313175D01*
X602425Y314000D01*
X601600Y314634D01*
X600638Y315032D01*
X600106Y315102D01*
D02*
G37*
G36*
X599106Y315102D02*
X598574Y315032D01*
X597613Y314634D01*
X596787Y314000D01*
X596154Y313175D01*
X595755Y312213D01*
X595685Y311681D01*
X599106D01*
Y315102D01*
D02*
G37*
G36*
X374016Y321853D02*
X372619Y321669D01*
X371318Y321130D01*
X370200Y320273D01*
X369342Y319155D01*
X368803Y317853D01*
X368619Y316457D01*
X368803Y315060D01*
X369342Y313758D01*
X370200Y312641D01*
X371318Y311783D01*
X372619Y311244D01*
X374016Y311060D01*
X375413Y311244D01*
X376714Y311783D01*
X377832Y312641D01*
X378689Y313758D01*
X379228Y315060D01*
X379412Y316457D01*
X379228Y317853D01*
X378689Y319155D01*
X377832Y320273D01*
X376714Y321130D01*
X375413Y321669D01*
X374016Y321853D01*
D02*
G37*
G36*
X366140Y312492D02*
X364516D01*
Y310868D01*
X364867Y310938D01*
X365588Y311420D01*
X366070Y312141D01*
X366140Y312492D01*
D02*
G37*
G36*
X363516D02*
X361891D01*
X361961Y312141D01*
X362443Y311420D01*
X363165Y310938D01*
X363516Y310868D01*
Y312492D01*
D02*
G37*
G36*
X526180Y311488D02*
X524555D01*
Y309864D01*
X524906Y309934D01*
X525628Y310416D01*
X526110Y311137D01*
X526180Y311488D01*
D02*
G37*
G36*
X523555D02*
X521931D01*
X522001Y311137D01*
X522483Y310416D01*
X523204Y309934D01*
X523555Y309864D01*
Y311488D01*
D02*
G37*
G36*
X553413Y312976D02*
Y309555D01*
X556834D01*
X556764Y310087D01*
X556366Y311049D01*
X555732Y311874D01*
X554907Y312508D01*
X553945Y312906D01*
X553413Y312976D01*
D02*
G37*
G36*
X552413D02*
X551882Y312906D01*
X550920Y312508D01*
X550094Y311874D01*
X549461Y311049D01*
X549062Y310087D01*
X548992Y309555D01*
X552413D01*
Y312976D01*
D02*
G37*
G36*
X603527Y310681D02*
X600106D01*
Y307260D01*
X600638Y307330D01*
X601600Y307728D01*
X602425Y308362D01*
X603059Y309188D01*
X603457Y310149D01*
X603527Y310681D01*
D02*
G37*
G36*
X599106D02*
X595685D01*
X595755Y310149D01*
X596154Y309188D01*
X596787Y308362D01*
X597613Y307728D01*
X598574Y307330D01*
X599106Y307260D01*
Y310681D01*
D02*
G37*
G36*
X556834Y308555D02*
X553413D01*
Y305134D01*
X553945Y305204D01*
X554907Y305602D01*
X555732Y306236D01*
X556366Y307062D01*
X556764Y308023D01*
X556834Y308555D01*
D02*
G37*
G36*
X552413D02*
X548992D01*
X549062Y308023D01*
X549461Y307062D01*
X550094Y306236D01*
X550920Y305602D01*
X551882Y305204D01*
X552413Y305134D01*
Y308555D01*
D02*
G37*
G36*
X546866Y313008D02*
X538961D01*
Y305102D01*
X546866D01*
Y313008D01*
D02*
G37*
G36*
X572913Y313042D02*
X571881Y312906D01*
X570920Y312508D01*
X570094Y311874D01*
X569461Y311049D01*
X569062Y310087D01*
X568926Y309055D01*
X569062Y308023D01*
X569461Y307062D01*
X570094Y306236D01*
X570920Y305602D01*
X571881Y305204D01*
X572913Y305068D01*
X573945Y305204D01*
X574907Y305602D01*
X575733Y306236D01*
X576366Y307062D01*
X576764Y308023D01*
X576900Y309055D01*
X576764Y310087D01*
X576366Y311049D01*
X575733Y311874D01*
X574907Y312508D01*
X573945Y312906D01*
X572913Y313042D01*
D02*
G37*
G36*
X562913D02*
X561881Y312906D01*
X560920Y312508D01*
X560094Y311874D01*
X559461Y311049D01*
X559062Y310087D01*
X558926Y309055D01*
X559062Y308023D01*
X559461Y307062D01*
X560094Y306236D01*
X560920Y305602D01*
X561881Y305204D01*
X562913Y305068D01*
X563945Y305204D01*
X564907Y305602D01*
X565732Y306236D01*
X566366Y307062D01*
X566764Y308023D01*
X566900Y309055D01*
X566764Y310087D01*
X566366Y311049D01*
X565732Y311874D01*
X564907Y312508D01*
X563945Y312906D01*
X562913Y313042D01*
D02*
G37*
G36*
X553413Y300771D02*
Y297350D01*
X556834D01*
X556764Y297882D01*
X556366Y298844D01*
X555732Y299670D01*
X554907Y300303D01*
X553945Y300701D01*
X553413Y300771D01*
D02*
G37*
G36*
X552413D02*
X551882Y300701D01*
X550920Y300303D01*
X550094Y299670D01*
X549461Y298844D01*
X549062Y297882D01*
X548992Y297350D01*
X552413D01*
Y300771D01*
D02*
G37*
G36*
X523728Y298975D02*
Y297350D01*
X525353D01*
X525283Y297701D01*
X524801Y298423D01*
X524079Y298905D01*
X523728Y298975D01*
D02*
G37*
G36*
X522728D02*
X522377Y298905D01*
X521656Y298423D01*
X521174Y297701D01*
X521104Y297350D01*
X522728D01*
Y298975D01*
D02*
G37*
G36*
X603559Y305134D02*
X595653D01*
Y297228D01*
X603559D01*
Y305134D01*
D02*
G37*
G36*
X374909Y298581D02*
Y296957D01*
X376534D01*
X376464Y297308D01*
X375982Y298029D01*
X375260Y298511D01*
X374909Y298581D01*
D02*
G37*
G36*
X373909D02*
X373558Y298511D01*
X372837Y298029D01*
X372355Y297308D01*
X372285Y296957D01*
X373909D01*
Y298581D01*
D02*
G37*
G36*
X525353Y296350D02*
X523728D01*
Y294726D01*
X524079Y294796D01*
X524801Y295278D01*
X525283Y295999D01*
X525353Y296350D01*
D02*
G37*
G36*
X522728D02*
X521104D01*
X521174Y295999D01*
X521656Y295278D01*
X522377Y294796D01*
X522728Y294726D01*
Y296350D01*
D02*
G37*
G36*
X376534Y295957D02*
X374909D01*
Y294332D01*
X375260Y294402D01*
X375982Y294884D01*
X376464Y295606D01*
X376534Y295957D01*
D02*
G37*
G36*
X373909D02*
X372285D01*
X372355Y295606D01*
X372837Y294884D01*
X373558Y294402D01*
X373909Y294332D01*
Y295957D01*
D02*
G37*
G36*
X556834Y296350D02*
X553413D01*
Y292929D01*
X553945Y292999D01*
X554907Y293398D01*
X555732Y294031D01*
X556366Y294857D01*
X556764Y295818D01*
X556834Y296350D01*
D02*
G37*
G36*
X552413D02*
X548992D01*
X549062Y295818D01*
X549461Y294857D01*
X550094Y294031D01*
X550920Y293398D01*
X551882Y292999D01*
X552413Y292929D01*
Y296350D01*
D02*
G37*
G36*
X546866Y300803D02*
X538961D01*
Y292898D01*
X546866D01*
Y300803D01*
D02*
G37*
G36*
X572913Y300837D02*
X571881Y300701D01*
X570920Y300303D01*
X570094Y299670D01*
X569461Y298844D01*
X569062Y297882D01*
X568926Y296850D01*
X569062Y295818D01*
X569461Y294857D01*
X570094Y294031D01*
X570920Y293398D01*
X571881Y292999D01*
X572913Y292863D01*
X573945Y292999D01*
X574907Y293398D01*
X575733Y294031D01*
X576366Y294857D01*
X576764Y295818D01*
X576900Y296850D01*
X576764Y297882D01*
X576366Y298844D01*
X575733Y299670D01*
X574907Y300303D01*
X573945Y300701D01*
X572913Y300837D01*
D02*
G37*
G36*
X562913D02*
X561881Y300701D01*
X560920Y300303D01*
X560094Y299670D01*
X559461Y298844D01*
X559062Y297882D01*
X558926Y296850D01*
X559062Y295818D01*
X559461Y294857D01*
X560094Y294031D01*
X560920Y293398D01*
X561881Y292999D01*
X562913Y292863D01*
X563945Y292999D01*
X564907Y293398D01*
X565732Y294031D01*
X566366Y294857D01*
X566764Y295818D01*
X566900Y296850D01*
X566764Y297882D01*
X566366Y298844D01*
X565732Y299670D01*
X564907Y300303D01*
X563945Y300701D01*
X562913Y300837D01*
D02*
G37*
G36*
X553413Y288567D02*
Y285146D01*
X556834D01*
X556764Y285678D01*
X556366Y286639D01*
X555732Y287465D01*
X554907Y288098D01*
X553945Y288497D01*
X553413Y288567D01*
D02*
G37*
G36*
X552413D02*
X551882Y288497D01*
X550920Y288098D01*
X550094Y287465D01*
X549461Y286639D01*
X549062Y285678D01*
X548992Y285146D01*
X552413D01*
Y288567D01*
D02*
G37*
G36*
X445756Y285589D02*
Y283965D01*
X447380D01*
X447310Y284316D01*
X446828Y285037D01*
X446107Y285519D01*
X445756Y285589D01*
D02*
G37*
G36*
X444756D02*
X444405Y285519D01*
X443683Y285037D01*
X443201Y284316D01*
X443131Y283965D01*
X444756D01*
Y285589D01*
D02*
G37*
G36*
X530815Y285195D02*
Y283571D01*
X532439D01*
X532370Y283922D01*
X531887Y284643D01*
X531166Y285125D01*
X530815Y285195D01*
D02*
G37*
G36*
X529815D02*
X529464Y285125D01*
X528743Y284643D01*
X528260Y283922D01*
X528191Y283571D01*
X529815D01*
Y285195D01*
D02*
G37*
G36*
X599606Y289499D02*
X598574Y289363D01*
X597613Y288965D01*
X596787Y288331D01*
X596154Y287505D01*
X595755Y286544D01*
X595619Y285512D01*
X595755Y284480D01*
X596154Y283518D01*
X596787Y282693D01*
X597613Y282059D01*
X598574Y281661D01*
X599606Y281525D01*
X600638Y281661D01*
X601600Y282059D01*
X602425Y282693D01*
X603059Y283518D01*
X603457Y284480D01*
X603593Y285512D01*
X603457Y286544D01*
X603059Y287505D01*
X602425Y288331D01*
X601600Y288965D01*
X600638Y289363D01*
X599606Y289499D01*
D02*
G37*
G36*
X447380Y282965D02*
X445756D01*
Y281340D01*
X446107Y281410D01*
X446828Y281892D01*
X447310Y282613D01*
X447380Y282965D01*
D02*
G37*
G36*
X444756D02*
X443131D01*
X443201Y282613D01*
X443683Y281892D01*
X444405Y281410D01*
X444756Y281340D01*
Y282965D01*
D02*
G37*
G36*
X532439Y282571D02*
X530815D01*
Y280946D01*
X531166Y281016D01*
X531887Y281498D01*
X532370Y282220D01*
X532439Y282571D01*
D02*
G37*
G36*
X529815D02*
X528191D01*
X528260Y282220D01*
X528743Y281498D01*
X529464Y281016D01*
X529815Y280946D01*
Y282571D01*
D02*
G37*
G36*
X556834Y284146D02*
X553413D01*
Y280725D01*
X553945Y280795D01*
X554907Y281193D01*
X555732Y281826D01*
X556366Y282652D01*
X556764Y283614D01*
X556834Y284146D01*
D02*
G37*
G36*
X552413D02*
X548992D01*
X549062Y283614D01*
X549461Y282652D01*
X550094Y281826D01*
X550920Y281193D01*
X551882Y280795D01*
X552413Y280725D01*
Y284146D01*
D02*
G37*
G36*
X546866Y288598D02*
X538961D01*
Y280693D01*
X546866D01*
Y288598D01*
D02*
G37*
G36*
X572913Y288632D02*
X571881Y288497D01*
X570920Y288098D01*
X570094Y287465D01*
X569461Y286639D01*
X569062Y285678D01*
X568926Y284646D01*
X569062Y283614D01*
X569461Y282652D01*
X570094Y281826D01*
X570920Y281193D01*
X571881Y280795D01*
X572913Y280659D01*
X573945Y280795D01*
X574907Y281193D01*
X575733Y281826D01*
X576366Y282652D01*
X576764Y283614D01*
X576900Y284646D01*
X576764Y285678D01*
X576366Y286639D01*
X575733Y287465D01*
X574907Y288098D01*
X573945Y288497D01*
X572913Y288632D01*
D02*
G37*
G36*
X562913D02*
X561881Y288497D01*
X560920Y288098D01*
X560094Y287465D01*
X559461Y286639D01*
X559062Y285678D01*
X558926Y284646D01*
X559062Y283614D01*
X559461Y282652D01*
X560094Y281826D01*
X560920Y281193D01*
X561881Y280795D01*
X562913Y280659D01*
X563945Y280795D01*
X564907Y281193D01*
X565732Y281826D01*
X566366Y282652D01*
X566764Y283614D01*
X566900Y284646D01*
X566764Y285678D01*
X566366Y286639D01*
X565732Y287465D01*
X564907Y288098D01*
X563945Y288497D01*
X562913Y288632D01*
D02*
G37*
G36*
X553413Y276362D02*
Y272941D01*
X556834D01*
X556764Y273473D01*
X556366Y274434D01*
X555732Y275260D01*
X554907Y275894D01*
X553945Y276292D01*
X553413Y276362D01*
D02*
G37*
G36*
X552413D02*
X551882Y276292D01*
X550920Y275894D01*
X550094Y275260D01*
X549461Y274434D01*
X549062Y273473D01*
X548992Y272941D01*
X552413D01*
Y276362D01*
D02*
G37*
G36*
X463098Y273384D02*
Y271760D01*
X464723D01*
X464653Y272111D01*
X464171Y272832D01*
X463449Y273314D01*
X463098Y273384D01*
D02*
G37*
G36*
X462098D02*
X461747Y273314D01*
X461026Y272832D01*
X460544Y272111D01*
X460474Y271760D01*
X462098D01*
Y273384D01*
D02*
G37*
G36*
X374016Y281853D02*
X372619Y281669D01*
X371318Y281130D01*
X370200Y280273D01*
X369342Y279155D01*
X368803Y277853D01*
X368619Y276457D01*
X368803Y275060D01*
X369342Y273758D01*
X370200Y272641D01*
X371318Y271783D01*
X372619Y271244D01*
X374016Y271060D01*
X375413Y271244D01*
X376714Y271783D01*
X377832Y272641D01*
X378689Y273758D01*
X379228Y275060D01*
X379412Y276457D01*
X379228Y277853D01*
X378689Y279155D01*
X377832Y280273D01*
X376714Y281130D01*
X375413Y281669D01*
X374016Y281853D01*
D02*
G37*
G36*
X437902Y271022D02*
Y269398D01*
X439526D01*
X439456Y269749D01*
X438974Y270470D01*
X438253Y270952D01*
X437902Y271022D01*
D02*
G37*
G36*
X436902D02*
X436551Y270952D01*
X435829Y270470D01*
X435347Y269749D01*
X435277Y269398D01*
X436902D01*
Y271022D01*
D02*
G37*
G36*
X464723Y270760D02*
X463098D01*
Y269135D01*
X463449Y269205D01*
X464171Y269687D01*
X464653Y270409D01*
X464723Y270760D01*
D02*
G37*
G36*
X462098D02*
X460474D01*
X460544Y270409D01*
X461026Y269687D01*
X461747Y269205D01*
X462098Y269135D01*
Y270760D01*
D02*
G37*
G36*
X556834Y271941D02*
X553413D01*
Y268520D01*
X553945Y268590D01*
X554907Y268988D01*
X555732Y269622D01*
X556366Y270447D01*
X556764Y271409D01*
X556834Y271941D01*
D02*
G37*
G36*
X552413D02*
X548992D01*
X549062Y271409D01*
X549461Y270447D01*
X550094Y269622D01*
X550920Y268988D01*
X551882Y268590D01*
X552413Y268520D01*
Y271941D01*
D02*
G37*
G36*
X546866Y276394D02*
X538961D01*
Y268488D01*
X546866D01*
Y276394D01*
D02*
G37*
G36*
X572913Y276428D02*
X571881Y276292D01*
X570920Y275894D01*
X570094Y275260D01*
X569461Y274434D01*
X569062Y273473D01*
X568926Y272441D01*
X569062Y271409D01*
X569461Y270447D01*
X570094Y269622D01*
X570920Y268988D01*
X571881Y268590D01*
X572913Y268454D01*
X573945Y268590D01*
X574907Y268988D01*
X575733Y269622D01*
X576366Y270447D01*
X576764Y271409D01*
X576900Y272441D01*
X576764Y273473D01*
X576366Y274434D01*
X575733Y275260D01*
X574907Y275894D01*
X573945Y276292D01*
X572913Y276428D01*
D02*
G37*
G36*
X599606Y279499D02*
X598574Y279363D01*
X597613Y278964D01*
X596787Y278331D01*
X596154Y277505D01*
X595755Y276544D01*
X595619Y275512D01*
X595755Y274480D01*
X595924Y274072D01*
X588737Y266884D01*
X570634D01*
X566572Y270945D01*
X566764Y271409D01*
X566900Y272441D01*
X566764Y273473D01*
X566366Y274434D01*
X565732Y275260D01*
X564907Y275894D01*
X563945Y276292D01*
X562913Y276428D01*
X561881Y276292D01*
X560920Y275894D01*
X560094Y275260D01*
X559461Y274434D01*
X559062Y273473D01*
X558926Y272441D01*
X559062Y271409D01*
X559461Y270447D01*
X560094Y269622D01*
X560920Y268988D01*
X561881Y268590D01*
X562913Y268454D01*
X563945Y268590D01*
X564409Y268782D01*
X568919Y264273D01*
X569415Y263941D01*
X570000Y263825D01*
X589370D01*
X589955Y263941D01*
X590451Y264273D01*
X598055Y271876D01*
X598574Y271661D01*
X599606Y271525D01*
X600638Y271661D01*
X601600Y272059D01*
X602425Y272693D01*
X603059Y273518D01*
X603457Y274480D01*
X603593Y275512D01*
X603457Y276544D01*
X603059Y277505D01*
X602425Y278331D01*
X601600Y278964D01*
X600638Y279363D01*
X599606Y279499D01*
D02*
G37*
G36*
X439526Y268398D02*
X437902D01*
Y266773D01*
X438253Y266843D01*
X438974Y267325D01*
X439456Y268047D01*
X439526Y268398D01*
D02*
G37*
G36*
X436902D02*
X435277D01*
X435347Y268047D01*
X435829Y267325D01*
X436551Y266843D01*
X436902Y266773D01*
Y268398D01*
D02*
G37*
G36*
X600106Y269433D02*
Y266012D01*
X603527D01*
X603457Y266544D01*
X603059Y267505D01*
X602425Y268331D01*
X601600Y268965D01*
X600638Y269363D01*
X600106Y269433D01*
D02*
G37*
G36*
X599106D02*
X598574Y269363D01*
X597613Y268965D01*
X596787Y268331D01*
X596154Y267505D01*
X595755Y266544D01*
X595685Y266012D01*
X599106D01*
Y269433D01*
D02*
G37*
G36*
X603527Y265012D02*
X600106D01*
Y261591D01*
X600638Y261661D01*
X601600Y262059D01*
X602425Y262693D01*
X603059Y263518D01*
X603457Y264480D01*
X603527Y265012D01*
D02*
G37*
G36*
X599106D02*
X595685D01*
X595755Y264480D01*
X596154Y263518D01*
X596787Y262693D01*
X597613Y262059D01*
X598574Y261661D01*
X599106Y261591D01*
Y265012D01*
D02*
G37*
G36*
X395618Y264118D02*
Y260697D01*
X399039D01*
X398969Y261229D01*
X398571Y262190D01*
X397937Y263016D01*
X397112Y263650D01*
X396150Y264048D01*
X395618Y264118D01*
D02*
G37*
G36*
X394618Y264118D02*
X394086Y264048D01*
X393125Y263650D01*
X392299Y263016D01*
X391665Y262190D01*
X391267Y261229D01*
X391197Y260697D01*
X394618D01*
Y264118D01*
D02*
G37*
G36*
X399039Y259697D02*
X395618D01*
Y256276D01*
X396150Y256346D01*
X397112Y256744D01*
X397937Y257378D01*
X398571Y258203D01*
X398969Y259165D01*
X399039Y259697D01*
D02*
G37*
G36*
X471874Y259697D02*
X468453D01*
Y256276D01*
X468985Y256346D01*
X469946Y256744D01*
X470772Y257378D01*
X471406Y258203D01*
X471804Y259165D01*
X471874Y259697D01*
D02*
G37*
G36*
X467453D02*
X464032D01*
X464102Y259165D01*
X464500Y258203D01*
X465134Y257378D01*
X465959Y256744D01*
X466921Y256346D01*
X467453Y256276D01*
Y259697D01*
D02*
G37*
G36*
X394618Y259697D02*
X391197D01*
X391267Y259165D01*
X391665Y258203D01*
X392299Y257378D01*
X393125Y256744D01*
X394086Y256346D01*
X394618Y256276D01*
Y259697D01*
D02*
G37*
G36*
X415118Y264184D02*
X414086Y264048D01*
X413125Y263650D01*
X412299Y263016D01*
X411665Y262190D01*
X411267Y261229D01*
X411131Y260197D01*
X411267Y259165D01*
X411665Y258203D01*
X412299Y257378D01*
X413125Y256744D01*
X414086Y256346D01*
X415118Y256210D01*
X416150Y256346D01*
X417111Y256744D01*
X417937Y257378D01*
X418571Y258203D01*
X418969Y259165D01*
X419105Y260197D01*
X418969Y261229D01*
X418571Y262190D01*
X417937Y263016D01*
X417111Y263650D01*
X416150Y264048D01*
X415118Y264184D01*
D02*
G37*
G36*
X405118D02*
X404086Y264048D01*
X403125Y263650D01*
X402299Y263016D01*
X401665Y262190D01*
X401267Y261229D01*
X401131Y260197D01*
X401267Y259165D01*
X401665Y258203D01*
X402299Y257378D01*
X403125Y256744D01*
X404086Y256346D01*
X405118Y256210D01*
X406150Y256346D01*
X407112Y256744D01*
X407937Y257378D01*
X408571Y258203D01*
X408969Y259165D01*
X409105Y260197D01*
X408969Y261229D01*
X408571Y262190D01*
X407937Y263016D01*
X407112Y263650D01*
X406150Y264048D01*
X405118Y264184D01*
D02*
G37*
G36*
X603559Y259465D02*
X595653D01*
Y251559D01*
X603559D01*
Y259465D01*
D02*
G37*
G36*
X385638Y248187D02*
Y246563D01*
X387262D01*
X387192Y246914D01*
X386710Y247636D01*
X385989Y248117D01*
X385638Y248187D01*
D02*
G37*
G36*
X384638D02*
X384287Y248117D01*
X383565Y247636D01*
X383083Y246914D01*
X383014Y246563D01*
X384638D01*
Y248187D01*
D02*
G37*
G36*
X387262Y245563D02*
X385638D01*
Y243939D01*
X385989Y244008D01*
X386710Y244491D01*
X387192Y245212D01*
X387262Y245563D01*
D02*
G37*
G36*
X384638D02*
X383014D01*
X383083Y245212D01*
X383565Y244491D01*
X384287Y244008D01*
X384638Y243939D01*
Y245563D01*
D02*
G37*
G36*
X600106Y244551D02*
Y241130D01*
X603527D01*
X603457Y241662D01*
X603059Y242623D01*
X602425Y243449D01*
X601600Y244083D01*
X600638Y244481D01*
X600106Y244551D01*
D02*
G37*
G36*
X599106Y244551D02*
X598574Y244481D01*
X597613Y244083D01*
X596787Y243449D01*
X596154Y242623D01*
X595755Y241662D01*
X595685Y241130D01*
X599106D01*
Y244551D01*
D02*
G37*
G36*
X603527Y240130D02*
X600106D01*
Y236709D01*
X600638Y236779D01*
X601600Y237177D01*
X602425Y237811D01*
X603059Y238636D01*
X603457Y239598D01*
X603527Y240130D01*
D02*
G37*
G36*
X599106D02*
X595685D01*
X595755Y239598D01*
X596154Y238636D01*
X596787Y237811D01*
X597613Y237177D01*
X598574Y236779D01*
X599106Y236709D01*
Y240130D01*
D02*
G37*
G36*
X545382Y233620D02*
Y231996D01*
X547006D01*
X546936Y232347D01*
X546454Y233069D01*
X545733Y233551D01*
X545382Y233620D01*
D02*
G37*
G36*
X544382D02*
X544031Y233551D01*
X543309Y233069D01*
X542827Y232347D01*
X542758Y231996D01*
X544382D01*
Y233620D01*
D02*
G37*
G36*
X385638Y232833D02*
Y231209D01*
X387262D01*
X387192Y231560D01*
X386710Y232281D01*
X385989Y232763D01*
X385638Y232833D01*
D02*
G37*
G36*
X384638D02*
X384287Y232763D01*
X383565Y232281D01*
X383083Y231560D01*
X383014Y231209D01*
X384638D01*
Y232833D01*
D02*
G37*
G36*
X547006Y230996D02*
X545382D01*
Y229372D01*
X545733Y229441D01*
X546454Y229924D01*
X546936Y230645D01*
X547006Y230996D01*
D02*
G37*
G36*
X544382D02*
X542758D01*
X542827Y230645D01*
X543309Y229924D01*
X544031Y229441D01*
X544382Y229372D01*
Y230996D01*
D02*
G37*
G36*
X387262Y230209D02*
X385638D01*
Y228584D01*
X385989Y228654D01*
X386710Y229136D01*
X387192Y229858D01*
X387262Y230209D01*
D02*
G37*
G36*
X384638D02*
X383014D01*
X383083Y229858D01*
X383565Y229136D01*
X384287Y228654D01*
X384638Y228584D01*
Y230209D01*
D02*
G37*
G36*
X407193Y228502D02*
Y226878D01*
X408817D01*
X408747Y227229D01*
X408265Y227950D01*
X407544Y228432D01*
X407193Y228502D01*
D02*
G37*
G36*
X406193D02*
X405842Y228432D01*
X405120Y227950D01*
X404638Y227229D01*
X404568Y226878D01*
X406193D01*
Y228502D01*
D02*
G37*
G36*
X599606Y234617D02*
X598574Y234481D01*
X597613Y234083D01*
X596787Y233449D01*
X596154Y232623D01*
X595755Y231662D01*
X595619Y230630D01*
X595755Y229598D01*
X596154Y228637D01*
X596787Y227811D01*
X597613Y227177D01*
X598574Y226779D01*
X599606Y226643D01*
X600638Y226779D01*
X601600Y227177D01*
X602425Y227811D01*
X603059Y228637D01*
X603457Y229598D01*
X603593Y230630D01*
X603457Y231662D01*
X603059Y232623D01*
X602425Y233449D01*
X601600Y234083D01*
X600638Y234481D01*
X599606Y234617D01*
D02*
G37*
G36*
X480421Y226534D02*
Y224909D01*
X482046D01*
X481976Y225260D01*
X481494Y225982D01*
X480772Y226464D01*
X480421Y226534D01*
D02*
G37*
G36*
X479421D02*
X479070Y226464D01*
X478349Y225982D01*
X477867Y225260D01*
X477797Y224909D01*
X479421D01*
Y226534D01*
D02*
G37*
G36*
X408817Y225878D02*
X407193D01*
Y224254D01*
X407544Y224323D01*
X408265Y224805D01*
X408747Y225527D01*
X408817Y225878D01*
D02*
G37*
G36*
X406193D02*
X404568D01*
X404638Y225527D01*
X405120Y224805D01*
X405842Y224323D01*
X406193Y224254D01*
Y225878D01*
D02*
G37*
G36*
X523728Y224172D02*
Y222547D01*
X525353D01*
X525283Y222898D01*
X524801Y223620D01*
X524079Y224102D01*
X523728Y224172D01*
D02*
G37*
G36*
X522728D02*
X522377Y224102D01*
X521656Y223620D01*
X521174Y222898D01*
X521104Y222547D01*
X522728D01*
Y224172D01*
D02*
G37*
G36*
X482046Y223909D02*
X480421D01*
Y222285D01*
X480772Y222355D01*
X481494Y222837D01*
X481976Y223558D01*
X482046Y223909D01*
D02*
G37*
G36*
X479421D02*
X477797D01*
X477867Y223558D01*
X478349Y222837D01*
X479070Y222355D01*
X479421Y222285D01*
Y223909D01*
D02*
G37*
G36*
X366642Y223778D02*
Y222153D01*
X368266D01*
X368196Y222505D01*
X367714Y223226D01*
X366993Y223708D01*
X366642Y223778D01*
D02*
G37*
G36*
X365642D02*
X365291Y223708D01*
X364569Y223226D01*
X364087Y222505D01*
X364017Y222153D01*
X365642D01*
Y223778D01*
D02*
G37*
G36*
X525353Y221547D02*
X523728D01*
Y219923D01*
X524079Y219993D01*
X524801Y220475D01*
X525283Y221196D01*
X525353Y221547D01*
D02*
G37*
G36*
X522728D02*
X521104D01*
X521174Y221196D01*
X521656Y220475D01*
X522377Y219993D01*
X522728Y219923D01*
Y221547D01*
D02*
G37*
G36*
X368266Y221153D02*
X366642D01*
Y219529D01*
X366993Y219599D01*
X367714Y220081D01*
X368196Y220802D01*
X368266Y221153D01*
D02*
G37*
G36*
X365642D02*
X364017D01*
X364087Y220802D01*
X364569Y220081D01*
X365291Y219599D01*
X365642Y219529D01*
Y221153D01*
D02*
G37*
G36*
X599606Y224617D02*
X598574Y224481D01*
X597613Y224083D01*
X596787Y223449D01*
X596154Y222623D01*
X595755Y221662D01*
X595619Y220630D01*
X595755Y219598D01*
X596154Y218636D01*
X596787Y217811D01*
X597613Y217177D01*
X598574Y216779D01*
X599606Y216643D01*
X600638Y216779D01*
X601600Y217177D01*
X602425Y217811D01*
X603059Y218636D01*
X603457Y219598D01*
X603593Y220630D01*
X603457Y221662D01*
X603059Y222623D01*
X602425Y223449D01*
X601600Y224083D01*
X600638Y224481D01*
X599606Y224617D01*
D02*
G37*
G36*
X539370Y218759D02*
X538519Y218590D01*
X537798Y218108D01*
X537316Y217387D01*
X537146Y216535D01*
X537316Y215684D01*
X537798Y214963D01*
X538519Y214481D01*
X539370Y214312D01*
X540221Y214481D01*
X540943Y214963D01*
X540971Y215006D01*
X584893D01*
X584953Y214700D01*
X585435Y213979D01*
X586157Y213497D01*
X587008Y213327D01*
X587859Y213497D01*
X588580Y213979D01*
X589062Y214700D01*
X589232Y215551D01*
X589062Y216402D01*
X588580Y217124D01*
X587859Y217606D01*
X587008Y217775D01*
X586900Y217754D01*
X586609Y217948D01*
X586024Y218065D01*
X540971D01*
X540943Y218108D01*
X540221Y218590D01*
X539370Y218759D01*
D02*
G37*
G36*
X600106Y200063D02*
Y196642D01*
X603527D01*
X603457Y197174D01*
X603059Y198135D01*
X602425Y198961D01*
X601600Y199594D01*
X600638Y199993D01*
X600106Y200063D01*
D02*
G37*
G36*
X603527Y195642D02*
X600106D01*
Y192221D01*
X600638Y192291D01*
X601600Y192689D01*
X602425Y193323D01*
X603059Y194148D01*
X603457Y195110D01*
X603527Y195642D01*
D02*
G37*
G36*
X560394Y194184D02*
X559362Y194048D01*
X558400Y193650D01*
X557575Y193016D01*
X556941Y192190D01*
X556543Y191229D01*
X556407Y190197D01*
X556543Y189165D01*
X556941Y188203D01*
X557575Y187378D01*
X558400Y186744D01*
X559362Y186346D01*
X560394Y186210D01*
X561426Y186346D01*
X562387Y186744D01*
X563213Y187378D01*
X563846Y188203D01*
X564245Y189165D01*
X564381Y190197D01*
X564245Y191229D01*
X563846Y192190D01*
X563213Y193016D01*
X562387Y193650D01*
X561426Y194048D01*
X560394Y194184D01*
D02*
G37*
G36*
X550394D02*
X549362Y194048D01*
X548400Y193650D01*
X547575Y193016D01*
X546941Y192190D01*
X546543Y191229D01*
X546407Y190197D01*
X546543Y189165D01*
X546941Y188203D01*
X547575Y187378D01*
X548400Y186744D01*
X549362Y186346D01*
X550394Y186210D01*
X551426Y186346D01*
X552387Y186744D01*
X553213Y187378D01*
X553846Y188203D01*
X554245Y189165D01*
X554381Y190197D01*
X554245Y191229D01*
X553846Y192190D01*
X553213Y193016D01*
X552387Y193650D01*
X551426Y194048D01*
X550394Y194184D01*
D02*
G37*
G36*
X540394D02*
X539362Y194048D01*
X538400Y193650D01*
X537575Y193016D01*
X536941Y192190D01*
X536543Y191229D01*
X536407Y190197D01*
X536543Y189165D01*
X536941Y188203D01*
X537575Y187378D01*
X538400Y186744D01*
X539362Y186346D01*
X540394Y186210D01*
X541426Y186346D01*
X542387Y186744D01*
X543213Y187378D01*
X543846Y188203D01*
X544245Y189165D01*
X544381Y190197D01*
X544245Y191229D01*
X543846Y192190D01*
X543213Y193016D01*
X542387Y193650D01*
X541426Y194048D01*
X540394Y194184D01*
D02*
G37*
G36*
X487953D02*
X486921Y194048D01*
X485959Y193650D01*
X485134Y193016D01*
X484500Y192190D01*
X484102Y191229D01*
X483966Y190197D01*
X484102Y189165D01*
X484500Y188203D01*
X485134Y187378D01*
X485959Y186744D01*
X486921Y186346D01*
X487953Y186210D01*
X488985Y186346D01*
X489946Y186744D01*
X490772Y187378D01*
X491405Y188203D01*
X491804Y189165D01*
X491940Y190197D01*
X491804Y191229D01*
X491405Y192190D01*
X490772Y193016D01*
X489946Y193650D01*
X488985Y194048D01*
X487953Y194184D01*
D02*
G37*
G36*
X477953D02*
X476921Y194048D01*
X475959Y193650D01*
X475134Y193016D01*
X474500Y192190D01*
X474102Y191229D01*
X473966Y190197D01*
X474102Y189165D01*
X474500Y188203D01*
X475134Y187378D01*
X475959Y186744D01*
X476921Y186346D01*
X477953Y186210D01*
X478985Y186346D01*
X479946Y186744D01*
X480772Y187378D01*
X481405Y188203D01*
X481804Y189165D01*
X481940Y190197D01*
X481804Y191229D01*
X481405Y192190D01*
X480772Y193016D01*
X479946Y193650D01*
X478985Y194048D01*
X477953Y194184D01*
D02*
G37*
G36*
X467953D02*
X466921Y194048D01*
X465959Y193650D01*
X465134Y193016D01*
X464500Y192190D01*
X464102Y191229D01*
X463966Y190197D01*
X464102Y189165D01*
X464500Y188203D01*
X465134Y187378D01*
X465959Y186744D01*
X466921Y186346D01*
X467953Y186210D01*
X468985Y186346D01*
X469946Y186744D01*
X470772Y187378D01*
X471406Y188203D01*
X471804Y189165D01*
X471940Y190197D01*
X471804Y191229D01*
X471406Y192190D01*
X470772Y193016D01*
X469946Y193650D01*
X468985Y194048D01*
X467953Y194184D01*
D02*
G37*
G36*
X415118D02*
X414086Y194048D01*
X413125Y193650D01*
X412299Y193016D01*
X411665Y192190D01*
X411267Y191229D01*
X411131Y190197D01*
X411267Y189165D01*
X411665Y188203D01*
X412299Y187378D01*
X413125Y186744D01*
X414086Y186346D01*
X415118Y186210D01*
X416150Y186346D01*
X417111Y186744D01*
X417937Y187378D01*
X418571Y188203D01*
X418969Y189165D01*
X419105Y190197D01*
X418969Y191229D01*
X418571Y192190D01*
X417937Y193016D01*
X417111Y193650D01*
X416150Y194048D01*
X415118Y194184D01*
D02*
G37*
G36*
X405118D02*
X404086Y194048D01*
X403125Y193650D01*
X402299Y193016D01*
X401665Y192190D01*
X401267Y191229D01*
X401131Y190197D01*
X401267Y189165D01*
X401665Y188203D01*
X402299Y187378D01*
X403125Y186744D01*
X404086Y186346D01*
X405118Y186210D01*
X406150Y186346D01*
X407112Y186744D01*
X407937Y187378D01*
X408571Y188203D01*
X408969Y189165D01*
X409105Y190197D01*
X408969Y191229D01*
X408571Y192190D01*
X407937Y193016D01*
X407112Y193650D01*
X406150Y194048D01*
X405118Y194184D01*
D02*
G37*
G36*
X395118D02*
X394086Y194048D01*
X393125Y193650D01*
X392299Y193016D01*
X391665Y192190D01*
X391267Y191229D01*
X391131Y190197D01*
X391267Y189165D01*
X391665Y188203D01*
X392299Y187378D01*
X393125Y186744D01*
X394086Y186346D01*
X395118Y186210D01*
X396150Y186346D01*
X397112Y186744D01*
X397937Y187378D01*
X398571Y188203D01*
X398969Y189165D01*
X399105Y190197D01*
X398969Y191229D01*
X398571Y192190D01*
X397937Y193016D01*
X397112Y193650D01*
X396150Y194048D01*
X395118Y194184D01*
D02*
G37*
G36*
X361130Y184708D02*
Y181287D01*
X364551D01*
X364481Y181819D01*
X364083Y182781D01*
X363449Y183607D01*
X362623Y184240D01*
X361662Y184638D01*
X361130Y184708D01*
D02*
G37*
G36*
X572547Y179290D02*
Y177665D01*
X574172D01*
X574102Y178016D01*
X573620Y178738D01*
X572898Y179220D01*
X572547Y179290D01*
D02*
G37*
G36*
X571547D02*
X571196Y179220D01*
X570475Y178738D01*
X569993Y178016D01*
X569923Y177665D01*
X571547D01*
Y179290D01*
D02*
G37*
G36*
X364551Y180287D02*
X361130D01*
Y176866D01*
X361662Y176936D01*
X362623Y177335D01*
X363449Y177968D01*
X364083Y178794D01*
X364481Y179755D01*
X364551Y180287D01*
D02*
G37*
G36*
X574172Y176665D02*
X572547D01*
Y175041D01*
X572898Y175111D01*
X573620Y175593D01*
X574102Y176314D01*
X574172Y176665D01*
D02*
G37*
G36*
X571547D02*
X569923D01*
X569993Y176314D01*
X570475Y175593D01*
X571196Y175111D01*
X571547Y175041D01*
Y176665D01*
D02*
G37*
G36*
X560394Y179499D02*
X559362Y179363D01*
X558400Y178964D01*
X557575Y178331D01*
X556941Y177505D01*
X556543Y176544D01*
X556407Y175512D01*
X556543Y174480D01*
X556941Y173518D01*
X557575Y172693D01*
X558400Y172059D01*
X559362Y171661D01*
X560394Y171525D01*
X561426Y171661D01*
X562387Y172059D01*
X563213Y172693D01*
X563846Y173518D01*
X564245Y174480D01*
X564381Y175512D01*
X564245Y176544D01*
X563846Y177505D01*
X563213Y178331D01*
X562387Y178964D01*
X561426Y179363D01*
X560394Y179499D01*
D02*
G37*
G36*
X550394D02*
X549362Y179363D01*
X548400Y178964D01*
X547575Y178331D01*
X546941Y177505D01*
X546543Y176544D01*
X546407Y175512D01*
X546543Y174480D01*
X546941Y173518D01*
X547575Y172693D01*
X548400Y172059D01*
X549362Y171661D01*
X550394Y171525D01*
X551426Y171661D01*
X552387Y172059D01*
X553213Y172693D01*
X553846Y173518D01*
X554245Y174480D01*
X554381Y175512D01*
X554245Y176544D01*
X553846Y177505D01*
X553213Y178331D01*
X552387Y178964D01*
X551426Y179363D01*
X550394Y179499D01*
D02*
G37*
G36*
X487953D02*
X486921Y179363D01*
X485959Y178964D01*
X485134Y178331D01*
X484500Y177505D01*
X484102Y176544D01*
X483966Y175512D01*
X484102Y174480D01*
X484500Y173518D01*
X485134Y172693D01*
X485959Y172059D01*
X486921Y171661D01*
X487953Y171525D01*
X488985Y171661D01*
X489946Y172059D01*
X490772Y172693D01*
X491405Y173518D01*
X491804Y174480D01*
X491940Y175512D01*
X491804Y176544D01*
X491405Y177505D01*
X490772Y178331D01*
X489946Y178964D01*
X488985Y179363D01*
X487953Y179499D01*
D02*
G37*
G36*
X477953D02*
X476921Y179363D01*
X475959Y178964D01*
X475134Y178331D01*
X474500Y177505D01*
X474102Y176544D01*
X473966Y175512D01*
X474102Y174480D01*
X474500Y173518D01*
X475134Y172693D01*
X475959Y172059D01*
X476921Y171661D01*
X477953Y171525D01*
X478985Y171661D01*
X479946Y172059D01*
X480772Y172693D01*
X481405Y173518D01*
X481804Y174480D01*
X481940Y175512D01*
X481804Y176544D01*
X481405Y177505D01*
X480772Y178331D01*
X479946Y178964D01*
X478985Y179363D01*
X477953Y179499D01*
D02*
G37*
G36*
X415118D02*
X414086Y179363D01*
X413125Y178964D01*
X412299Y178331D01*
X411665Y177505D01*
X411267Y176544D01*
X411131Y175512D01*
X411267Y174480D01*
X411665Y173518D01*
X412299Y172693D01*
X413125Y172059D01*
X414086Y171661D01*
X415118Y171525D01*
X416150Y171661D01*
X417111Y172059D01*
X417937Y172693D01*
X418571Y173518D01*
X418969Y174480D01*
X419105Y175512D01*
X418969Y176544D01*
X418571Y177505D01*
X417937Y178331D01*
X417111Y178964D01*
X416150Y179363D01*
X415118Y179499D01*
D02*
G37*
G36*
X405118D02*
X404086Y179363D01*
X403125Y178964D01*
X402299Y178331D01*
X401665Y177505D01*
X401267Y176544D01*
X401131Y175512D01*
X401267Y174480D01*
X401665Y173518D01*
X402299Y172693D01*
X403125Y172059D01*
X404086Y171661D01*
X405118Y171525D01*
X406150Y171661D01*
X407112Y172059D01*
X407937Y172693D01*
X408571Y173518D01*
X408969Y174480D01*
X409105Y175512D01*
X408969Y176544D01*
X408571Y177505D01*
X407937Y178331D01*
X407112Y178964D01*
X406150Y179363D01*
X405118Y179499D01*
D02*
G37*
G36*
X356405Y158424D02*
Y156799D01*
X358030D01*
X357960Y157150D01*
X357478Y157872D01*
X356756Y158354D01*
X356405Y158424D01*
D02*
G37*
G36*
X355405D02*
X355054Y158354D01*
X354333Y157872D01*
X353851Y157150D01*
X353781Y156799D01*
X355405D01*
Y158424D01*
D02*
G37*
G36*
X551681Y158030D02*
Y156405D01*
X553305D01*
X553236Y156756D01*
X552754Y157478D01*
X552032Y157960D01*
X551681Y158030D01*
D02*
G37*
G36*
X550681D02*
X550330Y157960D01*
X549609Y157478D01*
X549127Y156756D01*
X549057Y156405D01*
X550681D01*
Y158030D01*
D02*
G37*
G36*
X478059D02*
Y156405D01*
X479683D01*
X479614Y156756D01*
X479132Y157478D01*
X478410Y157960D01*
X478059Y158030D01*
D02*
G37*
G36*
X477059D02*
X476708Y157960D01*
X475987Y157478D01*
X475504Y156756D01*
X475435Y156405D01*
X477059D01*
Y158030D01*
D02*
G37*
G36*
X406012Y156849D02*
Y155224D01*
X407636D01*
X407566Y155575D01*
X407084Y156297D01*
X406363Y156779D01*
X406012Y156849D01*
D02*
G37*
G36*
X405012D02*
X404661Y156779D01*
X403939Y156297D01*
X403457Y155575D01*
X403387Y155224D01*
X405012D01*
Y156849D01*
D02*
G37*
G36*
X358030Y155799D02*
X356405D01*
Y154175D01*
X356756Y154245D01*
X357478Y154727D01*
X357960Y155448D01*
X358030Y155799D01*
D02*
G37*
G36*
X355405D02*
X353781D01*
X353851Y155448D01*
X354333Y154727D01*
X355054Y154245D01*
X355405Y154175D01*
Y155799D01*
D02*
G37*
G36*
X553305Y155405D02*
X551681D01*
Y153781D01*
X552032Y153851D01*
X552754Y154333D01*
X553236Y155054D01*
X553305Y155405D01*
D02*
G37*
G36*
X550681D02*
X549057D01*
X549127Y155054D01*
X549609Y154333D01*
X550330Y153851D01*
X550681Y153781D01*
Y155405D01*
D02*
G37*
G36*
X479683D02*
X478059D01*
Y153781D01*
X478410Y153851D01*
X479132Y154333D01*
X479614Y155054D01*
X479683Y155405D01*
D02*
G37*
G36*
X477059D02*
X475435D01*
X475504Y155054D01*
X475987Y154333D01*
X476708Y153851D01*
X477059Y153781D01*
Y155405D01*
D02*
G37*
G36*
X407636Y154224D02*
X406012D01*
Y152600D01*
X406363Y152670D01*
X407084Y153152D01*
X407566Y153873D01*
X407636Y154224D01*
D02*
G37*
G36*
X405012D02*
X403387D01*
X403457Y153873D01*
X403939Y153152D01*
X404661Y152670D01*
X405012Y152600D01*
Y154224D01*
D02*
G37*
G36*
X570394Y160908D02*
X568997Y160724D01*
X567695Y160185D01*
X566578Y159328D01*
X565720Y158210D01*
X565181Y156909D01*
X564997Y155512D01*
X565181Y154115D01*
X565720Y152813D01*
X566578Y151696D01*
X567695Y150838D01*
X568997Y150299D01*
X570394Y150115D01*
X571790Y150299D01*
X573092Y150838D01*
X574210Y151696D01*
X575067Y152813D01*
X575606Y154115D01*
X575790Y155512D01*
X575606Y156909D01*
X575067Y158210D01*
X574210Y159328D01*
X573092Y160185D01*
X571790Y160724D01*
X570394Y160908D01*
D02*
G37*
G36*
X530394D02*
X528997Y160724D01*
X527695Y160185D01*
X526578Y159328D01*
X525720Y158210D01*
X525181Y156909D01*
X524997Y155512D01*
X525181Y154115D01*
X525720Y152813D01*
X526578Y151696D01*
X527695Y150838D01*
X528997Y150299D01*
X530394Y150115D01*
X531790Y150299D01*
X533092Y150838D01*
X534210Y151696D01*
X535067Y152813D01*
X535606Y154115D01*
X535790Y155512D01*
X535606Y156909D01*
X535067Y158210D01*
X534210Y159328D01*
X533092Y160185D01*
X531790Y160724D01*
X530394Y160908D01*
D02*
G37*
G36*
X497953D02*
X496556Y160724D01*
X495255Y160185D01*
X494137Y159328D01*
X493279Y158210D01*
X492740Y156909D01*
X492556Y155512D01*
X492740Y154115D01*
X493279Y152813D01*
X494137Y151696D01*
X495255Y150838D01*
X496556Y150299D01*
X497953Y150115D01*
X499349Y150299D01*
X500651Y150838D01*
X501769Y151696D01*
X502626Y152813D01*
X503165Y154115D01*
X503349Y155512D01*
X503165Y156909D01*
X502626Y158210D01*
X501769Y159328D01*
X500651Y160185D01*
X499349Y160724D01*
X497953Y160908D01*
D02*
G37*
G36*
X457953D02*
X456556Y160724D01*
X455255Y160185D01*
X454137Y159328D01*
X453279Y158210D01*
X452740Y156909D01*
X452556Y155512D01*
X452740Y154115D01*
X453279Y152813D01*
X454137Y151696D01*
X455255Y150838D01*
X456556Y150299D01*
X457953Y150115D01*
X459349Y150299D01*
X460651Y150838D01*
X461769Y151696D01*
X462626Y152813D01*
X463165Y154115D01*
X463349Y155512D01*
X463165Y156909D01*
X462626Y158210D01*
X461769Y159328D01*
X460651Y160185D01*
X459349Y160724D01*
X457953Y160908D01*
D02*
G37*
G36*
X425118D02*
X423721Y160724D01*
X422420Y160185D01*
X421302Y159328D01*
X420444Y158210D01*
X419905Y156909D01*
X419722Y155512D01*
X419905Y154115D01*
X420444Y152813D01*
X421302Y151696D01*
X422420Y150838D01*
X423721Y150299D01*
X425118Y150115D01*
X426515Y150299D01*
X427816Y150838D01*
X428934Y151696D01*
X429792Y152813D01*
X430331Y154115D01*
X430515Y155512D01*
X430331Y156909D01*
X429792Y158210D01*
X428934Y159328D01*
X427816Y160185D01*
X426515Y160724D01*
X425118Y160908D01*
D02*
G37*
G36*
X363779Y152017D02*
X362464Y151887D01*
X361200Y151504D01*
X360034Y150881D01*
X359013Y150042D01*
X358174Y149021D01*
X357552Y147855D01*
X357168Y146591D01*
X357038Y145276D01*
X357168Y143960D01*
X357552Y142696D01*
X358174Y141530D01*
X359013Y140509D01*
X360034Y139671D01*
X361200Y139048D01*
X362464Y138664D01*
X363779Y138534D01*
X365095Y138664D01*
X366359Y139048D01*
X367525Y139671D01*
X368546Y140509D01*
X369385Y141530D01*
X370007Y142696D01*
X370391Y143960D01*
X370521Y145276D01*
X370391Y146591D01*
X370007Y147855D01*
X369385Y149021D01*
X368546Y150042D01*
X367525Y150881D01*
X366359Y151504D01*
X365095Y151887D01*
X363779Y152017D01*
D02*
G37*
G36*
X378453Y139526D02*
Y137902D01*
X380077D01*
X380007Y138253D01*
X379525Y138974D01*
X378804Y139456D01*
X378453Y139526D01*
D02*
G37*
G36*
X377453D02*
X377102Y139456D01*
X376380Y138974D01*
X375898Y138253D01*
X375828Y137902D01*
X377453D01*
Y139526D01*
D02*
G37*
G36*
X380077Y136902D02*
X378453D01*
Y135277D01*
X378804Y135347D01*
X379525Y135829D01*
X380007Y136550D01*
X380077Y136902D01*
D02*
G37*
G36*
X377453D02*
X375828D01*
X375898Y136550D01*
X376380Y135829D01*
X377102Y135347D01*
X377453Y135277D01*
Y136902D01*
D02*
G37*
%LPD*%
G36*
X497638Y317717D02*
Y270866D01*
X483858D01*
X472441Y282283D01*
Y287795D01*
X463779Y296457D01*
X445276Y296457D01*
X441732D01*
X437402Y292126D01*
Y288976D01*
X422047Y273622D01*
X394609Y273622D01*
X383858Y283071D01*
Y283858D01*
Y305118D01*
X395276Y316535D01*
X397244Y316535D01*
X423228D01*
X431102Y322835D01*
X492126D01*
X497638Y317717D01*
D02*
G37*
G36*
X548567Y263719D02*
X548400Y263650D01*
X547575Y263016D01*
X546941Y262190D01*
X546543Y261229D01*
X546407Y260197D01*
X546543Y259165D01*
X546735Y258701D01*
X543107Y255073D01*
X484492D01*
X481386Y258178D01*
X481405Y258203D01*
X481804Y259165D01*
X481940Y260197D01*
X481804Y261229D01*
X481405Y262190D01*
X480837Y262931D01*
X480977Y263431D01*
X482555D01*
X484294Y261693D01*
X484102Y261229D01*
X483966Y260197D01*
X484102Y259165D01*
X484500Y258203D01*
X485134Y257378D01*
X485959Y256744D01*
X486921Y256346D01*
X487953Y256210D01*
X488985Y256346D01*
X489946Y256744D01*
X490772Y257378D01*
X491405Y258203D01*
X491804Y259165D01*
X491940Y260197D01*
X491804Y261229D01*
X491612Y261693D01*
X494137Y264219D01*
X538468D01*
X538567Y263719D01*
X538400Y263650D01*
X537575Y263016D01*
X536941Y262190D01*
X536543Y261229D01*
X536473Y260697D01*
X540394D01*
X544315D01*
X544245Y261229D01*
X543846Y262190D01*
X543213Y263016D01*
X542387Y263650D01*
X542220Y263719D01*
X542320Y264219D01*
X548468D01*
X548567Y263719D01*
D02*
G37*
%LPC*%
G36*
X494594Y316691D02*
Y315067D01*
X496219D01*
X496149Y315418D01*
X495667Y316139D01*
X494945Y316621D01*
X494594Y316691D01*
D02*
G37*
G36*
X493595D02*
X493244Y316621D01*
X492522Y316139D01*
X492040Y315418D01*
X491970Y315067D01*
X493595D01*
Y316691D01*
D02*
G37*
G36*
X470972Y314920D02*
Y313295D01*
X472597D01*
X472527Y313646D01*
X472045Y314368D01*
X471323Y314850D01*
X470972Y314920D01*
D02*
G37*
G36*
X469973D02*
X469621Y314850D01*
X468900Y314368D01*
X468418Y313646D01*
X468348Y313295D01*
X469973D01*
Y314920D01*
D02*
G37*
G36*
X418610Y314329D02*
Y312705D01*
X420235D01*
X420165Y313056D01*
X419683Y313777D01*
X418961Y314259D01*
X418610Y314329D01*
D02*
G37*
G36*
X417610D02*
X417259Y314259D01*
X416538Y313777D01*
X416056Y313056D01*
X415986Y312705D01*
X417610D01*
Y314329D01*
D02*
G37*
G36*
X397350Y314329D02*
Y312705D01*
X398975D01*
X398905Y313056D01*
X398423Y313777D01*
X397701Y314259D01*
X397350Y314329D01*
D02*
G37*
G36*
X396350D02*
X395999Y314259D01*
X395278Y313777D01*
X394796Y313056D01*
X394726Y312705D01*
X396350D01*
Y314329D01*
D02*
G37*
G36*
X496219Y314067D02*
X494594D01*
Y312443D01*
X494945Y312512D01*
X495667Y312994D01*
X496149Y313716D01*
X496219Y314067D01*
D02*
G37*
G36*
X493595D02*
X491970D01*
X492040Y313716D01*
X492522Y312994D01*
X493244Y312512D01*
X493595Y312443D01*
Y314067D01*
D02*
G37*
G36*
X472597Y312295D02*
X470972D01*
Y310671D01*
X471323Y310741D01*
X472045Y311223D01*
X472527Y311944D01*
X472597Y312295D01*
D02*
G37*
G36*
X469973D02*
X468348D01*
X468418Y311944D01*
X468900Y311223D01*
X469621Y310741D01*
X469973Y310671D01*
Y312295D01*
D02*
G37*
G36*
X420235Y311705D02*
X418610D01*
Y310080D01*
X418961Y310150D01*
X419683Y310632D01*
X420165Y311354D01*
X420235Y311705D01*
D02*
G37*
G36*
X417610D02*
X415986D01*
X416056Y311354D01*
X416538Y310632D01*
X417259Y310150D01*
X417610Y310080D01*
Y311705D01*
D02*
G37*
G36*
X398975Y311705D02*
X397350D01*
Y310080D01*
X397701Y310150D01*
X398423Y310632D01*
X398905Y311354D01*
X398975Y311705D01*
D02*
G37*
G36*
X396350D02*
X394726D01*
X394796Y311354D01*
X395278Y310632D01*
X395999Y310150D01*
X396350Y310080D01*
Y311705D01*
D02*
G37*
G36*
X494594Y311573D02*
Y309949D01*
X496219D01*
X496149Y310300D01*
X495667Y311021D01*
X494945Y311503D01*
X494594Y311573D01*
D02*
G37*
G36*
X493595D02*
X493244Y311503D01*
X492522Y311021D01*
X492040Y310300D01*
X491970Y309949D01*
X493595D01*
Y311573D01*
D02*
G37*
G36*
X496219Y308949D02*
X494594D01*
Y307324D01*
X494945Y307394D01*
X495667Y307876D01*
X496149Y308598D01*
X496219Y308949D01*
D02*
G37*
G36*
X493595D02*
X491970D01*
X492040Y308598D01*
X492522Y307876D01*
X493244Y307394D01*
X493595Y307324D01*
Y308949D01*
D02*
G37*
G36*
X392232Y308817D02*
Y307193D01*
X393857D01*
X393787Y307544D01*
X393305Y308265D01*
X392583Y308748D01*
X392232Y308817D01*
D02*
G37*
G36*
X391232D02*
X390881Y308748D01*
X390160Y308265D01*
X389678Y307544D01*
X389608Y307193D01*
X391232D01*
Y308817D01*
D02*
G37*
G36*
X479201Y310378D02*
Y306957D01*
X482622D01*
X482552Y307489D01*
X482154Y308450D01*
X481520Y309276D01*
X480694Y309909D01*
X479733Y310308D01*
X479201Y310378D01*
D02*
G37*
G36*
X478201Y310378D02*
X477669Y310308D01*
X476707Y309909D01*
X475882Y309276D01*
X475248Y308450D01*
X474850Y307489D01*
X474780Y306957D01*
X478201D01*
Y310378D01*
D02*
G37*
G36*
X436327Y306849D02*
Y305224D01*
X437951D01*
X437881Y305575D01*
X437399Y306297D01*
X436678Y306779D01*
X436327Y306849D01*
D02*
G37*
G36*
X435327D02*
X434976Y306779D01*
X434254Y306297D01*
X433772Y305575D01*
X433702Y305224D01*
X435327D01*
Y306849D01*
D02*
G37*
G36*
X393857Y306193D02*
X392232D01*
Y304569D01*
X392583Y304638D01*
X393305Y305120D01*
X393787Y305842D01*
X393857Y306193D01*
D02*
G37*
G36*
X391232D02*
X389608D01*
X389678Y305842D01*
X390160Y305120D01*
X390881Y304638D01*
X391232Y304569D01*
Y306193D01*
D02*
G37*
G36*
X445756Y304487D02*
Y302862D01*
X447380D01*
X447310Y303213D01*
X446828Y303935D01*
X446107Y304417D01*
X445756Y304487D01*
D02*
G37*
G36*
X444756D02*
X444405Y304417D01*
X443683Y303935D01*
X443201Y303213D01*
X443131Y302862D01*
X444756D01*
Y304487D01*
D02*
G37*
G36*
X437951Y304224D02*
X436327D01*
Y302600D01*
X436678Y302670D01*
X437399Y303152D01*
X437881Y303873D01*
X437951Y304224D01*
D02*
G37*
G36*
X435327D02*
X433702D01*
X433772Y303873D01*
X434254Y303152D01*
X434976Y302670D01*
X435327Y302600D01*
Y304224D01*
D02*
G37*
G36*
X482622Y305957D02*
X479201D01*
Y302536D01*
X479733Y302606D01*
X480694Y303004D01*
X481520Y303638D01*
X482154Y304463D01*
X482552Y305425D01*
X482622Y305957D01*
D02*
G37*
G36*
X478201D02*
X474780D01*
X474850Y305425D01*
X475248Y304463D01*
X475882Y303638D01*
X476707Y303004D01*
X477669Y302606D01*
X478201Y302536D01*
Y305957D01*
D02*
G37*
G36*
X408701Y310444D02*
X407669Y310308D01*
X406707Y309909D01*
X405882Y309276D01*
X405248Y308450D01*
X404850Y307489D01*
X404714Y306457D01*
X404850Y305425D01*
X405248Y304463D01*
X405882Y303638D01*
X406707Y303004D01*
X407669Y302606D01*
X408701Y302470D01*
X409733Y302606D01*
X410694Y303004D01*
X411520Y303638D01*
X412153Y304463D01*
X412552Y305425D01*
X412688Y306457D01*
X412552Y307489D01*
X412153Y308450D01*
X411520Y309276D01*
X410694Y309909D01*
X409733Y310308D01*
X408701Y310444D01*
D02*
G37*
G36*
X447380Y301862D02*
X445756D01*
Y300238D01*
X446107Y300308D01*
X446828Y300790D01*
X447310Y301511D01*
X447380Y301862D01*
D02*
G37*
G36*
X444756D02*
X443131D01*
X443201Y301511D01*
X443683Y300790D01*
X444405Y300308D01*
X444756Y300238D01*
Y301862D01*
D02*
G37*
G36*
X427665Y298187D02*
Y296563D01*
X429290D01*
X429220Y296914D01*
X428738Y297636D01*
X428016Y298117D01*
X427665Y298187D01*
D02*
G37*
G36*
X426665D02*
X426314Y298117D01*
X425593Y297636D01*
X425111Y296914D01*
X425041Y296563D01*
X426665D01*
Y298187D01*
D02*
G37*
G36*
X429290Y295563D02*
X427665D01*
Y293939D01*
X428016Y294008D01*
X428738Y294491D01*
X429220Y295212D01*
X429290Y295563D01*
D02*
G37*
G36*
X426665D02*
X425041D01*
X425111Y295212D01*
X425593Y294491D01*
X426314Y294008D01*
X426665Y293939D01*
Y295563D01*
D02*
G37*
G36*
X456299Y314625D02*
X455448Y314456D01*
X454727Y313974D01*
X454245Y313253D01*
X454075Y312402D01*
X454245Y311551D01*
X454727Y310829D01*
X455448Y310347D01*
X456299Y310178D01*
X457150Y310347D01*
X457872Y310829D01*
X457900Y310872D01*
X462122D01*
X475042Y297953D01*
X474850Y297489D01*
X474714Y296457D01*
X474850Y295425D01*
X475248Y294463D01*
X475882Y293638D01*
X476707Y293004D01*
X477669Y292606D01*
X478701Y292470D01*
X479733Y292606D01*
X480694Y293004D01*
X481520Y293638D01*
X482154Y294463D01*
X482552Y295425D01*
X482688Y296457D01*
X482552Y297489D01*
X482154Y298450D01*
X481520Y299276D01*
X480694Y299909D01*
X479733Y300308D01*
X478701Y300444D01*
X477669Y300308D01*
X477205Y300115D01*
X463837Y313483D01*
X463341Y313814D01*
X462756Y313931D01*
X457900D01*
X457872Y313974D01*
X457150Y314456D01*
X456299Y314625D01*
D02*
G37*
G36*
X408701Y300444D02*
X407669Y300308D01*
X406707Y299909D01*
X405882Y299276D01*
X405248Y298450D01*
X404850Y297489D01*
X404714Y296457D01*
X404850Y295425D01*
X405248Y294463D01*
X405882Y293638D01*
X406707Y293004D01*
X407669Y292606D01*
X408701Y292470D01*
X409733Y292606D01*
X410694Y293004D01*
X411520Y293638D01*
X412153Y294463D01*
X412552Y295425D01*
X412688Y296457D01*
X412552Y297489D01*
X412153Y298450D01*
X411520Y299276D01*
X410694Y299909D01*
X409733Y300308D01*
X408701Y300444D01*
D02*
G37*
G36*
X394016D02*
X392984Y300308D01*
X392022Y299909D01*
X391197Y299276D01*
X390563Y298450D01*
X390165Y297489D01*
X390029Y296457D01*
X390165Y295425D01*
X390563Y294463D01*
X391197Y293638D01*
X392022Y293004D01*
X392984Y292606D01*
X394016Y292470D01*
X395048Y292606D01*
X396009Y293004D01*
X396835Y293638D01*
X397468Y294463D01*
X397867Y295425D01*
X398003Y296457D01*
X397867Y297489D01*
X397468Y298450D01*
X396835Y299276D01*
X396009Y299909D01*
X395048Y300308D01*
X394016Y300444D01*
D02*
G37*
G36*
X427665Y289132D02*
Y287508D01*
X429290D01*
X429220Y287859D01*
X428738Y288580D01*
X428016Y289062D01*
X427665Y289132D01*
D02*
G37*
G36*
X426665D02*
X426314Y289062D01*
X425593Y288580D01*
X425111Y287859D01*
X425041Y287508D01*
X426665D01*
Y289132D01*
D02*
G37*
G36*
X429290Y286508D02*
X427665D01*
Y284883D01*
X428016Y284953D01*
X428738Y285435D01*
X429220Y286157D01*
X429290Y286508D01*
D02*
G37*
G36*
X426665D02*
X425041D01*
X425111Y286157D01*
X425593Y285435D01*
X426314Y284953D01*
X426665Y284883D01*
Y286508D01*
D02*
G37*
G36*
X449213Y314625D02*
X448362Y314456D01*
X447640Y313974D01*
X447158Y313253D01*
X446989Y312402D01*
X447158Y311551D01*
X447640Y310829D01*
X448362Y310347D01*
X449213Y310178D01*
X449263Y310188D01*
X455415Y304037D01*
X455911Y303705D01*
X456496Y303589D01*
X459406D01*
X475042Y287953D01*
X474850Y287489D01*
X474714Y286457D01*
X474850Y285425D01*
X475248Y284463D01*
X475882Y283638D01*
X476707Y283004D01*
X477669Y282606D01*
X478701Y282470D01*
X479733Y282606D01*
X480694Y283004D01*
X481520Y283638D01*
X482154Y284463D01*
X482552Y285425D01*
X482688Y286457D01*
X482552Y287489D01*
X482154Y288450D01*
X481520Y289276D01*
X480694Y289909D01*
X479733Y290308D01*
X478701Y290444D01*
X477669Y290308D01*
X477205Y290115D01*
X461121Y306200D01*
X460625Y306531D01*
X460039Y306647D01*
X457130D01*
X451426Y312351D01*
X451436Y312402D01*
X451267Y313253D01*
X450785Y313974D01*
X450064Y314456D01*
X449213Y314625D01*
D02*
G37*
G36*
X408701Y290444D02*
X407669Y290308D01*
X406707Y289909D01*
X405882Y289276D01*
X405248Y288450D01*
X404850Y287489D01*
X404714Y286457D01*
X404850Y285425D01*
X405248Y284463D01*
X405882Y283638D01*
X406707Y283004D01*
X407669Y282606D01*
X408701Y282470D01*
X409733Y282606D01*
X410694Y283004D01*
X411520Y283638D01*
X412153Y284463D01*
X412552Y285425D01*
X412688Y286457D01*
X412552Y287489D01*
X412153Y288450D01*
X411520Y289276D01*
X410694Y289909D01*
X409733Y290308D01*
X408701Y290444D01*
D02*
G37*
G36*
X394016D02*
X392984Y290308D01*
X392022Y289909D01*
X391197Y289276D01*
X390563Y288450D01*
X390165Y287489D01*
X390029Y286457D01*
X390165Y285425D01*
X390563Y284463D01*
X391197Y283638D01*
X392022Y283004D01*
X392984Y282606D01*
X394016Y282470D01*
X395048Y282606D01*
X396009Y283004D01*
X396835Y283638D01*
X397468Y284463D01*
X397867Y285425D01*
X398003Y286457D01*
X397867Y287489D01*
X397468Y288450D01*
X396835Y289276D01*
X396009Y289909D01*
X395048Y290308D01*
X394016Y290444D01*
D02*
G37*
G36*
X485539Y280865D02*
Y279240D01*
X487164D01*
X487094Y279591D01*
X486612Y280313D01*
X485890Y280795D01*
X485539Y280865D01*
D02*
G37*
G36*
X484539D02*
X484188Y280795D01*
X483467Y280313D01*
X482985Y279591D01*
X482915Y279240D01*
X484539D01*
Y280865D01*
D02*
G37*
G36*
X418217D02*
Y279240D01*
X419841D01*
X419771Y279591D01*
X419289Y280313D01*
X418568Y280795D01*
X418217Y280865D01*
D02*
G37*
G36*
X417216D02*
X416865Y280795D01*
X416144Y280313D01*
X415662Y279591D01*
X415592Y279240D01*
X417216D01*
Y280865D01*
D02*
G37*
G36*
X401681Y280471D02*
Y278847D01*
X403305D01*
X403236Y279198D01*
X402754Y279919D01*
X402032Y280401D01*
X401681Y280471D01*
D02*
G37*
G36*
X400681D02*
X400330Y280401D01*
X399609Y279919D01*
X399127Y279198D01*
X399057Y278847D01*
X400681D01*
Y280471D01*
D02*
G37*
G36*
X487164Y278240D02*
X485539D01*
Y276616D01*
X485890Y276686D01*
X486612Y277168D01*
X487094Y277889D01*
X487164Y278240D01*
D02*
G37*
G36*
X484539D02*
X482915D01*
X482985Y277889D01*
X483467Y277168D01*
X484188Y276686D01*
X484539Y276616D01*
Y278240D01*
D02*
G37*
G36*
X419841D02*
X418217D01*
Y276616D01*
X418568Y276686D01*
X419289Y277168D01*
X419771Y277889D01*
X419841Y278240D01*
D02*
G37*
G36*
X417216D02*
X415592D01*
X415662Y277889D01*
X416144Y277168D01*
X416865Y276686D01*
X417216Y276616D01*
Y278240D01*
D02*
G37*
G36*
X403305Y277847D02*
X401681D01*
Y276222D01*
X402032Y276292D01*
X402754Y276774D01*
X403236Y277495D01*
X403305Y277847D01*
D02*
G37*
G36*
X400681D02*
X399057D01*
X399127Y277495D01*
X399609Y276774D01*
X400330Y276292D01*
X400681Y276222D01*
Y277847D01*
D02*
G37*
G36*
X508374Y261967D02*
Y260343D01*
X509998D01*
X509929Y260694D01*
X509446Y261415D01*
X508725Y261897D01*
X508374Y261967D01*
D02*
G37*
G36*
X507374D02*
X507023Y261897D01*
X506301Y261415D01*
X505820Y260694D01*
X505750Y260343D01*
X507374D01*
Y261967D01*
D02*
G37*
G36*
X509998Y259343D02*
X508374D01*
Y257718D01*
X508725Y257788D01*
X509446Y258270D01*
X509929Y258992D01*
X509998Y259343D01*
D02*
G37*
G36*
X507374D02*
X505750D01*
X505820Y258992D01*
X506301Y258270D01*
X507023Y257788D01*
X507374Y257718D01*
Y259343D01*
D02*
G37*
G36*
X539894Y259697D02*
X536473D01*
X536543Y259165D01*
X536941Y258203D01*
X537575Y257378D01*
X538400Y256744D01*
X539362Y256346D01*
X539894Y256276D01*
Y259697D01*
D02*
G37*
G36*
X544315D02*
X540894D01*
Y256276D01*
X541426Y256346D01*
X542387Y256744D01*
X543213Y257378D01*
X543846Y258203D01*
X544245Y259165D01*
X544315Y259697D01*
D02*
G37*
%LPD*%
D16*
X354331Y224803D02*
Y246063D01*
X568898Y135433D02*
X599606Y166142D01*
X394290Y135433D02*
X568898D01*
X354315Y175408D02*
X394290Y135433D01*
X354331Y246063D02*
Y341732D01*
X354315Y190551D02*
Y224787D01*
Y175408D02*
Y190551D01*
X354551Y190787D01*
X360630D01*
X354315Y224787D02*
X354331Y224803D01*
X360630Y348031D02*
X368110D01*
X354331Y341732D02*
X360630Y348031D01*
X368110D02*
X382953Y333189D01*
D17*
X354331Y246063D02*
X354331Y246063D01*
X456496Y305118D02*
X460039D01*
X449213Y312402D02*
X456496Y305118D01*
X460039D02*
X478701Y286457D01*
X462756Y312402D02*
X478701Y296457D01*
X456299Y312402D02*
X462756D01*
X445236Y260197D02*
X453110D01*
X457874Y264961D01*
X483189D01*
X487953Y260197D01*
X493504Y265748D01*
X554843D01*
X560394Y260197D01*
X543740Y253543D02*
X550394Y260197D01*
X483858Y253543D02*
X543740D01*
X477953Y259449D02*
X483858Y253543D01*
X477953Y259449D02*
Y260197D01*
X539370Y216535D02*
X586024D01*
X587008Y215551D01*
X562913Y272441D02*
X570000Y265354D01*
X589370D01*
X599528Y275512D01*
X599606D01*
D22*
X592520Y203543D02*
X599606Y210630D01*
X592520Y173228D02*
Y203543D01*
Y173228D02*
X599606Y166142D01*
D24*
X594095Y130512D02*
G03*
X606890Y143307I0J12795D01*
G01*
X349016D02*
G03*
X361811Y130512I12795J0D01*
G01*
Y352953D02*
G03*
X349016Y340158I0J-12795D01*
G01*
X606890Y340158D02*
G03*
X594095Y352953I-12795J0D01*
G01*
X349016Y143307D02*
Y340158D01*
X361811Y352953D02*
X594095D01*
X606890Y143307D02*
Y340158D01*
X361811Y130512D02*
X594095D01*
D25*
X478701Y296457D02*
D03*
X408701D02*
D03*
X478701Y306457D02*
D03*
Y286457D02*
D03*
X408701D02*
D03*
Y306457D02*
D03*
X405118Y260197D02*
D03*
Y190197D02*
D03*
X395118Y260197D02*
D03*
X415118D02*
D03*
Y190197D02*
D03*
X395118D02*
D03*
X477953Y260197D02*
D03*
Y190197D02*
D03*
X467953Y260197D02*
D03*
X487953D02*
D03*
Y190197D02*
D03*
X467953D02*
D03*
X550394Y260197D02*
D03*
Y190197D02*
D03*
X540394Y260197D02*
D03*
X560394D02*
D03*
Y190197D02*
D03*
X540394D02*
D03*
X360630Y190787D02*
D03*
Y180787D02*
D03*
X572953Y343189D02*
D03*
Y333189D02*
D03*
X562953Y343189D02*
D03*
Y333189D02*
D03*
X552953Y343189D02*
D03*
Y333189D02*
D03*
X542953Y343189D02*
D03*
Y333189D02*
D03*
X532953Y343189D02*
D03*
Y333189D02*
D03*
X522953Y343189D02*
D03*
Y333189D02*
D03*
X512953Y343189D02*
D03*
Y333189D02*
D03*
X502953Y343189D02*
D03*
Y333189D02*
D03*
X492953Y343189D02*
D03*
Y333189D02*
D03*
X482953Y343189D02*
D03*
Y333189D02*
D03*
X472953Y343189D02*
D03*
Y333189D02*
D03*
X462953Y343189D02*
D03*
Y333189D02*
D03*
X452953Y343189D02*
D03*
Y333189D02*
D03*
X442953Y343189D02*
D03*
Y333189D02*
D03*
X432953Y343189D02*
D03*
Y333189D02*
D03*
X422953Y343189D02*
D03*
Y333189D02*
D03*
X412953Y343189D02*
D03*
Y333189D02*
D03*
X402953Y343189D02*
D03*
Y333189D02*
D03*
X392953Y343189D02*
D03*
Y333189D02*
D03*
X382953Y343189D02*
D03*
X599606Y240630D02*
D03*
Y230630D02*
D03*
Y220630D02*
D03*
Y196142D02*
D03*
Y186142D02*
D03*
Y176142D02*
D03*
X394016Y286457D02*
D03*
Y296457D02*
D03*
X572913Y272441D02*
D03*
X562913D02*
D03*
X552913D02*
D03*
X572913Y284646D02*
D03*
X562913D02*
D03*
X552913D02*
D03*
X572913Y296850D02*
D03*
X562913D02*
D03*
X552913D02*
D03*
X572913Y309055D02*
D03*
X562913D02*
D03*
X552913D02*
D03*
X599606Y285512D02*
D03*
Y275512D02*
D03*
Y265512D02*
D03*
X572913Y321260D02*
D03*
X562913D02*
D03*
X552913D02*
D03*
X599606Y311181D02*
D03*
Y321181D02*
D03*
X560394Y175512D02*
D03*
X550394D02*
D03*
X487953D02*
D03*
X477953D02*
D03*
X415118D02*
D03*
X405118D02*
D03*
D26*
X360630Y200787D02*
D03*
X599606Y210630D02*
D03*
Y166142D02*
D03*
Y255512D02*
D03*
Y301181D02*
D03*
D27*
X382953Y333189D02*
D03*
X542913Y272441D02*
D03*
Y284646D02*
D03*
Y296850D02*
D03*
Y309055D02*
D03*
Y321260D02*
D03*
D28*
X363779Y338189D02*
D03*
X592126D02*
D03*
Y145276D02*
D03*
X363779D02*
D03*
D29*
X374016Y316457D02*
D03*
Y276457D02*
D03*
X530394Y155512D02*
D03*
X570394D02*
D03*
X457953D02*
D03*
X497953D02*
D03*
X385118D02*
D03*
X425118D02*
D03*
D30*
X385138Y230709D02*
D03*
X385138Y246063D02*
D03*
X365256D02*
D03*
X494095Y309449D02*
D03*
Y314567D02*
D03*
X449213Y312402D02*
D03*
X456299D02*
D03*
X418110Y312205D02*
D03*
X445256Y302362D02*
D03*
X470472Y312795D02*
D03*
X364016Y312992D02*
D03*
X462598Y271260D02*
D03*
X445256Y283465D02*
D03*
X524055Y311988D02*
D03*
X445236Y260197D02*
D03*
X539370Y216535D02*
D03*
X587008Y215551D02*
D03*
X530315Y283071D02*
D03*
X523228Y296850D02*
D03*
X515354Y322047D02*
D03*
X374410Y296457D02*
D03*
X396850Y312205D02*
D03*
X391732Y306693D02*
D03*
X401181Y278346D02*
D03*
X417717Y278740D02*
D03*
X427165Y287008D02*
D03*
Y296063D02*
D03*
X435827Y304724D02*
D03*
X485039Y278740D02*
D03*
X437402Y268898D02*
D03*
X366142Y221654D02*
D03*
X355906Y156299D02*
D03*
X377953Y137402D02*
D03*
X572047Y177165D02*
D03*
X405512Y154724D02*
D03*
X477559Y155905D02*
D03*
X551181D02*
D03*
X406693Y226378D02*
D03*
X479921Y224410D02*
D03*
X544882Y231496D02*
D03*
X523228Y222047D02*
D03*
X507874Y259842D02*
D03*
D31*
X354331Y246063D02*
X365256D01*
D32*
X535827Y328346D02*
X542913Y321260D01*
X467795Y328346D02*
X535827D01*
X462953Y333189D02*
X467795Y328346D01*
M02*
