G04 Layer_Color=8421504*
%FSLAX25Y25*%
%MOIN*%
G70*
G01*
G75*
%ADD10R,0.10039X0.09843*%
%ADD11R,0.03543X0.02756*%
%ADD12R,0.03937X0.09055*%
%ADD13O,0.02362X0.08661*%
%ADD14R,0.05512X0.04331*%
%ADD15R,0.03543X0.03150*%
%ADD24C,0.00965*%
D10*
X385138Y230709D02*
D03*
X365256D02*
D03*
X385138Y246063D02*
D03*
X365256D02*
D03*
D11*
X587008Y209646D02*
D03*
Y215551D02*
D03*
Y165157D02*
D03*
Y171063D02*
D03*
X456299Y318307D02*
D03*
Y312402D02*
D03*
X449213Y318307D02*
D03*
Y312402D02*
D03*
X560630Y238779D02*
D03*
Y244685D02*
D03*
X550787Y238779D02*
D03*
Y244685D02*
D03*
D12*
X514055Y311988D02*
D03*
X494055Y276988D02*
D03*
Y311988D02*
D03*
X524055Y276988D02*
D03*
Y311988D02*
D03*
D13*
X445256Y283465D02*
D03*
X450256D02*
D03*
X455256D02*
D03*
X460256D02*
D03*
X445256Y302362D02*
D03*
X450256D02*
D03*
X455256D02*
D03*
X460256D02*
D03*
D14*
X470472Y312795D02*
D03*
Y318701D02*
D03*
D15*
X418110Y306693D02*
D03*
Y312205D02*
D03*
D24*
X594095Y130512D02*
G03*
X606890Y143307I0J12795D01*
G01*
X349016D02*
G03*
X361811Y130512I12795J0D01*
G01*
Y352953D02*
G03*
X349016Y340158I0J-12795D01*
G01*
X606890Y340158D02*
G03*
X594095Y352953I-12795J0D01*
G01*
X349016Y143307D02*
Y340158D01*
X361811Y352953D02*
X594095D01*
X606890Y143307D02*
Y340158D01*
X361811Y130512D02*
X594095D01*
M02*
