G04 Layer_Physical_Order=1*
G04 Layer_Color=255*
%FSLAX25Y25*%
%MOIN*%
G70*
G01*
G75*
%ADD10R,0.10236X0.01102*%
%ADD11R,0.07874X0.02362*%
%ADD12R,0.10236X0.07874*%
%ADD13R,0.03543X0.03150*%
%ADD14C,0.01102*%
%ADD15C,0.02362*%
%ADD16C,0.00965*%
%ADD17C,0.01000*%
%ADD18R,0.05906X0.05906*%
%ADD19C,0.05906*%
%ADD20O,0.08268X0.05512*%
%ADD21O,0.11811X0.05512*%
%ADD22C,0.12205*%
%ADD23C,0.08268*%
%ADD24C,0.02362*%
D10*
X288583Y253937D02*
D03*
Y251969D02*
D03*
Y255906D02*
D03*
Y257874D02*
D03*
Y250000D02*
D03*
Y240158D02*
D03*
Y242126D02*
D03*
Y244094D02*
D03*
Y246063D02*
D03*
Y248031D02*
D03*
Y238189D02*
D03*
Y236221D02*
D03*
Y269685D02*
D03*
Y263779D02*
D03*
Y261811D02*
D03*
Y271654D02*
D03*
Y259842D02*
D03*
Y267717D02*
D03*
Y265748D02*
D03*
D11*
X320866Y226378D02*
D03*
Y234252D02*
D03*
Y238189D02*
D03*
Y242126D02*
D03*
Y246063D02*
D03*
Y250000D02*
D03*
Y230315D02*
D03*
Y261811D02*
D03*
Y281496D02*
D03*
Y277559D02*
D03*
Y273622D02*
D03*
Y269685D02*
D03*
Y265748D02*
D03*
Y257874D02*
D03*
Y253937D02*
D03*
D12*
X329528Y292520D02*
D03*
Y215354D02*
D03*
D13*
X294094Y211811D02*
D03*
Y217323D02*
D03*
X279134Y211811D02*
D03*
Y217323D02*
D03*
D14*
X292441Y295669D02*
X295276Y292835D01*
X288583Y267717D02*
X297244D01*
X281496Y238189D02*
X288583D01*
X281496Y244094D02*
X288583D01*
X281496Y250000D02*
X288583D01*
X281496Y255906D02*
X288583D01*
X275984Y269685D02*
X288583D01*
X295276Y278346D02*
Y292835D01*
X288583Y271654D02*
X295276Y278346D01*
X312205Y230315D02*
X320866D01*
X311551Y230968D02*
X312205Y230315D01*
X277476Y230968D02*
X311551D01*
X271260Y237184D02*
X277476Y230968D01*
X271260Y237184D02*
Y262205D01*
X274803Y265748D01*
X288583D01*
X275984Y263779D02*
X288583D01*
X273622Y261417D02*
X275984Y263779D01*
X273622Y237795D02*
Y261417D01*
Y237795D02*
X278346Y233071D01*
X311024D01*
X312205Y234252D01*
X320866D01*
X316929Y277559D02*
X320866D01*
X297244Y257874D02*
X316929Y277559D01*
X288583Y257874D02*
X297244D01*
X317323Y273622D02*
X320866D01*
X297638Y253937D02*
X317323Y273622D01*
X288583Y253937D02*
X297638D01*
X313386Y265748D02*
X320866D01*
X299606Y251969D02*
X313386Y265748D01*
X288583Y251969D02*
X299606D01*
X313386Y261811D02*
X320866D01*
X299606Y248031D02*
X313386Y261811D01*
X288583Y248031D02*
X299606D01*
X309449Y253937D02*
X320866D01*
X301575Y246063D02*
X309449Y253937D01*
X288583Y246063D02*
X301575D01*
X309449Y250000D02*
X320866D01*
X301575Y242126D02*
X309449Y250000D01*
X288583Y242126D02*
X301575D01*
X288583Y240158D02*
X306299D01*
X308268Y242126D01*
X320866D01*
X310236Y238189D02*
X320866D01*
X308268Y236221D02*
X310236Y238189D01*
X288583Y236221D02*
X308268D01*
D15*
X304331Y226378D02*
X320866D01*
X296063Y218110D02*
X304331Y226378D01*
X279921Y218110D02*
X296063D01*
X263779Y234252D02*
X279921Y218110D01*
X263779Y234252D02*
Y264567D01*
X272441Y273228D01*
Y295669D01*
Y273228D02*
X275984Y269685D01*
D16*
X358268Y204724D02*
G03*
X362205Y208661I0J3937D01*
G01*
X248031D02*
G03*
X251969Y204724I3937J0D01*
G01*
X251969Y303150D02*
G03*
X248031Y299213I0J-3937D01*
G01*
X362205Y299213D02*
G03*
X358268Y303150I-3937J0D01*
G01*
D17*
X248031Y208661D02*
Y299213D01*
X251969Y303150D02*
X358268D01*
X251969Y204724D02*
X358268D01*
X362205Y208661D02*
Y299213D01*
D18*
X272441Y295669D02*
D03*
D19*
X282441D02*
D03*
X292441D02*
D03*
D20*
X262126Y225394D02*
D03*
Y282480D02*
D03*
D21*
X285591Y225394D02*
D03*
Y282480D02*
D03*
D22*
X257874Y212205D02*
D03*
Y295669D02*
D03*
D23*
X354331Y212598D02*
D03*
Y295276D02*
D03*
X305118Y212598D02*
D03*
Y295276D02*
D03*
D24*
X294094Y211811D02*
D03*
X279134D02*
D03*
X297244Y267717D02*
D03*
X281496Y238189D02*
D03*
Y244094D02*
D03*
Y250000D02*
D03*
Y255906D02*
D03*
X320866Y226378D02*
D03*
Y230315D02*
D03*
Y234252D02*
D03*
Y238189D02*
D03*
Y242126D02*
D03*
Y250000D02*
D03*
Y253937D02*
D03*
Y261811D02*
D03*
Y265748D02*
D03*
Y273622D02*
D03*
Y277559D02*
D03*
Y246063D02*
D03*
Y257874D02*
D03*
Y269685D02*
D03*
Y281496D02*
D03*
M02*
