G04 Layer_Color=8421504*
%FSLAX25Y25*%
%MOIN*%
G70*
G01*
G75*
%ADD10R,0.10236X0.01102*%
%ADD11R,0.07874X0.02362*%
%ADD12R,0.10236X0.07874*%
%ADD13R,0.03543X0.03150*%
%ADD16C,0.00965*%
%ADD17C,0.01000*%
D10*
X288583Y253937D02*
D03*
Y251969D02*
D03*
Y255906D02*
D03*
Y257874D02*
D03*
Y250000D02*
D03*
Y240158D02*
D03*
Y242126D02*
D03*
Y244094D02*
D03*
Y246063D02*
D03*
Y248031D02*
D03*
Y238189D02*
D03*
Y236221D02*
D03*
Y269685D02*
D03*
Y263779D02*
D03*
Y261811D02*
D03*
Y271654D02*
D03*
Y259842D02*
D03*
Y267717D02*
D03*
Y265748D02*
D03*
D11*
X320866Y226378D02*
D03*
Y234252D02*
D03*
Y238189D02*
D03*
Y242126D02*
D03*
Y246063D02*
D03*
Y250000D02*
D03*
Y230315D02*
D03*
Y261811D02*
D03*
Y281496D02*
D03*
Y277559D02*
D03*
Y273622D02*
D03*
Y269685D02*
D03*
Y265748D02*
D03*
Y257874D02*
D03*
Y253937D02*
D03*
D12*
X329528Y292520D02*
D03*
Y215354D02*
D03*
D13*
X294094Y211811D02*
D03*
Y217323D02*
D03*
X279134Y211811D02*
D03*
Y217323D02*
D03*
D16*
X358268Y204724D02*
G03*
X362205Y208661I0J3937D01*
G01*
X248031D02*
G03*
X251969Y204724I3937J0D01*
G01*
X251969Y303150D02*
G03*
X248031Y299213I0J-3937D01*
G01*
X362205Y299213D02*
G03*
X358268Y303150I-3937J0D01*
G01*
D17*
X248031Y208661D02*
Y299213D01*
X251969Y303150D02*
X358268D01*
X251969Y204724D02*
X358268D01*
X362205Y208661D02*
Y299213D01*
M02*
