M48
;Layer_Color=9474304
;FILE_FORMAT=2:5
INCH,LZ
;TYPE=PLATED
T1F00S00C0.01185
T3F00S00C0.03543
T4F00S00C0.07874
T5F00S00C0.11811
%
T01
X0320866Y0226378
Y0230315
Y0234252
Y0238189
Y0242126
Y0246063
Y025
Y0253937
Y0257874
Y0261811
Y0265748
Y0269685
Y0273622
Y0277559
Y0281496
X0297244Y0267717
X0281496Y0255906
Y025
Y0244094
Y0238189
X0279134Y0211811
X0294094
T03
X0272441Y0295669
X0282441
X0292441
T04
X0354331Y0212598
Y0295276
X0305118
Y0212598
T05
X0257874Y0212205
Y0295669
M30
