G04 Layer_Color=16711935*
%FSLAX25Y25*%
%MOIN*%
G70*
G01*
G75*
%ADD16C,0.00965*%
%ADD17C,0.01000*%
%ADD28R,0.08674X0.03162*%
%ADD29R,0.11036X0.08674*%
%ADD31R,0.06706X0.06706*%
%ADD32C,0.06706*%
%ADD33O,0.09068X0.06312*%
%ADD34O,0.12611X0.06312*%
%ADD35C,0.13005*%
%ADD36C,0.09068*%
%ADD37C,0.03162*%
D16*
X358268Y204724D02*
G03*
X362205Y208661I0J3937D01*
G01*
X248031D02*
G03*
X251969Y204724I3937J0D01*
G01*
X251969Y303150D02*
G03*
X248031Y299213I0J-3937D01*
G01*
X362205Y299213D02*
G03*
X358268Y303150I-3937J0D01*
G01*
D17*
X248031Y208661D02*
Y299213D01*
X251969Y303150D02*
X358268D01*
X251969Y204724D02*
X358268D01*
X362205Y208661D02*
Y299213D01*
D28*
X320866Y226378D02*
D03*
Y234252D02*
D03*
Y238189D02*
D03*
Y242126D02*
D03*
Y246063D02*
D03*
Y250000D02*
D03*
Y230315D02*
D03*
Y261811D02*
D03*
Y281496D02*
D03*
Y277559D02*
D03*
Y273622D02*
D03*
Y269685D02*
D03*
Y265748D02*
D03*
Y257874D02*
D03*
Y253937D02*
D03*
D29*
X316142Y292520D02*
D03*
Y215354D02*
D03*
D31*
X272441Y295669D02*
D03*
D32*
X282441D02*
D03*
X292441D02*
D03*
D33*
X262126Y225394D02*
D03*
Y282480D02*
D03*
D34*
X285591Y225394D02*
D03*
Y282480D02*
D03*
D35*
X257874Y212205D02*
D03*
Y295669D02*
D03*
D36*
X354331Y212598D02*
D03*
Y295276D02*
D03*
X305118Y212598D02*
D03*
Y295276D02*
D03*
D37*
X294094Y211811D02*
D03*
X279134D02*
D03*
X297244Y267717D02*
D03*
X281496Y238189D02*
D03*
Y244094D02*
D03*
Y250000D02*
D03*
Y255906D02*
D03*
X320866Y226378D02*
D03*
Y230315D02*
D03*
Y234252D02*
D03*
Y238189D02*
D03*
Y242126D02*
D03*
Y250000D02*
D03*
Y253937D02*
D03*
Y261811D02*
D03*
Y265748D02*
D03*
Y273622D02*
D03*
Y277559D02*
D03*
Y246063D02*
D03*
Y257874D02*
D03*
Y269685D02*
D03*
Y281496D02*
D03*
M02*
