G04 Layer_Color=32896*
%FSLAX25Y25*%
%MOIN*%
G70*
G01*
G75*
%ADD16C,0.00965*%
%ADD17C,0.01000*%
%ADD26C,0.00512*%
%ADD38C,0.01181*%
%ADD39C,0.01969*%
%ADD40C,0.01575*%
%ADD41C,0.03937*%
G36*
X339249Y285816D02*
X339336Y285805D01*
X339435Y285772D01*
X339544Y285739D01*
X339653Y285685D01*
X339763Y285619D01*
X339774Y285608D01*
X339795Y285586D01*
X339828Y285554D01*
X339861Y285499D01*
X339894Y285422D01*
X339927Y285335D01*
X339938Y285226D01*
X339927Y285094D01*
Y285084D01*
Y285051D01*
Y285007D01*
X339916Y284941D01*
Y284854D01*
Y284756D01*
X339905Y284646D01*
Y284515D01*
Y284373D01*
X339894Y284209D01*
Y284045D01*
Y283870D01*
X339883Y283477D01*
Y283062D01*
Y283051D01*
Y283007D01*
Y282952D01*
Y282876D01*
Y282777D01*
Y282679D01*
Y282559D01*
Y282428D01*
X339894Y282154D01*
X339905Y281881D01*
X339916Y281619D01*
Y281509D01*
X339927Y281400D01*
Y281378D01*
Y281334D01*
Y281258D01*
X339905Y281160D01*
X339883Y281050D01*
X339839Y280952D01*
X339774Y280843D01*
X339686Y280755D01*
X339675Y280744D01*
X339643Y280722D01*
X339588Y280701D01*
X339522Y280668D01*
X339435Y280646D01*
X339336Y280613D01*
X339216Y280602D01*
X339041D01*
X338976Y280613D01*
X338888Y280635D01*
X338801Y280668D01*
X338703Y280712D01*
X338604Y280766D01*
X338506Y280843D01*
X338495Y280854D01*
X338473Y280886D01*
X338429Y280930D01*
X338396Y280996D01*
X338353Y281072D01*
X338331Y281171D01*
X338320Y281280D01*
X338331Y281400D01*
Y281411D01*
Y281433D01*
X338342Y281466D01*
Y281520D01*
X338353Y281641D01*
X338364Y281804D01*
X338375Y281979D01*
X338386Y282154D01*
Y282329D01*
X338375Y282482D01*
Y282504D01*
X338364Y282548D01*
Y282613D01*
X338353Y282690D01*
X338331Y282766D01*
X338309Y282832D01*
X338276Y282876D01*
X338243Y282897D01*
X336954D01*
X336965Y282887D01*
X337008Y282865D01*
X337074Y282821D01*
X337161Y282745D01*
X337249Y282646D01*
X337347Y282515D01*
X337435Y282340D01*
X337478Y282231D01*
X337522Y282121D01*
Y282111D01*
X337533Y282089D01*
X337544Y282056D01*
X337555Y282012D01*
X337577Y281947D01*
X337598Y281881D01*
X337631Y281717D01*
X337675Y281520D01*
X337719Y281291D01*
X337741Y281061D01*
X337752Y280810D01*
Y280788D01*
Y280733D01*
X337741Y280635D01*
X337730Y280515D01*
X337708Y280362D01*
X337675Y280187D01*
X337631Y279990D01*
X337577Y279772D01*
X337500Y279553D01*
X337413Y279312D01*
X337303Y279072D01*
X337161Y278832D01*
X337008Y278602D01*
X336823Y278362D01*
X336604Y278143D01*
X336364Y277935D01*
X336352Y277924D01*
X336309Y277892D01*
X336254Y277848D01*
X336167Y277793D01*
X336057Y277717D01*
X335915Y277640D01*
X335762Y277553D01*
X335587Y277465D01*
X335391Y277389D01*
X335172Y277301D01*
X334932Y277225D01*
X334680Y277148D01*
X334407Y277094D01*
X334112Y277050D01*
X333806Y277017D01*
X333478Y277006D01*
X333401D01*
X333303Y277017D01*
X333183D01*
X333030Y277039D01*
X332844Y277050D01*
X332647Y277083D01*
X332440Y277127D01*
X332210Y277170D01*
X331980Y277236D01*
X331740Y277312D01*
X331500Y277400D01*
X331259Y277509D01*
X331019Y277629D01*
X330789Y277771D01*
X330581Y277935D01*
X330571Y277946D01*
X330516Y277990D01*
X330450Y278045D01*
X330363Y278132D01*
X330254Y278241D01*
X330133Y278373D01*
X330002Y278525D01*
X329871Y278700D01*
X329740Y278886D01*
X329620Y279105D01*
X329499Y279345D01*
X329390Y279597D01*
X329303Y279870D01*
X329237Y280165D01*
X329182Y280482D01*
X329171Y280810D01*
Y280821D01*
Y280832D01*
Y280865D01*
Y280908D01*
X329182Y281018D01*
X329193Y281160D01*
X329215Y281334D01*
X329237Y281520D01*
X329281Y281728D01*
X329335Y281947D01*
Y281958D01*
X329346Y281990D01*
X329368Y282045D01*
X329390Y282121D01*
X329423Y282220D01*
X329467Y282340D01*
X329521Y282471D01*
X329587Y282635D01*
Y282646D01*
X329609Y282679D01*
X329620Y282723D01*
X329642Y282777D01*
X329685Y282876D01*
X329696Y282919D01*
X329702Y282930D01*
X329696D01*
X329674Y282919D01*
X329642Y282909D01*
X329598Y282897D01*
X329543Y282887D01*
X329456Y282876D01*
Y282887D01*
Y282909D01*
Y282952D01*
X329467Y283007D01*
Y283083D01*
X329478Y283160D01*
Y283346D01*
X329488Y283553D01*
X329499Y283783D01*
X329510Y284001D01*
Y284198D01*
Y284220D01*
Y284286D01*
Y284373D01*
X329499Y284493D01*
Y284635D01*
X329488Y284788D01*
X329467Y285105D01*
Y285116D01*
Y285160D01*
Y285226D01*
X329478Y285302D01*
X329499Y285390D01*
X329532Y285477D01*
X329587Y285564D01*
X329663Y285630D01*
X329674Y285641D01*
X329718Y285663D01*
X329784Y285696D01*
X329860Y285728D01*
X329959Y285761D01*
X330068Y285794D01*
X330188Y285816D01*
X330308Y285827D01*
X330363D01*
X330429Y285816D01*
X330505Y285805D01*
X330680Y285761D01*
X330767Y285728D01*
X330844Y285685D01*
X330855Y285674D01*
X330888Y285641D01*
X330931Y285597D01*
X330975Y285521D01*
X331030Y285444D01*
X331062Y285346D01*
X331084Y285226D01*
X331073Y285105D01*
Y285094D01*
Y285051D01*
Y284996D01*
Y284930D01*
X331084Y284788D01*
X331095Y284723D01*
X331106Y284668D01*
Y284657D01*
X331128Y284635D01*
X331172Y284613D01*
X331237Y284603D01*
X338189D01*
X338243Y284613D01*
X338309Y284646D01*
X338331Y284679D01*
X338353Y284712D01*
X338364Y284734D01*
Y284767D01*
X338375Y284799D01*
Y284854D01*
Y284920D01*
Y285007D01*
X338364Y285105D01*
Y285116D01*
X338353Y285160D01*
Y285226D01*
X338364Y285313D01*
X338386Y285401D01*
X338429Y285499D01*
X338495Y285597D01*
X338593Y285685D01*
X338604Y285696D01*
X338626Y285707D01*
X338670Y285728D01*
X338735Y285750D01*
X338812Y285783D01*
X338899Y285805D01*
X339008Y285816D01*
X339129Y285827D01*
X339183D01*
X339249Y285816D01*
D02*
G37*
G36*
X337107Y275695D02*
X337183Y275684D01*
X337369Y275651D01*
X337456Y275618D01*
X337544Y275574D01*
X337555Y275564D01*
X337588Y275531D01*
X337642Y275487D01*
X337697Y275411D01*
X337741Y275323D01*
X337784Y275225D01*
X337817Y275104D01*
Y274973D01*
Y274962D01*
Y274940D01*
X337806Y274897D01*
Y274842D01*
X337795Y274766D01*
Y274678D01*
X337784Y274569D01*
X337773Y274427D01*
Y274285D01*
X337762Y274110D01*
Y273913D01*
X337752Y273705D01*
Y273465D01*
X337741Y273203D01*
Y272918D01*
Y272612D01*
Y272590D01*
Y272536D01*
Y272448D01*
Y272328D01*
Y272186D01*
Y272022D01*
X337752Y271836D01*
Y271629D01*
Y271421D01*
X337762Y271192D01*
X337773Y270732D01*
X337795Y270284D01*
X337806Y270066D01*
X337817Y269869D01*
Y269847D01*
Y269803D01*
Y269727D01*
X337795Y269639D01*
X337773Y269530D01*
X337730Y269421D01*
X337653Y269311D01*
X337566Y269213D01*
X337555Y269202D01*
X337522Y269180D01*
X337478Y269159D01*
X337413Y269126D01*
X337336Y269093D01*
X337238Y269060D01*
X337128Y269049D01*
X336997Y269038D01*
X336943D01*
X336877Y269049D01*
X336801Y269060D01*
X336713Y269082D01*
X336626Y269115D01*
X336538Y269159D01*
X336451Y269213D01*
X336440Y269224D01*
X336407Y269257D01*
X336364Y269311D01*
X336320Y269388D01*
X336276Y269486D01*
X336243Y269596D01*
X336221Y269716D01*
X336232Y269858D01*
Y269869D01*
Y269891D01*
X336243Y269935D01*
Y269989D01*
X336254Y270055D01*
Y270131D01*
X336276Y270306D01*
X336287Y270492D01*
X336298Y270678D01*
X336309Y270864D01*
Y270940D01*
Y271006D01*
Y271028D01*
Y271071D01*
X336298Y271137D01*
X336287Y271213D01*
X336276Y271301D01*
X336254Y271366D01*
X336232Y271410D01*
X336199Y271432D01*
X326406D01*
Y271443D01*
Y271487D01*
X326417Y271541D01*
Y271629D01*
X326428Y271727D01*
X326439Y271836D01*
X326450Y271968D01*
Y272110D01*
X326472Y272416D01*
X326494Y272733D01*
X326505Y273060D01*
Y273367D01*
Y273377D01*
Y273399D01*
Y273443D01*
Y273498D01*
Y273563D01*
Y273640D01*
X326494Y273815D01*
X326483Y274011D01*
X326472Y274219D01*
X326450Y274438D01*
X326417Y274635D01*
Y274645D01*
Y274689D01*
Y274766D01*
X326428Y274842D01*
X326450Y274940D01*
X326483Y275039D01*
X326548Y275137D01*
X326636Y275225D01*
X326647Y275236D01*
X326679Y275247D01*
X326734Y275279D01*
X326800Y275312D01*
X326887Y275345D01*
X326986Y275367D01*
X327095Y275389D01*
X327215Y275400D01*
X327270D01*
X327335Y275389D01*
X327423Y275378D01*
X327510Y275356D01*
X327608Y275323D01*
X327707Y275279D01*
X327805Y275225D01*
X327816Y275214D01*
X327849Y275181D01*
X327893Y275137D01*
X327936Y275061D01*
X327980Y274984D01*
X328013Y274875D01*
X328035Y274766D01*
X328024Y274635D01*
Y274623D01*
Y274602D01*
X328013Y274569D01*
Y274525D01*
X327991Y274416D01*
X327980Y274263D01*
X327969Y274099D01*
X327958Y273924D01*
X327947Y273760D01*
X327958Y273596D01*
Y273574D01*
Y273520D01*
X327969Y273454D01*
X327980Y273367D01*
X328002Y273279D01*
X328024Y273214D01*
X328057Y273159D01*
X328089Y273137D01*
X336199D01*
X336210Y273148D01*
X336221Y273170D01*
X336243Y273214D01*
X336254Y273301D01*
X336265Y273345D01*
X336276Y273410D01*
X336287Y273487D01*
X336298Y273574D01*
Y273673D01*
X336309Y273793D01*
Y273804D01*
Y273815D01*
Y273848D01*
Y273891D01*
Y274001D01*
X336298Y274153D01*
Y274328D01*
X336276Y274525D01*
X336265Y274744D01*
X336232Y274973D01*
Y274984D01*
X336221Y275028D01*
Y275104D01*
X336232Y275181D01*
X336254Y275279D01*
X336287Y275378D01*
X336352Y275476D01*
X336440Y275564D01*
X336451Y275574D01*
X336473Y275585D01*
X336527Y275607D01*
X336582Y275629D01*
X336669Y275662D01*
X336757Y275684D01*
X336866Y275695D01*
X336986Y275706D01*
X337041D01*
X337107Y275695D01*
D02*
G37*
G36*
X335369Y267814D02*
X335489Y267803D01*
X335620Y267781D01*
X335762Y267759D01*
X335926Y267727D01*
X336090Y267694D01*
X336265Y267639D01*
X336440Y267574D01*
X336626Y267497D01*
X336801Y267410D01*
X336965Y267311D01*
X337128Y267191D01*
X337282Y267060D01*
X337293Y267049D01*
X337314Y267027D01*
X337358Y266972D01*
X337402Y266907D01*
X337467Y266830D01*
X337533Y266732D01*
X337598Y266612D01*
X337675Y266481D01*
X337752Y266328D01*
X337817Y266153D01*
X337883Y265967D01*
X337948Y265759D01*
X337992Y265541D01*
X338036Y265311D01*
X338058Y265060D01*
X338069Y264787D01*
Y264776D01*
Y264743D01*
Y264699D01*
Y264633D01*
X338058Y264546D01*
Y264459D01*
X338047Y264349D01*
X338036Y264229D01*
X338014Y263978D01*
X337981Y263693D01*
X337926Y263398D01*
X337850Y263114D01*
Y263103D01*
X337839Y263092D01*
X337817Y263016D01*
X337784Y262928D01*
X337741Y262808D01*
X337675Y262688D01*
X337610Y262579D01*
X337522Y262502D01*
X337478Y262469D01*
X337424Y262448D01*
X337445D01*
X337249Y262163D01*
X337347Y262174D01*
X337358D01*
X337391Y262163D01*
X337424Y262141D01*
X337478Y262130D01*
X337577Y262076D01*
X337631Y262054D01*
X337664Y262021D01*
X337675Y262010D01*
X337686Y261988D01*
X337719Y261956D01*
X337741Y261912D01*
X337773Y261846D01*
X337806Y261770D01*
X337817Y261671D01*
X337828Y261573D01*
Y261562D01*
Y261540D01*
Y261519D01*
X337817Y261475D01*
Y261365D01*
X337806Y261223D01*
Y261070D01*
X337795Y260906D01*
X337784Y260753D01*
Y260611D01*
Y260600D01*
Y260589D01*
Y260524D01*
Y260436D01*
Y260316D01*
X337795Y260185D01*
X337806Y260054D01*
X337817Y259934D01*
X337828Y259813D01*
Y259802D01*
Y259759D01*
X337817Y259704D01*
X337806Y259628D01*
X337773Y259551D01*
X337741Y259464D01*
X337675Y259376D01*
X337588Y259300D01*
X337577Y259289D01*
X337544Y259278D01*
X337500Y259256D01*
X337435Y259234D01*
X337347Y259212D01*
X337260Y259190D01*
X337150Y259169D01*
X336976D01*
X336921Y259179D01*
X336844D01*
X336669Y259223D01*
X336582Y259245D01*
X336495Y259289D01*
X336484Y259300D01*
X336451Y259321D01*
X336396Y259365D01*
X336342Y259431D01*
X336298Y259507D01*
X336254Y259595D01*
X336221Y259693D01*
Y259802D01*
Y259824D01*
X336232Y259868D01*
X336243Y259945D01*
X336265Y260032D01*
X336276Y260130D01*
X336287Y260218D01*
Y260294D01*
Y260349D01*
Y260360D01*
X336276Y260371D01*
X336243Y260425D01*
X336221Y260458D01*
X336178Y260480D01*
X336123Y260491D01*
X336057Y260502D01*
X331948D01*
X331871Y260513D01*
X331762Y260524D01*
X331642Y260535D01*
X331500Y260567D01*
X331336Y260600D01*
X331161Y260655D01*
X330986Y260721D01*
X330800Y260797D01*
X330603Y260895D01*
X330417Y261016D01*
X330232Y261158D01*
X330057Y261311D01*
X329882Y261497D01*
X329729Y261715D01*
X329718Y261726D01*
X329707Y261759D01*
X329674Y261803D01*
X329642Y261868D01*
X329598Y261956D01*
X329554Y262054D01*
X329499Y262163D01*
X329445Y262295D01*
X329401Y262448D01*
X329346Y262600D01*
X329303Y262775D01*
X329259Y262950D01*
X329226Y263147D01*
X329193Y263355D01*
X329182Y263573D01*
X329171Y263792D01*
Y263803D01*
Y263836D01*
Y263890D01*
Y263956D01*
X329182Y264043D01*
Y264153D01*
X329193Y264262D01*
X329204Y264393D01*
X329226Y264677D01*
X329270Y264983D01*
X329335Y265311D01*
X329412Y265628D01*
Y265639D01*
X329423Y265672D01*
X329434Y265716D01*
X329456Y265781D01*
X329488Y265858D01*
X329521Y265956D01*
X329565Y266054D01*
X329609Y266175D01*
X329718Y266415D01*
X329849Y266688D01*
X330002Y266951D01*
X330188Y267213D01*
X330199Y267224D01*
X330232Y267268D01*
X330286Y267322D01*
X330352Y267377D01*
X330439Y267442D01*
X330538Y267508D01*
X330658Y267552D01*
X330789Y267574D01*
X330909D01*
X330986Y267563D01*
X331084Y267541D01*
X331205Y267508D01*
X331314Y267464D01*
X331445Y267399D01*
X331456Y267388D01*
X331478Y267377D01*
X331522Y267344D01*
X331565Y267300D01*
X331620Y267246D01*
X331663Y267180D01*
X331707Y267093D01*
X331740Y267005D01*
Y266984D01*
Y266940D01*
Y266863D01*
X331729Y266776D01*
X331707Y266656D01*
X331653Y266535D01*
X331576Y266393D01*
X331467Y266251D01*
X331456Y266229D01*
X331412Y266164D01*
X331358Y266065D01*
X331292Y265923D01*
X331205Y265759D01*
X331117Y265552D01*
X331030Y265311D01*
X330942Y265049D01*
Y265038D01*
X330931Y265027D01*
Y264994D01*
X330920Y264950D01*
X330888Y264841D01*
X330855Y264688D01*
X330833Y264502D01*
X330800Y264295D01*
X330789Y264054D01*
X330778Y263792D01*
Y263781D01*
Y263759D01*
Y263726D01*
X330789Y263672D01*
X330800Y263606D01*
X330811Y263541D01*
X330844Y263366D01*
X330909Y263169D01*
X331008Y262950D01*
X331073Y262841D01*
X331150Y262732D01*
X331237Y262622D01*
X331336Y262513D01*
X331358Y262502D01*
X331401Y262469D01*
X331489Y262415D01*
X331598Y262360D01*
X331718Y262305D01*
X331860Y262251D01*
X332024Y262218D01*
X332188Y262207D01*
Y262218D01*
X332177Y262251D01*
X332166Y262305D01*
X332144Y262393D01*
X332134Y262513D01*
X332112Y262655D01*
X332101Y262841D01*
X332090Y263071D01*
Y263081D01*
Y263103D01*
Y263136D01*
X332079Y263180D01*
Y263289D01*
X332068Y263431D01*
X332057Y263595D01*
Y263748D01*
X332046Y263912D01*
Y264043D01*
Y264065D01*
Y264120D01*
X332057Y264207D01*
Y264328D01*
X332079Y264470D01*
X332090Y264644D01*
X332123Y264830D01*
X332155Y265038D01*
X332210Y265246D01*
X332265Y265475D01*
X332341Y265705D01*
X332429Y265934D01*
X332538Y266175D01*
X332658Y266393D01*
X332800Y266612D01*
X332964Y266820D01*
X332975Y266830D01*
X332997Y266863D01*
X333041Y266907D01*
X333095Y266972D01*
X333172Y267049D01*
X333259Y267137D01*
X333369Y267224D01*
X333500Y267322D01*
X333642Y267421D01*
X333795Y267508D01*
X333981Y267596D01*
X334177Y267672D01*
X334396Y267727D01*
X334626Y267781D01*
X334877Y267814D01*
X335150Y267825D01*
X335281D01*
X335369Y267814D01*
D02*
G37*
G36*
X337096Y258545D02*
X337172D01*
X337358Y258513D01*
X337445Y258491D01*
X337533Y258458D01*
X337544Y258447D01*
X337577Y258425D01*
X337620Y258382D01*
X337675Y258327D01*
X337730Y258261D01*
X337762Y258174D01*
X337795Y258075D01*
Y257966D01*
Y257955D01*
Y257923D01*
Y257879D01*
X337784Y257824D01*
Y257748D01*
Y257660D01*
X337773Y257453D01*
Y257223D01*
X337762Y256982D01*
Y256731D01*
Y256491D01*
Y256480D01*
Y256458D01*
Y256425D01*
Y256381D01*
Y256261D01*
Y256108D01*
X337773Y255922D01*
Y255715D01*
X337784Y255485D01*
X337795Y255256D01*
Y255245D01*
Y255201D01*
Y255146D01*
X337784Y255070D01*
X337762Y254993D01*
X337719Y254906D01*
X337653Y254829D01*
X337566Y254764D01*
X337555Y254753D01*
X337522Y254742D01*
X337478Y254720D01*
X337413Y254687D01*
X337325Y254654D01*
X337227Y254633D01*
X337118Y254622D01*
X336997Y254611D01*
X336943D01*
X336877Y254622D01*
X336790Y254633D01*
X336604Y254676D01*
X336506Y254709D01*
X336418Y254764D01*
X336407Y254775D01*
X336374Y254797D01*
X336331Y254840D01*
X336287Y254895D01*
X336243Y254960D01*
X336210Y255059D01*
X336199Y255157D01*
X336210Y255277D01*
Y255288D01*
X336221Y255310D01*
X336232Y255354D01*
X336243Y255409D01*
X336265Y255507D01*
Y255562D01*
Y255605D01*
Y255616D01*
X336243Y255649D01*
X336210Y255682D01*
X336167Y255693D01*
X331642D01*
X331620Y255682D01*
X331576Y255638D01*
X331510Y255562D01*
X331423Y255474D01*
X331325Y255365D01*
X331226Y255245D01*
X331139Y255103D01*
X331051Y254949D01*
Y254939D01*
X331041Y254917D01*
X331030Y254884D01*
X331008Y254840D01*
X330986Y254786D01*
X330964Y254709D01*
X330909Y254545D01*
X330866Y254348D01*
X330822Y254119D01*
X330789Y253878D01*
X330778Y253616D01*
Y253605D01*
Y253594D01*
Y253561D01*
Y253518D01*
X330789Y253408D01*
X330811Y253277D01*
X330833Y253146D01*
X330877Y252993D01*
X330931Y252862D01*
X331008Y252753D01*
X331019Y252742D01*
X331051Y252709D01*
X331117Y252665D01*
X331205Y252610D01*
X331314Y252556D01*
X331456Y252512D01*
X331631Y252479D01*
X331838Y252468D01*
X336199D01*
X336221Y252490D01*
X336232Y252512D01*
Y252523D01*
Y252567D01*
Y252610D01*
Y252654D01*
X336221Y252720D01*
X336210Y252796D01*
Y252807D01*
X336199Y252851D01*
Y252917D01*
X336210Y253004D01*
X336232Y253091D01*
X336265Y253190D01*
X336331Y253277D01*
X336418Y253365D01*
X336429Y253376D01*
X336462Y253386D01*
X336506Y253419D01*
X336571Y253441D01*
X336659Y253474D01*
X336757Y253507D01*
X336877Y253518D01*
X337008Y253529D01*
X337063D01*
X337128Y253518D01*
X337216Y253507D01*
X337303Y253485D01*
X337402Y253452D01*
X337489Y253408D01*
X337577Y253354D01*
X337588Y253343D01*
X337620Y253310D01*
X337664Y253266D01*
X337708Y253201D01*
X337752Y253124D01*
X337784Y253026D01*
X337806Y252917D01*
X337795Y252796D01*
Y252785D01*
Y252753D01*
Y252698D01*
X337784Y252632D01*
Y252556D01*
Y252457D01*
X337773Y252239D01*
Y252009D01*
X337762Y251758D01*
Y251539D01*
Y251430D01*
Y251343D01*
Y251332D01*
Y251321D01*
Y251255D01*
Y251157D01*
Y251026D01*
X337773Y250851D01*
Y250665D01*
X337784Y250435D01*
X337795Y250195D01*
Y250184D01*
Y250140D01*
Y250075D01*
X337784Y249998D01*
X337773Y249922D01*
X337730Y249834D01*
X337675Y249747D01*
X337588Y249670D01*
X337577Y249659D01*
X337544Y249638D01*
X337489Y249616D01*
X337424Y249583D01*
X337336Y249550D01*
X337227Y249517D01*
X337118Y249506D01*
X336997Y249496D01*
X336943D01*
X336877Y249506D01*
X336790Y249517D01*
X336691Y249539D01*
X336593Y249572D01*
X336495Y249616D01*
X336396Y249670D01*
X336385Y249681D01*
X336352Y249703D01*
X336320Y249747D01*
X336276Y249812D01*
X336232Y249889D01*
X336210Y249987D01*
X336199Y250097D01*
X336210Y250228D01*
Y250239D01*
X336221Y250282D01*
X336232Y250348D01*
X336243Y250425D01*
X336265Y250599D01*
Y250676D01*
X336254Y250730D01*
X336243Y250742D01*
X336210Y250752D01*
X336167Y250763D01*
X331368D01*
X331292Y250774D01*
X331194Y250785D01*
X331084Y250807D01*
X330964Y250829D01*
X330833Y250851D01*
X330560Y250938D01*
X330417Y251004D01*
X330275Y251069D01*
X330133Y251157D01*
X330002Y251255D01*
X329882Y251364D01*
X329773Y251496D01*
X329762Y251507D01*
X329751Y251528D01*
X329718Y251572D01*
X329674Y251627D01*
X329631Y251703D01*
X329587Y251791D01*
X329532Y251900D01*
X329467Y252009D01*
X329412Y252140D01*
X329357Y252293D01*
X329314Y252447D01*
X329270Y252610D01*
X329226Y252785D01*
X329193Y252982D01*
X329182Y253179D01*
X329171Y253386D01*
Y253397D01*
Y253419D01*
Y253463D01*
Y253518D01*
X329182Y253594D01*
Y253671D01*
X329204Y253856D01*
X329226Y254075D01*
X329270Y254294D01*
X329325Y254523D01*
X329401Y254731D01*
X329412Y254753D01*
X329434Y254818D01*
X329467Y254906D01*
X329510Y255026D01*
X329576Y255157D01*
X329642Y255310D01*
X329729Y255452D01*
X329827Y255605D01*
X329838Y255649D01*
X329849Y255660D01*
X329882Y255693D01*
X329915Y255704D01*
X329926D01*
Y255715D01*
X329915Y255704D01*
X329740D01*
X329631Y255693D01*
X329488Y255682D01*
Y255693D01*
Y255715D01*
Y255747D01*
X329499Y255802D01*
Y255868D01*
X329510Y255944D01*
Y256119D01*
X329521Y256316D01*
X329532Y256534D01*
X329543Y256764D01*
Y256993D01*
Y257004D01*
Y257015D01*
Y257081D01*
Y257190D01*
X329532Y257310D01*
Y257463D01*
X329521Y257627D01*
X329499Y257966D01*
Y257977D01*
X329488Y258010D01*
Y258065D01*
X329499Y258141D01*
X329521Y258218D01*
X329565Y258294D01*
X329631Y258382D01*
X329718Y258458D01*
X329729D01*
X329751Y258469D01*
X329805Y258491D01*
X329860Y258502D01*
X329947Y258524D01*
X330035Y258545D01*
X330144Y258556D01*
X330319D01*
X330385Y258545D01*
X330450D01*
X330636Y258513D01*
X330811Y258458D01*
X330822Y258447D01*
X330855Y258425D01*
X330909Y258382D01*
X330964Y258327D01*
X331019Y258261D01*
X331062Y258174D01*
X331084Y258075D01*
X331095Y257966D01*
Y257955D01*
X331084Y257923D01*
Y257868D01*
Y257802D01*
X331095Y257649D01*
X331106Y257562D01*
X331128Y257485D01*
X331139Y257474D01*
X331183Y257442D01*
X331226Y257420D01*
X331270Y257409D01*
X331336Y257398D01*
X336178D01*
X336199Y257409D01*
X336221Y257442D01*
X336232Y257507D01*
Y257518D01*
Y257540D01*
Y257573D01*
Y257616D01*
Y257682D01*
Y257769D01*
X336221Y257857D01*
X336210Y257966D01*
Y257977D01*
X336199Y258021D01*
X336210Y258075D01*
Y258141D01*
X336243Y258218D01*
X336287Y258305D01*
X336352Y258382D01*
X336451Y258458D01*
X336462D01*
X336484Y258469D01*
X336527Y258491D01*
X336593Y258502D01*
X336669Y258524D01*
X336757Y258545D01*
X336855Y258556D01*
X337030D01*
X337096Y258545D01*
D02*
G37*
G36*
X330352Y248501D02*
X330429Y248490D01*
X330603Y248446D01*
X330691Y248413D01*
X330767Y248370D01*
X330778Y248359D01*
X330811Y248326D01*
X330855Y248282D01*
X330909Y248217D01*
X330953Y248129D01*
X330997Y248031D01*
X331019Y247911D01*
Y247779D01*
Y247768D01*
X331008Y247725D01*
Y247659D01*
Y247583D01*
X331019Y247408D01*
X331041Y247320D01*
X331073Y247255D01*
Y247244D01*
X331095Y247233D01*
X331117Y247211D01*
X331150Y247189D01*
X331205Y247167D01*
X331259Y247146D01*
X331336Y247124D01*
X335598D01*
X335675Y247113D01*
X335773Y247102D01*
X335894Y247080D01*
X336025Y247058D01*
X336167Y247036D01*
X336473Y246949D01*
X336626Y246894D01*
X336779Y246818D01*
X336943Y246741D01*
X337085Y246643D01*
X337238Y246533D01*
X337369Y246402D01*
X337380Y246391D01*
X337402Y246370D01*
X337435Y246326D01*
X337478Y246271D01*
X337533Y246195D01*
X337588Y246096D01*
X337653Y245998D01*
X337719Y245867D01*
X337784Y245736D01*
X337850Y245572D01*
X337905Y245408D01*
X337959Y245222D01*
X338003Y245025D01*
X338036Y244807D01*
X338058Y244577D01*
X338069Y244337D01*
Y244326D01*
Y244282D01*
Y244227D01*
Y244151D01*
X338058Y244052D01*
Y243943D01*
X338047Y243823D01*
X338036Y243692D01*
X338003Y243408D01*
X337948Y243112D01*
X337883Y242828D01*
X337839Y242686D01*
X337784Y242566D01*
X337773Y242555D01*
X337762Y242522D01*
X337730Y242467D01*
X337697Y242402D01*
X337642Y242325D01*
X337577Y242227D01*
X337489Y242118D01*
X337402Y241998D01*
X337293Y241877D01*
X337161Y241746D01*
X337019Y241604D01*
X336866Y241473D01*
X336680Y241342D01*
X336495Y241200D01*
X336276Y241068D01*
X336047Y240948D01*
X336036Y240937D01*
X335981Y240926D01*
X335915Y240904D01*
X335828Y240894D01*
X335730Y240883D01*
X335631D01*
X335522Y240894D01*
X335413Y240937D01*
X335402Y240948D01*
X335358Y240970D01*
X335303Y241003D01*
X335238Y241057D01*
X335172Y241134D01*
X335096Y241221D01*
X335019Y241320D01*
X334964Y241440D01*
X334953Y241451D01*
X334943Y241495D01*
X334921Y241560D01*
X334899Y241648D01*
X334877Y241746D01*
X334866Y241855D01*
Y241976D01*
X334877Y242096D01*
Y242107D01*
X334888Y242150D01*
X334899Y242205D01*
X334932Y242282D01*
X334975Y242358D01*
X335041Y242424D01*
X335117Y242489D01*
X335227Y242544D01*
X335238D01*
X335249Y242555D01*
X335281Y242566D01*
X335325Y242588D01*
X335445Y242642D01*
X335587Y242730D01*
X335740Y242828D01*
X335915Y242948D01*
X336079Y243080D01*
X336232Y243244D01*
X336243Y243254D01*
X336265Y243309D01*
X336309Y243386D01*
X336342Y243495D01*
X336385Y243637D01*
X336429Y243801D01*
X336451Y243998D01*
X336462Y244227D01*
Y244238D01*
Y244260D01*
Y244293D01*
Y244337D01*
X336451Y244457D01*
X336429Y244599D01*
X336385Y244752D01*
X336342Y244905D01*
X336265Y245047D01*
X336167Y245167D01*
X336156Y245178D01*
X336112Y245211D01*
X336047Y245244D01*
X335948Y245287D01*
X335817Y245342D01*
X335653Y245375D01*
X335467Y245408D01*
X335238Y245419D01*
X331270D01*
X331205Y245408D01*
X331095D01*
X331062Y245397D01*
X331051Y245386D01*
X331041Y245364D01*
X331030Y245309D01*
Y245266D01*
Y245211D01*
Y245189D01*
X331019Y245134D01*
X331008Y245036D01*
X330997Y244905D01*
Y244730D01*
X330986Y244533D01*
X330975Y244304D01*
Y244041D01*
Y244030D01*
Y244009D01*
Y243965D01*
Y243910D01*
Y243845D01*
Y243768D01*
X330986Y243582D01*
Y243375D01*
X330997Y243134D01*
X331008Y242883D01*
X331030Y242631D01*
Y242610D01*
Y242566D01*
X331019Y242500D01*
X330997Y242413D01*
X330964Y242314D01*
X330909Y242216D01*
X330844Y242118D01*
X330745Y242030D01*
X330734Y242019D01*
X330702Y242008D01*
X330658Y241976D01*
X330592Y241943D01*
X330516Y241921D01*
X330429Y241888D01*
X330319Y241877D01*
X330210Y241866D01*
X330155D01*
X330090Y241877D01*
X330013Y241888D01*
X329915Y241921D01*
X329827Y241954D01*
X329729Y242008D01*
X329631Y242074D01*
X329620Y242085D01*
X329598Y242107D01*
X329554Y242150D01*
X329521Y242216D01*
X329478Y242293D01*
X329456Y242391D01*
X329434Y242511D01*
Y242642D01*
Y242653D01*
Y242664D01*
Y242697D01*
Y242741D01*
X329445Y242795D01*
Y242861D01*
Y243025D01*
X329456Y243211D01*
Y243429D01*
X329467Y243670D01*
Y243921D01*
Y243932D01*
Y243943D01*
Y243976D01*
Y244030D01*
Y244085D01*
Y244151D01*
Y244304D01*
X329456Y244500D01*
Y244719D01*
X329445Y244959D01*
X329434Y245222D01*
Y245233D01*
Y245244D01*
X329423Y245309D01*
X329390Y245375D01*
X329357Y245397D01*
X329314Y245419D01*
X329270D01*
X329215Y245429D01*
X329073D01*
X328997Y245440D01*
X328723D01*
X328603Y245429D01*
X328330D01*
X327401Y245386D01*
X327270D01*
X327182Y245408D01*
X327095Y245440D01*
X326986Y245495D01*
X326887Y245583D01*
X326800Y245703D01*
X326789Y245714D01*
X326778Y245736D01*
X326756Y245779D01*
X326723Y245845D01*
X326701Y245932D01*
X326679Y246020D01*
X326669Y246140D01*
X326658Y246271D01*
Y246282D01*
Y246337D01*
X326669Y246402D01*
X326679Y246501D01*
X326712Y246599D01*
X326745Y246719D01*
X326800Y246839D01*
X326865Y246960D01*
X326876Y246971D01*
X326898Y246992D01*
X326942Y247025D01*
X326996Y247069D01*
X327073Y247102D01*
X327160Y247124D01*
X327270Y247135D01*
X327401Y247124D01*
X327455D01*
X327532Y247113D01*
X327980D01*
X328122Y247102D01*
X328417Y247113D01*
X328701Y247124D01*
X328822Y247135D01*
X328931Y247146D01*
X329029Y247167D01*
X329106Y247189D01*
X329117Y247200D01*
X329161Y247222D01*
X329215Y247255D01*
X329281Y247309D01*
X329335Y247397D01*
X329390Y247495D01*
X329423Y247626D01*
X329434Y247790D01*
Y247801D01*
Y247845D01*
Y247921D01*
X329456Y247998D01*
X329488Y248096D01*
X329532Y248195D01*
X329609Y248293D01*
X329707Y248381D01*
X329718D01*
X329740Y248403D01*
X329784Y248424D01*
X329849Y248446D01*
X329926Y248468D01*
X330013Y248490D01*
X330112Y248501D01*
X330232Y248512D01*
X330286D01*
X330352Y248501D01*
D02*
G37*
G36*
X332385Y239505D02*
X332461D01*
X332560Y239494D01*
X332778Y239484D01*
X333041Y239451D01*
X333325Y239418D01*
X333631Y239374D01*
X333959Y239309D01*
X334298Y239232D01*
X334647Y239145D01*
X334997Y239024D01*
X335358Y238893D01*
X335697Y238740D01*
X336036Y238565D01*
X336352Y238358D01*
X336374Y238347D01*
X336429Y238314D01*
X336506Y238248D01*
X336615Y238161D01*
X336746Y238052D01*
X336899Y237921D01*
X337052Y237757D01*
X337205Y237571D01*
X337369Y237352D01*
X337522Y237123D01*
X337675Y236849D01*
X337795Y236565D01*
X337905Y236248D01*
X337992Y235898D01*
X338047Y235527D01*
X338069Y235133D01*
Y235122D01*
Y235112D01*
Y235079D01*
Y235035D01*
X338058Y234926D01*
X338047Y234773D01*
X338014Y234598D01*
X337981Y234390D01*
X337926Y234150D01*
X337850Y233909D01*
X337762Y233647D01*
X337653Y233374D01*
X337511Y233111D01*
X337347Y232838D01*
X337150Y232576D01*
X336921Y232324D01*
X336659Y232084D01*
X336352Y231876D01*
X336331Y231865D01*
X336276Y231822D01*
X336178Y231767D01*
X336057Y231701D01*
X335894Y231614D01*
X335697Y231516D01*
X335467Y231406D01*
X335205Y231297D01*
X334910Y231199D01*
X334593Y231089D01*
X334243Y230991D01*
X333871Y230904D01*
X333467Y230838D01*
X333052Y230772D01*
X332604Y230740D01*
X332134Y230729D01*
X331959D01*
X331882Y230740D01*
X331795D01*
X331707Y230750D01*
X331478Y230761D01*
X331226Y230794D01*
X330942Y230827D01*
X330625Y230871D01*
X330297Y230936D01*
X329959Y231013D01*
X329609Y231100D01*
X329248Y231210D01*
X328887Y231341D01*
X328538Y231494D01*
X328199Y231669D01*
X327882Y231876D01*
X327860Y231887D01*
X327805Y231931D01*
X327718Y231986D01*
X327608Y232073D01*
X327477Y232193D01*
X327335Y232335D01*
X327182Y232499D01*
X327018Y232685D01*
X326854Y232904D01*
X326701Y233144D01*
X326559Y233406D01*
X326428Y233702D01*
X326319Y234019D01*
X326231Y234368D01*
X326177Y234740D01*
X326155Y235133D01*
Y235144D01*
Y235155D01*
Y235188D01*
Y235232D01*
X326166Y235341D01*
X326188Y235494D01*
X326209Y235680D01*
X326253Y235888D01*
X326308Y236128D01*
X326373Y236380D01*
X326472Y236642D01*
X326592Y236915D01*
X326734Y237199D01*
X326909Y237473D01*
X327117Y237746D01*
X327357Y238008D01*
X327630Y238259D01*
X327947Y238489D01*
X327969Y238500D01*
X328024Y238533D01*
X328111Y238587D01*
X328232Y238653D01*
X328396Y238729D01*
X328592Y238817D01*
X328811Y238904D01*
X329073Y239003D01*
X329357Y239101D01*
X329674Y239189D01*
X330013Y239276D01*
X330385Y239352D01*
X330789Y239418D01*
X331205Y239473D01*
X331663Y239505D01*
X332134Y239516D01*
X332308D01*
X332385Y239505D01*
D02*
G37*
G36*
X334702Y229089D02*
X334713D01*
X334735Y229078D01*
X334768D01*
X334811Y229067D01*
X334866Y229045D01*
X334943Y229034D01*
X335106Y229002D01*
X335303Y228969D01*
X335533Y228936D01*
X335773Y228914D01*
X336036Y228892D01*
X336473D01*
X336680Y228903D01*
X336888Y228925D01*
X337085Y228947D01*
X337282Y228991D01*
X337293D01*
X337336Y229002D01*
X337391D01*
X337467Y229013D01*
X337555Y229002D01*
X337653Y228980D01*
X337741Y228936D01*
X337839Y228871D01*
X337850Y228860D01*
X337872Y228838D01*
X337905Y228794D01*
X337948Y228729D01*
X337992Y228663D01*
X338036Y228575D01*
X338069Y228466D01*
X338101Y228357D01*
Y228346D01*
X338112Y228302D01*
Y228237D01*
X338123Y228149D01*
Y228062D01*
X338112Y227963D01*
X338090Y227854D01*
X338058Y227756D01*
X338047Y227745D01*
X338036Y227701D01*
X338003Y227657D01*
X337959Y227592D01*
X337894Y227526D01*
X337817Y227471D01*
X337730Y227428D01*
X337620Y227395D01*
X337598D01*
X337566Y227384D01*
X337522D01*
Y227373D01*
X337533Y227362D01*
X337544Y227329D01*
X337555Y227275D01*
X337588Y227209D01*
X337631Y227111D01*
X337686Y227002D01*
X337762Y226859D01*
X337773Y226849D01*
X337784Y226805D01*
X337817Y226728D01*
X337850Y226630D01*
X337883Y226510D01*
X337926Y226357D01*
X337970Y226193D01*
X338003Y226007D01*
Y225996D01*
X338014Y225941D01*
X338025Y225876D01*
X338036Y225766D01*
X338058Y225635D01*
X338069Y225482D01*
X338080Y225296D01*
Y225089D01*
Y225067D01*
Y225012D01*
X338069Y224914D01*
Y224794D01*
X338058Y224641D01*
X338036Y224466D01*
X338003Y224269D01*
X337970Y224061D01*
X337926Y223843D01*
X337872Y223624D01*
X337795Y223395D01*
X337719Y223165D01*
X337620Y222947D01*
X337500Y222739D01*
X337369Y222542D01*
X337216Y222367D01*
X337205Y222356D01*
X337172Y222313D01*
X337118Y222258D01*
X337052Y222192D01*
X336954Y222105D01*
X336844Y222007D01*
X336713Y221908D01*
X336571Y221799D01*
X336396Y221690D01*
X336221Y221591D01*
X336014Y221493D01*
X335795Y221405D01*
X335566Y221340D01*
X335314Y221274D01*
X335052Y221241D01*
X334779Y221231D01*
X334626D01*
X334549Y221241D01*
X334451D01*
X334352Y221252D01*
X334232Y221274D01*
X333981Y221307D01*
X333718Y221362D01*
X333445Y221438D01*
X333183Y221547D01*
X333172D01*
X333161Y221558D01*
X333095Y221591D01*
X332997Y221657D01*
X332877Y221744D01*
X332735Y221853D01*
X332582Y222007D01*
X332429Y222181D01*
X332276Y222400D01*
X332265Y222411D01*
X332232Y222455D01*
X332177Y222531D01*
X332112Y222629D01*
X332046Y222772D01*
X331959Y222947D01*
X331882Y223154D01*
X331795Y223395D01*
Y223406D01*
X331773Y223449D01*
X331751Y223526D01*
X331729Y223635D01*
X331685Y223777D01*
X331642Y223963D01*
X331620Y224072D01*
X331587Y224193D01*
X331565Y224324D01*
X331532Y224466D01*
X331423Y224979D01*
Y224990D01*
X331412Y225023D01*
X331390Y225089D01*
X331379Y225154D01*
X331347Y225253D01*
X331325Y225351D01*
X331248Y225581D01*
X331172Y225832D01*
X331073Y226083D01*
X331030Y226204D01*
X330975Y226313D01*
X330931Y226400D01*
X330877Y226488D01*
X330866Y226499D01*
X330855Y226521D01*
X330822Y226553D01*
X330789Y226586D01*
X330734Y226641D01*
X330669Y226695D01*
X330516Y226816D01*
X330319Y226936D01*
X330079Y227045D01*
X329947Y227078D01*
X329795Y227111D01*
X329642Y227133D01*
X329478Y227144D01*
X329401D01*
X329346Y227133D01*
X329281D01*
X329204Y227122D01*
X329008Y227078D01*
X328800Y227023D01*
X328559Y226936D01*
X328330Y226805D01*
X328210Y226728D01*
X328089Y226641D01*
Y226630D01*
X328079Y226619D01*
X328057Y226586D01*
X328035Y226542D01*
X328013Y226488D01*
X327991Y226422D01*
X327958Y226335D01*
X327925Y226247D01*
X327904Y226138D01*
X327871Y226018D01*
X327849Y225876D01*
X327816Y225723D01*
X327805Y225559D01*
X327783Y225384D01*
X327772Y225187D01*
Y224979D01*
Y224969D01*
Y224936D01*
Y224892D01*
Y224827D01*
X327783Y224750D01*
X327794Y224662D01*
X327816Y224466D01*
X327849Y224247D01*
X327915Y224018D01*
X327991Y223799D01*
X328046Y223701D01*
X328100Y223613D01*
X328111Y223602D01*
X328133Y223591D01*
X328166Y223559D01*
X328210Y223515D01*
X328264Y223471D01*
X328341Y223416D01*
X328428Y223373D01*
X328527Y223318D01*
X328625Y223264D01*
X328745Y223209D01*
X329018Y223132D01*
X329171Y223099D01*
X329325Y223078D01*
X329499D01*
X329674Y223089D01*
X329740D01*
X329816Y223078D01*
X329915Y223067D01*
X330024Y223034D01*
X330133Y222990D01*
X330243Y222925D01*
X330341Y222826D01*
X330352Y222815D01*
X330374Y222782D01*
X330407Y222728D01*
X330439Y222662D01*
X330472Y222564D01*
X330505Y222466D01*
X330527Y222334D01*
X330538Y222203D01*
Y222192D01*
Y222138D01*
X330527Y222072D01*
X330516Y221996D01*
X330483Y221897D01*
X330450Y221799D01*
X330396Y221701D01*
X330330Y221602D01*
X330319Y221591D01*
X330286Y221558D01*
X330232Y221526D01*
X330155Y221471D01*
X330057Y221438D01*
X329947Y221394D01*
X329805Y221384D01*
X329642D01*
X329609Y221394D01*
X329576D01*
X329467Y221405D01*
X329314Y221416D01*
X329128Y221427D01*
X328920Y221438D01*
X328669Y221427D01*
X328406Y221416D01*
X328374D01*
X328330Y221405D01*
X328264D01*
X328199Y221394D01*
X328122Y221384D01*
X327936Y221351D01*
X327740Y221318D01*
X327532Y221263D01*
X327346Y221209D01*
X327182Y221143D01*
X327160Y221132D01*
X327106Y221121D01*
X327029Y221099D01*
X326931Y221088D01*
X326822D01*
X326712Y221099D01*
X326592Y221132D01*
X326483Y221198D01*
X326472Y221209D01*
X326450Y221231D01*
X326417Y221274D01*
X326373Y221329D01*
X326330Y221405D01*
X326286Y221493D01*
X326242Y221591D01*
X326209Y221701D01*
Y221722D01*
X326199Y221766D01*
X326188Y221843D01*
X326177Y221930D01*
X326166Y222039D01*
X326177Y222149D01*
X326188Y222258D01*
X326209Y222367D01*
Y222389D01*
X326231Y222433D01*
X326253Y222487D01*
X326297Y222564D01*
X326352Y222640D01*
X326417Y222706D01*
X326494Y222761D01*
X326592Y222782D01*
X326658Y222804D01*
X326679D01*
X326690Y222794D01*
X326701Y222761D01*
Y222772D01*
Y222804D01*
X326690Y222848D01*
X326669Y222903D01*
X326636Y222990D01*
X326592Y223110D01*
X326537Y223264D01*
X326526D01*
X326516Y223285D01*
X326483Y223318D01*
X326450Y223362D01*
X326417Y223438D01*
X326373Y223548D01*
X326330Y223690D01*
X326297Y223865D01*
Y223875D01*
X326286Y223897D01*
Y223930D01*
X326275Y223985D01*
X326264Y224040D01*
X326253Y224105D01*
X326231Y224269D01*
X326209Y224455D01*
X326188Y224662D01*
X326166Y224859D01*
Y225056D01*
Y225078D01*
Y225132D01*
X326177Y225231D01*
Y225362D01*
X326199Y225515D01*
X326220Y225690D01*
X326242Y225887D01*
X326286Y226094D01*
X326330Y226324D01*
X326395Y226553D01*
X326472Y226783D01*
X326559Y227023D01*
X326669Y227253D01*
X326800Y227482D01*
X326942Y227701D01*
X327106Y227898D01*
X327117Y227909D01*
X327150Y227941D01*
X327204Y227985D01*
X327270Y228051D01*
X327368Y228127D01*
X327477Y228215D01*
X327608Y228302D01*
X327751Y228390D01*
X327915Y228488D01*
X328100Y228575D01*
X328308Y228663D01*
X328516Y228739D01*
X328756Y228805D01*
X329008Y228849D01*
X329270Y228882D01*
X329554Y228892D01*
X329631D01*
X329718Y228882D01*
X329838Y228871D01*
X329980Y228860D01*
X330144Y228827D01*
X330319Y228794D01*
X330516Y228750D01*
X330724Y228685D01*
X330931Y228608D01*
X331139Y228510D01*
X331347Y228401D01*
X331554Y228269D01*
X331751Y228105D01*
X331937Y227931D01*
X332101Y227723D01*
Y227712D01*
X332123Y227690D01*
X332144Y227646D01*
X332177Y227592D01*
X332221Y227515D01*
X332265Y227417D01*
X332319Y227308D01*
X332385Y227166D01*
X332440Y227023D01*
X332505Y226849D01*
X332582Y226652D01*
X332647Y226444D01*
X332724Y226204D01*
X332789Y225952D01*
X332866Y225668D01*
X332931Y225373D01*
X333008Y225045D01*
Y225034D01*
X333019Y224990D01*
X333041Y224936D01*
X333052Y224848D01*
X333085Y224750D01*
X333117Y224641D01*
X333150Y224510D01*
X333194Y224378D01*
X333281Y224083D01*
X333380Y223777D01*
X333489Y223482D01*
X333554Y223351D01*
X333609Y223220D01*
X333620Y223209D01*
X333664Y223187D01*
X333740Y223143D01*
X333839Y223099D01*
X333981Y223067D01*
X334145Y223023D01*
X334341Y223001D01*
X334571Y222990D01*
X334658D01*
X334724Y223001D01*
X334811Y223012D01*
X334899Y223023D01*
X335117Y223067D01*
X335358Y223132D01*
X335609Y223231D01*
X335730Y223296D01*
X335850Y223373D01*
X335970Y223471D01*
X336079Y223569D01*
X336101Y223591D01*
X336112Y223624D01*
X336145Y223657D01*
X336167Y223712D01*
X336199Y223777D01*
X336243Y223843D01*
X336276Y223930D01*
X336309Y224029D01*
X336352Y224138D01*
X336385Y224269D01*
X336407Y224400D01*
X336440Y224542D01*
X336451Y224706D01*
X336473Y224881D01*
Y225067D01*
Y225078D01*
Y225122D01*
Y225176D01*
X336462Y225264D01*
Y225362D01*
X336451Y225482D01*
X336440Y225603D01*
X336418Y225745D01*
X336374Y226029D01*
X336298Y226324D01*
X336199Y226608D01*
X336134Y226728D01*
X336057Y226849D01*
X336047Y226859D01*
X336036Y226870D01*
X336014Y226903D01*
X335970Y226947D01*
X335926Y226991D01*
X335861Y227045D01*
X335784Y227100D01*
X335697Y227154D01*
X335609Y227209D01*
X335500Y227264D01*
X335369Y227308D01*
X335238Y227351D01*
X335085Y227384D01*
X334921Y227395D01*
X334746Y227406D01*
X334560Y227395D01*
X334494D01*
X334418Y227406D01*
X334331Y227417D01*
X334232Y227450D01*
X334134Y227504D01*
X334024Y227581D01*
X333937Y227679D01*
X333926Y227690D01*
X333904Y227723D01*
X333882Y227778D01*
X333850Y227854D01*
X333817Y227941D01*
X333784Y228051D01*
X333762Y228160D01*
Y228280D01*
Y228302D01*
Y228346D01*
X333773Y228422D01*
X333795Y228521D01*
X333817Y228630D01*
X333860Y228739D01*
X333915Y228838D01*
X333992Y228936D01*
X334003Y228947D01*
X334035Y228969D01*
X334101Y229013D01*
X334177Y229045D01*
X334287Y229078D01*
X334407Y229111D01*
X334549D01*
X334702Y229089D01*
D02*
G37*
%LPC*%
G36*
X333478Y282941D02*
X333369D01*
X333281Y282930D01*
X333183Y282919D01*
X333063Y282909D01*
X332931Y282897D01*
X332778Y282876D01*
X332461Y282810D01*
X332123Y282701D01*
X331948Y282646D01*
X331773Y282570D01*
X331598Y282482D01*
X331434Y282384D01*
X331423Y282373D01*
X331401Y282362D01*
X331368Y282329D01*
X331336Y282285D01*
X331281Y282231D01*
X331226Y282165D01*
X331172Y282078D01*
X331106Y281990D01*
X331041Y281892D01*
X330986Y281772D01*
X330931Y281651D01*
X330877Y281509D01*
X330844Y281367D01*
X330811Y281203D01*
X330789Y281039D01*
X330778Y280854D01*
Y280843D01*
Y280810D01*
Y280755D01*
X330789Y280690D01*
X330800Y280613D01*
X330811Y280515D01*
X330866Y280296D01*
X330942Y280045D01*
X330997Y279925D01*
X331062Y279793D01*
X331139Y279673D01*
X331226Y279553D01*
X331325Y279444D01*
X331445Y279334D01*
X331456Y279323D01*
X331489Y279312D01*
X331532Y279280D01*
X331598Y279247D01*
X331685Y279203D01*
X331784Y279159D01*
X331893Y279105D01*
X332024Y279050D01*
X332166Y278995D01*
X332319Y278941D01*
X332483Y278897D01*
X332669Y278853D01*
X333052Y278788D01*
X333259Y278777D01*
X333478Y278766D01*
X333587D01*
X333664Y278777D01*
X333762D01*
X333882Y278799D01*
X334003Y278810D01*
X334145Y278832D01*
X334440Y278897D01*
X334757Y278995D01*
X334910Y279050D01*
X335063Y279127D01*
X335216Y279203D01*
X335358Y279302D01*
X335369Y279312D01*
X335391Y279323D01*
X335434Y279356D01*
X335478Y279400D01*
X335544Y279466D01*
X335609Y279531D01*
X335675Y279619D01*
X335751Y279706D01*
X335828Y279815D01*
X335894Y279925D01*
X335959Y280056D01*
X336025Y280198D01*
X336068Y280340D01*
X336112Y280504D01*
X336134Y280679D01*
X336145Y280854D01*
Y280865D01*
Y280897D01*
X336134Y280952D01*
Y281018D01*
X336123Y281105D01*
X336101Y281203D01*
X336047Y281422D01*
X336003Y281542D01*
X335948Y281673D01*
X335894Y281804D01*
X335817Y281936D01*
X335719Y282067D01*
X335620Y282198D01*
X335500Y282318D01*
X335358Y282428D01*
X335347D01*
X335325Y282449D01*
X335281Y282471D01*
X335227Y282504D01*
X335150Y282548D01*
X335063Y282592D01*
X334964Y282635D01*
X334855Y282679D01*
X334724Y282734D01*
X334582Y282777D01*
X334429Y282821D01*
X334265Y282865D01*
X334079Y282897D01*
X333893Y282919D01*
X333686Y282930D01*
X333478Y282941D01*
D02*
G37*
G36*
X335150Y266076D02*
X335096D01*
X335052Y266065D01*
X334932Y266043D01*
X334779Y266011D01*
X334593Y265945D01*
X334396Y265858D01*
X334177Y265726D01*
X334068Y265639D01*
X333959Y265552D01*
Y265541D01*
X333948Y265530D01*
X333926Y265497D01*
X333915Y265442D01*
X333882Y265388D01*
X333860Y265311D01*
X333839Y265224D01*
X333806Y265114D01*
X333773Y264994D01*
X333751Y264863D01*
X333718Y264721D01*
X333697Y264546D01*
X333686Y264371D01*
X333664Y264174D01*
X333653Y263956D01*
Y263726D01*
Y263715D01*
Y263683D01*
Y263639D01*
Y263562D01*
X333664Y263464D01*
Y263344D01*
X333675Y263202D01*
X333686Y263038D01*
Y263027D01*
Y263016D01*
X333697Y262950D01*
Y262863D01*
X333707Y262743D01*
X333729Y262612D01*
X333740Y262469D01*
X333751Y262338D01*
X333773Y262207D01*
X335260D01*
X335281Y262229D01*
X335336Y262273D01*
X335434Y262360D01*
X335544Y262469D01*
X335675Y262612D01*
X335806Y262797D01*
X335948Y262994D01*
X336079Y263234D01*
Y263245D01*
X336090Y263267D01*
X336112Y263311D01*
X336134Y263366D01*
X336167Y263431D01*
X336199Y263508D01*
X336232Y263606D01*
X336265Y263704D01*
X336342Y263934D01*
X336396Y264196D01*
X336440Y264480D01*
X336462Y264787D01*
Y264797D01*
Y264808D01*
Y264841D01*
X336451Y264885D01*
X336440Y264994D01*
X336418Y265125D01*
X336374Y265278D01*
X336309Y265431D01*
X336210Y265595D01*
X336090Y265737D01*
X336068Y265748D01*
X336025Y265792D01*
X335948Y265847D01*
X335839Y265901D01*
X335708Y265967D01*
X335544Y266022D01*
X335358Y266065D01*
X335150Y266076D01*
D02*
G37*
G36*
X332112Y237757D02*
X331926D01*
X331784Y237746D01*
X331620Y237735D01*
X331423Y237724D01*
X331215Y237702D01*
X330975Y237680D01*
X330734Y237647D01*
X330483Y237604D01*
X330221Y237549D01*
X329959Y237494D01*
X329707Y237418D01*
X329456Y237341D01*
X329215Y237243D01*
X328997Y237134D01*
X328986Y237123D01*
X328942Y237101D01*
X328887Y237057D01*
X328800Y237002D01*
X328712Y236937D01*
X328603Y236849D01*
X328494Y236751D01*
X328374Y236631D01*
X328264Y236500D01*
X328155Y236347D01*
X328046Y236183D01*
X327958Y236008D01*
X327871Y235811D01*
X327816Y235603D01*
X327772Y235374D01*
X327762Y235133D01*
Y235122D01*
Y235079D01*
X327772Y235002D01*
X327783Y234915D01*
X327794Y234805D01*
X327827Y234685D01*
X327860Y234543D01*
X327904Y234390D01*
X327969Y234237D01*
X328046Y234073D01*
X328133Y233909D01*
X328242Y233745D01*
X328374Y233581D01*
X328527Y233428D01*
X328701Y233275D01*
X328909Y233144D01*
X328920Y233133D01*
X328964Y233111D01*
X329040Y233079D01*
X329128Y233046D01*
X329259Y232991D01*
X329401Y232937D01*
X329576Y232882D01*
X329773Y232816D01*
X329991Y232751D01*
X330232Y232696D01*
X330494Y232641D01*
X330778Y232587D01*
X331084Y232554D01*
X331412Y232521D01*
X331751Y232499D01*
X332112Y232488D01*
X332297D01*
X332440Y232499D01*
X332604Y232510D01*
X332800Y232521D01*
X333019Y232543D01*
X333259Y232565D01*
X333511Y232609D01*
X333784Y232652D01*
X334057Y232696D01*
X334331Y232762D01*
X334604Y232838D01*
X334877Y232926D01*
X335150Y233024D01*
X335402Y233144D01*
X335413Y233155D01*
X335445Y233177D01*
X335500Y233210D01*
X335566Y233275D01*
X335642Y233341D01*
X335740Y233428D01*
X335828Y233527D01*
X335926Y233647D01*
X336036Y233778D01*
X336123Y233931D01*
X336210Y234095D01*
X336298Y234270D01*
X336364Y234467D01*
X336418Y234674D01*
X336451Y234893D01*
X336462Y235133D01*
Y235144D01*
Y235188D01*
X336451Y235265D01*
X336440Y235352D01*
X336429Y235461D01*
X336396Y235593D01*
X336364Y235724D01*
X336309Y235877D01*
X336243Y236041D01*
X336156Y236205D01*
X336057Y236368D01*
X335937Y236532D01*
X335795Y236696D01*
X335631Y236849D01*
X335445Y237002D01*
X335227Y237134D01*
X335216Y237145D01*
X335172Y237156D01*
X335106Y237188D01*
X335019Y237232D01*
X334899Y237276D01*
X334768Y237330D01*
X334604Y237385D01*
X334407Y237440D01*
X334199Y237505D01*
X333970Y237560D01*
X333707Y237615D01*
X333434Y237658D01*
X333128Y237702D01*
X332811Y237735D01*
X332472Y237746D01*
X332112Y237757D01*
D02*
G37*
%LPD*%
D16*
X358268Y204724D02*
G03*
X362205Y208661I0J3937D01*
G01*
X248031D02*
G03*
X251969Y204724I3937J0D01*
G01*
X251969Y303150D02*
G03*
X248031Y299213I0J-3937D01*
G01*
X362205Y299213D02*
G03*
X358268Y303150I-3937J0D01*
G01*
D17*
X295276Y251969D02*
Y255906D01*
X248031Y208661D02*
Y299213D01*
X251969Y303150D02*
X358268D01*
X251969Y204724D02*
X358268D01*
X362205Y208661D02*
Y299213D01*
D26*
X345669Y294882D02*
X343308D01*
Y293701D01*
X343701Y293308D01*
X344488D01*
X344882Y293701D01*
Y294882D01*
Y292520D02*
Y291733D01*
Y292127D01*
X342520D01*
Y292520D01*
X343308Y290159D02*
Y289372D01*
X343701Y288978D01*
X344882D01*
Y290159D01*
X344488Y290553D01*
X344095Y290159D01*
Y288978D01*
X344882Y288191D02*
X343308D01*
Y287010D01*
X343701Y286617D01*
X344882D01*
X342914Y285436D02*
X343308D01*
Y285830D01*
Y285043D01*
Y285436D01*
X344488D01*
X344882Y285043D01*
X342520Y282681D02*
Y283468D01*
X342914Y283862D01*
X344488D01*
X344882Y283468D01*
Y282681D01*
X344488Y282288D01*
X342914D01*
X342520Y282681D01*
X342914Y279926D02*
X342520Y280320D01*
Y281107D01*
X342914Y281500D01*
X343308D01*
X343701Y281107D01*
Y280320D01*
X344095Y279926D01*
X344488D01*
X344882Y280320D01*
Y281107D01*
X344488Y281500D01*
X342520Y276778D02*
X344095D01*
X344882Y275990D01*
X344095Y275203D01*
X342520D01*
X344882Y274416D02*
Y273629D01*
Y274023D01*
X343308D01*
Y274416D01*
X344882Y272448D02*
Y271268D01*
X344488Y270874D01*
X344095Y271268D01*
Y272055D01*
X343701Y272448D01*
X343308Y272055D01*
Y270874D01*
X344882Y270087D02*
Y269300D01*
Y269693D01*
X343308D01*
Y270087D01*
X344882Y267725D02*
Y266938D01*
X344488Y266545D01*
X343701D01*
X343308Y266938D01*
Y267725D01*
X343701Y268119D01*
X344488D01*
X344882Y267725D01*
Y265757D02*
X343308D01*
Y264577D01*
X343701Y264183D01*
X344882D01*
X344488Y231497D02*
X342914D01*
X342520Y231890D01*
Y232677D01*
X342914Y233071D01*
X344488D01*
X344882Y232677D01*
Y231890D01*
X344095Y232284D02*
X344882Y231497D01*
Y231890D02*
X344488Y231497D01*
X343308Y230709D02*
X344488D01*
X344882Y230316D01*
Y229135D01*
X343308D01*
Y227954D02*
Y227167D01*
X343701Y226774D01*
X344882D01*
Y227954D01*
X344488Y228348D01*
X344095Y227954D01*
Y226774D01*
X342520Y224412D02*
X344882D01*
Y225593D01*
X344488Y225987D01*
X343701D01*
X343308Y225593D01*
Y224412D01*
X342914Y222051D02*
X342520Y222444D01*
Y223232D01*
X342914Y223625D01*
X344488D01*
X344882Y223232D01*
Y222444D01*
X344488Y222051D01*
X343308Y221264D02*
X344488D01*
X344882Y220870D01*
Y219689D01*
X343308D01*
X342520Y218902D02*
X344882D01*
Y217722D01*
X344488Y217328D01*
X344095D01*
X343701D01*
X343308Y217722D01*
Y218902D01*
X344882Y215360D02*
Y216147D01*
X344488Y216541D01*
X343701D01*
X343308Y216147D01*
Y215360D01*
X343701Y214967D01*
X344095D01*
Y216541D01*
X342520Y259449D02*
X344882D01*
Y260630D01*
X344488Y261024D01*
X343701D01*
X343308Y260630D01*
Y259449D01*
X344882Y257482D02*
Y258269D01*
X344488Y258662D01*
X343701D01*
X343308Y258269D01*
Y257482D01*
X343701Y257088D01*
X344095D01*
Y258662D01*
X344882Y256301D02*
Y255120D01*
X344488Y254727D01*
X344095Y255120D01*
Y255907D01*
X343701Y256301D01*
X343308Y255907D01*
Y254727D01*
X344882Y253939D02*
Y253152D01*
Y253546D01*
X343308D01*
Y253939D01*
X345669Y251184D02*
Y250791D01*
X345275Y250397D01*
X343308D01*
Y251578D01*
X343701Y251972D01*
X344488D01*
X344882Y251578D01*
Y250397D01*
Y249610D02*
X343308D01*
Y248429D01*
X343701Y248036D01*
X344882D01*
Y246068D02*
Y246855D01*
X344488Y247249D01*
X343701D01*
X343308Y246855D01*
Y246068D01*
X343701Y245674D01*
X344095D01*
Y247249D01*
X342520Y243313D02*
X344882D01*
Y244494D01*
X344488Y244887D01*
X343701D01*
X343308Y244494D01*
Y243313D01*
X342520Y240164D02*
X344882D01*
Y238983D01*
X344488Y238590D01*
X344095D01*
X343701D01*
X343308Y238983D01*
Y240164D01*
Y237803D02*
X344488D01*
X344882Y237409D01*
Y236228D01*
X345275D01*
X345669Y236622D01*
Y237016D01*
X344882Y236228D02*
X343308D01*
D38*
X267323Y242520D02*
G03*
X267323Y242520I-4724J0D01*
G01*
X284646Y236968D02*
G03*
X284646Y236968I-4724J0D01*
G01*
X274016Y270079D02*
G03*
X274016Y270079I-4724J0D01*
G01*
X262598Y253937D02*
G03*
X262598Y253937I-4724J0D01*
G01*
D39*
X305118D02*
G03*
X305118Y253937I-27559J0D01*
G01*
D40*
X283465Y263779D02*
X292520Y254724D01*
X277559Y263779D02*
X283465D01*
X273622Y267717D02*
X277559Y263779D01*
X289370Y244094D02*
X297638Y252362D01*
X285827Y244094D02*
X289370D01*
X284646D02*
X285827D01*
X284252Y243701D02*
X284646Y244094D01*
X284252Y239370D02*
Y243701D01*
X266929Y245669D02*
X267323Y246063D01*
X277165D01*
X283465Y252362D01*
X262992Y255118D02*
X264567D01*
X262992Y252756D02*
X264567D01*
D41*
X264567Y253937D02*
X303937D01*
M02*
